<svg width="387" height="156" viewBox="0 0 387 156" fill="none" xmlns="http://www.w3.org/2000/svg">
<g filter="url(#filter0_d_616_2823)">
<path d="M13 34C13 22.9543 21.9543 14 33 14H353C364.046 14 373 22.9543 373 34V122C373 133.046 364.046 142 353 142H33C21.9543 142 13 133.046 13 122V34Z" fill="#9CE6DD"/>
</g>
<path d="M188.962 50.4521C191.203 48.8573 196.017 48.8042 196.017 48.8042C196.017 48.8042 190.17 46.1549 189.513 43.4187C188.285 40.3454 187.331 37.6376 187.331 37.6376C187.331 37.6376 185.756 40.0128 184.068 42.696C182.379 45.3791 177.19 46.3056 177.19 46.3056C177.19 46.3056 181.586 47.5809 183.098 49.6738C184.61 51.7667 184.773 56.0336 184.773 56.0336C184.773 56.0336 186.721 52.0469 188.962 50.4521Z" fill="#F3F4FF"/>
<path d="M253.563 49.0564C255.135 46.8254 259.659 45.2146 259.659 45.2146C259.659 45.2146 253.242 44.6112 251.694 42.2428C249.492 39.7418 247.672 37.4969 247.672 37.4969C247.672 37.4969 246.993 40.248 246.311 43.3265C245.63 46.405 241.049 48.9612 241.049 48.9612C241.049 48.9612 245.629 48.7393 247.766 50.2235C249.903 51.7076 251.506 55.6797 251.506 55.6797C251.506 55.6797 251.99 51.2874 253.563 49.0564Z" fill="#F3F4FF"/>
<path d="M319.095 50.7559C321.384 49.2287 326.198 49.3192 326.198 49.3192C326.198 49.3192 320.436 46.4968 319.865 43.7422C318.733 40.6338 317.864 37.8988 317.864 37.8988C317.864 37.8988 316.216 40.2259 314.444 42.8574C312.673 45.489 307.458 46.2603 307.458 46.2603C307.458 46.2603 311.811 47.666 313.257 49.803C314.703 51.9401 314.733 56.2099 314.733 56.2099C314.733 56.2099 316.805 52.2831 319.095 50.7559Z" fill="#B5F8F0"/>
<path d="M157.129 48.8559C157.874 47.4661 160.21 46.4793 160.21 46.4793C160.21 46.4793 156.779 46.0698 155.861 44.5787C154.591 43.0012 153.534 41.5861 153.534 41.5861C153.534 41.5861 153.285 43.306 153.047 45.231C152.809 47.156 150.48 48.7348 150.48 48.7348C150.48 48.7348 152.903 48.6183 154.098 49.5584C155.292 50.4986 156.304 52.9946 156.304 52.9946C156.304 52.9946 156.384 50.2456 157.129 48.8559Z" fill="#F3F4FF"/>
<path d="M219.533 49.3336C220.673 48.2287 223.206 47.9778 223.206 47.9778C223.206 47.9778 220.062 46.5747 219.648 44.8822C218.924 43.0036 218.354 41.3425 218.354 41.3425C218.354 41.3425 217.585 42.9085 216.763 44.6734C215.941 46.4384 213.233 47.2559 213.233 47.2559C213.233 47.2559 215.579 47.8599 216.427 49.1088C217.275 50.3576 217.468 53.0357 217.468 53.0357C217.468 53.0357 218.393 50.4386 219.533 49.3336Z" fill="#F3F4FF"/>
<path d="M284.469 50.1086C285.914 49.4263 288.393 49.9945 288.393 49.9945C288.393 49.9945 285.887 47.6678 286.059 45.9359C286.001 43.9295 286.016 42.1776 286.016 42.1776C286.016 42.1776 284.766 43.4136 283.401 44.8211C282.037 46.2287 279.204 46.1404 279.204 46.1404C279.204 46.1404 281.22 47.4574 281.606 48.908C281.992 50.3586 281.282 52.9521 281.282 52.9521C281.282 52.9521 283.023 50.7909 284.469 50.1086Z" fill="#B5F8F0"/>
<path d="M50.14 39.5478V53.5878H46.72V45.1678L43.58 53.5878H40.82L37.66 45.1478V53.5878H34.24V39.5478H38.28L42.22 49.2678L46.12 39.5478H50.14ZM63.8344 42.4278L56.8344 58.8878H53.1544L55.7144 53.2078L51.1744 42.4278H54.9944L57.5744 49.4078L60.1344 42.4278H63.8344ZM68.3994 46.5478C68.3994 45.1611 68.6994 43.9278 69.2994 42.8478C69.8994 41.7544 70.7327 40.9078 71.7994 40.3078C72.8794 39.6944 74.0994 39.3878 75.4594 39.3878C77.126 39.3878 78.5527 39.8278 79.7394 40.7078C80.926 41.5878 81.7194 42.7878 82.1194 44.3078H78.3594C78.0794 43.7211 77.6794 43.2744 77.1594 42.9678C76.6527 42.6611 76.0727 42.5078 75.4194 42.5078C74.366 42.5078 73.5127 42.8744 72.8594 43.6078C72.206 44.3411 71.8794 45.3211 71.8794 46.5478C71.8794 47.7744 72.206 48.7544 72.8594 49.4878C73.5127 50.2211 74.366 50.5878 75.4194 50.5878C76.0727 50.5878 76.6527 50.4344 77.1594 50.1278C77.6794 49.8211 78.0794 49.3744 78.3594 48.7878H82.1194C81.7194 50.3078 80.926 51.5078 79.7394 52.3878C78.5527 53.2544 77.126 53.6878 75.4594 53.6878C74.0994 53.6878 72.8794 53.3878 71.7994 52.7878C70.7327 52.1744 69.8994 51.3278 69.2994 50.2478C68.6994 49.1678 68.3994 47.9344 68.3994 46.5478ZM87.4688 44.2878C87.8688 43.6744 88.3688 43.1944 88.9688 42.8478C89.5688 42.4878 90.2354 42.3078 90.9688 42.3078V45.9278H90.0288C89.1754 45.9278 88.5354 46.1144 88.1088 46.4878C87.6821 46.8478 87.4688 47.4878 87.4688 48.4078V53.5878H84.0488V42.4278H87.4688V44.2878ZM103.458 42.4278V53.5878H100.038V52.0678C99.6918 52.5611 99.2184 52.9611 98.6184 53.2678C98.0318 53.5611 97.3784 53.7078 96.6584 53.7078C95.8051 53.7078 95.0518 53.5211 94.3984 53.1478C93.7451 52.7611 93.2384 52.2078 92.8784 51.4878C92.5184 50.7678 92.3384 49.9211 92.3384 48.9478V42.4278H95.7384V48.4878C95.7384 49.2344 95.9318 49.8144 96.3184 50.2278C96.7051 50.6411 97.2251 50.8478 97.8784 50.8478C98.5451 50.8478 99.0718 50.6411 99.4584 50.2278C99.8451 49.8144 100.038 49.2344 100.038 48.4878V42.4278H103.458ZM110.29 53.7478C109.317 53.7478 108.45 53.5811 107.69 53.2478C106.93 52.9144 106.33 52.4611 105.89 51.8878C105.45 51.3011 105.203 50.6478 105.15 49.9278H108.53C108.57 50.3144 108.75 50.6278 109.07 50.8678C109.39 51.1078 109.783 51.2278 110.25 51.2278C110.677 51.2278 111.003 51.1478 111.23 50.9878C111.47 50.8144 111.59 50.5944 111.59 50.3278C111.59 50.0078 111.423 49.7744 111.09 49.6278C110.757 49.4678 110.217 49.2944 109.47 49.1078C108.67 48.9211 108.003 48.7278 107.47 48.5278C106.937 48.3144 106.477 47.9878 106.09 47.5478C105.703 47.0944 105.51 46.4878 105.51 45.7278C105.51 45.0878 105.683 44.5078 106.03 43.9878C106.39 43.4544 106.91 43.0344 107.59 42.7278C108.283 42.4211 109.103 42.2678 110.05 42.2678C111.45 42.2678 112.55 42.6144 113.35 43.3078C114.163 44.0011 114.63 44.9211 114.75 46.0678H111.59C111.537 45.6811 111.363 45.3744 111.07 45.1478C110.79 44.9211 110.417 44.8078 109.95 44.8078C109.55 44.8078 109.243 44.8878 109.03 45.0478C108.817 45.1944 108.71 45.4011 108.71 45.6678C108.71 45.9878 108.877 46.2278 109.21 46.3878C109.557 46.5478 110.09 46.7078 110.81 46.8678C111.637 47.0811 112.31 47.2944 112.83 47.5078C113.35 47.7078 113.803 48.0411 114.19 48.5078C114.59 48.9611 114.797 49.5744 114.81 50.3478C114.81 51.0011 114.623 51.5878 114.25 52.1078C113.89 52.6144 113.363 53.0144 112.67 53.3078C111.99 53.6011 111.197 53.7478 110.29 53.7478ZM123.597 42.3078C124.877 42.3078 125.904 42.7344 126.677 43.5878C127.451 44.4278 127.837 45.5878 127.837 47.0678V53.5878H124.437V47.5278C124.437 46.7811 124.244 46.2011 123.857 45.7878C123.471 45.3744 122.951 45.1678 122.297 45.1678C121.644 45.1678 121.124 45.3744 120.737 45.7878C120.351 46.2011 120.157 46.7811 120.157 47.5278V53.5878H116.737V38.7878H120.157V43.9278C120.504 43.4344 120.977 43.0411 121.577 42.7478C122.177 42.4544 122.851 42.3078 123.597 42.3078Z" fill="black"/>
<path d="M351.04 48.8335C351.805 47.4539 354.155 46.4987 354.155 46.4987C354.155 46.4987 350.73 46.0431 349.834 44.5397C348.585 42.9454 347.549 41.5161 347.549 41.5161C347.549 41.5161 347.275 43.2326 347.01 45.1542C346.745 47.0758 344.394 48.6231 344.394 48.6231C344.394 48.6231 346.819 48.5392 348 49.4953C349.181 50.4514 350.158 52.9608 350.158 52.9608C350.158 52.9608 350.276 50.2132 351.04 48.8335Z" fill="#B5F8F0"/>
<path d="M37.8516 97.5115C37.8516 86.4658 46.8059 77.5115 57.8516 77.5115H148.843C159.889 77.5115 168.843 86.4658 168.843 97.5115V101.481C168.843 112.527 159.889 121.481 148.843 121.481H57.8516C46.8059 121.481 37.8516 112.527 37.8516 101.481V97.5115Z" fill="#FFCB13"/>
<path d="M46.3933 75.5331C47.851 74.4671 50.1277 74.5746 51.4784 75.7733V75.7733C52.8292 76.9719 52.7425 78.8079 51.2848 79.8739L40.5308 87.7385C39.0731 88.8046 36.7965 88.697 35.4457 87.4984V87.4984C34.095 86.2997 34.1817 84.4638 35.6394 83.3978L46.3933 75.5331Z" fill="white" fill-opacity="0.65"/>
<path d="M166.47 111.686C167.927 110.62 170.204 110.727 171.555 111.926V111.926C172.905 113.125 172.819 114.961 171.361 116.027L160.607 123.891C159.149 124.957 156.873 124.85 155.522 123.651V123.651C154.171 122.453 154.258 120.617 155.716 119.551L166.47 111.686Z" fill="white" fill-opacity="0.65"/>
<path d="M213.852 97.5115C213.852 86.4658 222.806 77.5115 233.852 77.5115H324.843C335.889 77.5115 344.843 86.4658 344.843 97.5115V101.481C344.843 112.527 335.889 121.481 324.843 121.481H233.852C222.806 121.481 213.852 112.527 213.852 101.481V97.5115Z" fill="#B5D364"/>
<path d="M222.393 75.5331C223.851 74.4671 226.128 74.5746 227.478 75.7733V75.7733C228.829 76.9719 228.742 78.8079 227.285 79.8739L216.531 87.7385C215.073 88.8046 212.796 88.697 211.446 87.4984V87.4984C210.095 86.2997 210.182 84.4638 211.639 83.3978L222.393 75.5331Z" fill="white" fill-opacity="0.65"/>
<path d="M342.47 111.686C343.927 110.62 346.204 110.727 347.555 111.926V111.926C348.905 113.125 348.819 114.961 347.361 116.027L336.607 123.891C335.149 124.957 332.873 124.85 331.522 123.651V123.651C330.171 122.453 330.258 120.617 331.716 119.551L342.47 111.686Z" fill="white" fill-opacity="0.65"/>
<path d="M74.404 101.271C74.404 101.943 74.242 102.573 73.918 103.161C73.606 103.749 73.108 104.223 72.424 104.583C71.752 104.943 70.9 105.123 69.868 105.123H67.762V109.947H65.242V97.3825H69.868C70.84 97.3825 71.668 97.5505 72.352 97.8865C73.036 98.2225 73.546 98.6845 73.882 99.2725C74.23 99.8605 74.404 100.527 74.404 101.271ZM69.76 103.089C70.456 103.089 70.972 102.933 71.308 102.621C71.644 102.297 71.812 101.847 71.812 101.271C71.812 100.047 71.128 99.4345 69.76 99.4345H67.762V103.089H69.76ZM85.2982 104.745C85.2982 105.105 85.2742 105.429 85.2262 105.717H77.9362C77.9962 106.437 78.2482 107.001 78.6922 107.409C79.1362 107.817 79.6822 108.021 80.3302 108.021C81.2662 108.021 81.9322 107.619 82.3282 106.815H85.0462C84.7582 107.775 84.2062 108.567 83.3902 109.191C82.5742 109.803 81.5722 110.109 80.3842 110.109C79.4242 110.109 78.5602 109.899 77.7922 109.479C77.0362 109.047 76.4422 108.441 76.0102 107.661C75.5902 106.881 75.3802 105.981 75.3802 104.961C75.3802 103.929 75.5902 103.023 76.0102 102.243C76.4302 101.463 77.0182 100.863 77.7742 100.443C78.5302 100.023 79.4002 99.8125 80.3842 99.8125C81.3322 99.8125 82.1782 100.017 82.9222 100.425C83.6782 100.833 84.2602 101.415 84.6682 102.171C85.0882 102.915 85.2982 103.773 85.2982 104.745ZM82.6882 104.025C82.6762 103.377 82.4422 102.861 81.9862 102.477C81.5302 102.081 80.9722 101.883 80.3122 101.883C79.6882 101.883 79.1602 102.075 78.7282 102.459C78.3082 102.831 78.0502 103.353 77.9542 104.025H82.6882ZM89.4925 101.523C89.8165 100.995 90.2365 100.581 90.7525 100.281C91.2805 99.9805 91.8805 99.8305 92.5525 99.8305V102.477H91.8865C91.0945 102.477 90.4945 102.663 90.0865 103.035C89.6905 103.407 89.4925 104.055 89.4925 104.979V109.947H86.9725V99.9745H89.4925V101.523ZM97.9009 110.109C97.0849 110.109 96.3529 109.965 95.7049 109.677C95.0569 109.377 94.5409 108.975 94.1569 108.471C93.7849 107.967 93.5809 107.409 93.5449 106.797H96.0829C96.1309 107.181 96.3169 107.499 96.6409 107.751C96.9769 108.003 97.3909 108.129 97.8829 108.129C98.3629 108.129 98.7349 108.033 98.9989 107.841C99.2749 107.649 99.4129 107.403 99.4129 107.103C99.4129 106.779 99.2449 106.539 98.9089 106.383C98.5849 106.215 98.0629 106.035 97.3429 105.843C96.5989 105.663 95.9869 105.477 95.5069 105.285C95.0389 105.093 94.6309 104.799 94.2829 104.403C93.9469 104.007 93.7789 103.473 93.7789 102.801C93.7789 102.249 93.9349 101.745 94.2469 101.289C94.5709 100.833 95.0269 100.473 95.6149 100.209C96.2149 99.9445 96.9169 99.8125 97.7209 99.8125C98.9089 99.8125 99.8569 100.113 100.565 100.713C101.273 101.301 101.663 102.099 101.735 103.107H99.3229C99.2869 102.711 99.1189 102.399 98.8189 102.171C98.5309 101.931 98.1409 101.811 97.6489 101.811C97.1929 101.811 96.8389 101.895 96.5869 102.063C96.3469 102.231 96.2269 102.465 96.2269 102.765C96.2269 103.101 96.3949 103.359 96.7309 103.539C97.0669 103.707 97.5889 103.881 98.2969 104.061C99.0169 104.241 99.6109 104.427 100.079 104.619C100.547 104.811 100.949 105.111 101.285 105.519C101.633 105.915 101.813 106.443 101.825 107.103C101.825 107.679 101.663 108.195 101.339 108.651C101.027 109.107 100.571 109.467 99.9709 109.731C99.3829 109.983 98.6929 110.109 97.9009 110.109ZM108.156 110.109C107.196 110.109 106.332 109.899 105.564 109.479C104.796 109.047 104.19 108.441 103.746 107.661C103.314 106.881 103.098 105.981 103.098 104.961C103.098 103.941 103.32 103.041 103.764 102.261C104.22 101.481 104.838 100.881 105.618 100.461C106.398 100.029 107.268 99.8125 108.228 99.8125C109.188 99.8125 110.058 100.029 110.838 100.461C111.618 100.881 112.23 101.481 112.674 102.261C113.13 103.041 113.358 103.941 113.358 104.961C113.358 105.981 113.124 106.881 112.656 107.661C112.2 108.441 111.576 109.047 110.784 109.479C110.004 109.899 109.128 110.109 108.156 110.109ZM108.156 107.913C108.612 107.913 109.038 107.805 109.434 107.589C109.842 107.361 110.166 107.025 110.406 106.581C110.646 106.137 110.766 105.597 110.766 104.961C110.766 104.013 110.514 103.287 110.01 102.783C109.518 102.267 108.912 102.009 108.192 102.009C107.472 102.009 106.866 102.267 106.374 102.783C105.894 103.287 105.654 104.013 105.654 104.961C105.654 105.909 105.888 106.641 106.356 107.157C106.836 107.661 107.436 107.913 108.156 107.913ZM120.568 99.8305C121.756 99.8305 122.716 100.209 123.448 100.965C124.18 101.709 124.546 102.753 124.546 104.097V109.947H122.026V104.439C122.026 103.647 121.828 103.041 121.432 102.621C121.036 102.189 120.496 101.973 119.812 101.973C119.116 101.973 118.564 102.189 118.156 102.621C117.76 103.041 117.562 103.647 117.562 104.439V109.947H115.042V99.9745H117.562V101.217C117.898 100.785 118.324 100.449 118.84 100.209C119.368 99.9565 119.944 99.8305 120.568 99.8305ZM126.129 104.925C126.129 103.917 126.327 103.023 126.723 102.243C127.131 101.463 127.677 100.863 128.361 100.443C129.057 100.023 129.831 99.8125 130.683 99.8125C131.427 99.8125 132.075 99.9625 132.627 100.263C133.191 100.563 133.641 100.941 133.977 101.397V99.9745H136.515V109.947H133.977V108.489C133.653 108.957 133.203 109.347 132.627 109.659C132.063 109.959 131.409 110.109 130.665 110.109C129.825 110.109 129.057 109.893 128.361 109.461C127.677 109.029 127.131 108.423 126.723 107.643C126.327 106.851 126.129 105.945 126.129 104.925ZM133.977 104.961C133.977 104.349 133.857 103.827 133.617 103.395C133.377 102.951 133.053 102.615 132.645 102.387C132.237 102.147 131.799 102.027 131.331 102.027C130.863 102.027 130.431 102.141 130.035 102.369C129.639 102.597 129.315 102.933 129.063 103.377C128.823 103.809 128.703 104.325 128.703 104.925C128.703 105.525 128.823 106.053 129.063 106.509C129.315 106.953 129.639 107.295 130.035 107.535C130.443 107.775 130.875 107.895 131.331 107.895C131.799 107.895 132.237 107.781 132.645 107.553C133.053 107.313 133.377 106.977 133.617 106.545C133.857 106.101 133.977 105.573 133.977 104.961ZM141.332 96.6265V109.947H138.812V96.6265H141.332Z" fill="black"/>
<path d="M20 36C20 27.7157 26.7157 21 35 21H351C359.284 21 366 27.7157 366 36V120C366 128.284 359.284 135 351 135H35C26.7157 135 20 128.284 20 120V36Z" fill="#EAF7F5"/>
<path d="M48.3011 37.1984V51.2384H44.8811V42.8184L41.7411 51.2384H38.9811L35.8211 42.7984V51.2384H32.4011V37.1984H36.4411L40.3811 46.9184L44.2811 37.1984H48.3011ZM61.9955 40.0784L54.9955 56.5384H51.3155L53.8755 50.8584L49.3355 40.0784H53.1555L55.7355 47.0584L58.2955 40.0784H61.9955ZM66.5605 44.1984C66.5605 42.8117 66.8605 41.5784 67.4605 40.4984C68.0605 39.4051 68.8938 38.5584 69.9605 37.9584C71.0405 37.3451 72.2605 37.0384 73.6205 37.0384C75.2872 37.0384 76.7138 37.4784 77.9005 38.3584C79.0872 39.2384 79.8805 40.4384 80.2805 41.9584H76.5205C76.2405 41.3717 75.8405 40.9251 75.3205 40.6184C74.8138 40.3117 74.2338 40.1584 73.5805 40.1584C72.5272 40.1584 71.6738 40.5251 71.0205 41.2584C70.3672 41.9917 70.0405 42.9717 70.0405 44.1984C70.0405 45.4251 70.3672 46.4051 71.0205 47.1384C71.6738 47.8717 72.5272 48.2384 73.5805 48.2384C74.2338 48.2384 74.8138 48.0851 75.3205 47.7784C75.8405 47.4717 76.2405 47.0251 76.5205 46.4384H80.2805C79.8805 47.9584 79.0872 49.1584 77.9005 50.0384C76.7138 50.9051 75.2872 51.3384 73.6205 51.3384C72.2605 51.3384 71.0405 51.0384 69.9605 50.4384C68.8938 49.8251 68.0605 48.9784 67.4605 47.8984C66.8605 46.8184 66.5605 45.5851 66.5605 44.1984ZM85.6299 41.9384C86.0299 41.3251 86.5299 40.8451 87.1299 40.4984C87.7299 40.1384 88.3965 39.9584 89.1299 39.9584V43.5784H88.1899C87.3366 43.5784 86.6966 43.7651 86.2699 44.1384C85.8432 44.4984 85.6299 45.1384 85.6299 46.0584V51.2384H82.2099V40.0784H85.6299V41.9384ZM101.62 40.0784V51.2384H98.1996V49.7184C97.8529 50.2117 97.3796 50.6117 96.7796 50.9184C96.1929 51.2117 95.5396 51.3584 94.8196 51.3584C93.9662 51.3584 93.2129 51.1717 92.5596 50.7984C91.9062 50.4117 91.3996 49.8584 91.0396 49.1384C90.6796 48.4184 90.4996 47.5717 90.4996 46.5984V40.0784H93.8996V46.1384C93.8996 46.8851 94.0929 47.4651 94.4796 47.8784C94.8662 48.2917 95.3862 48.4984 96.0396 48.4984C96.7062 48.4984 97.2329 48.2917 97.6196 47.8784C98.0062 47.4651 98.1996 46.8851 98.1996 46.1384V40.0784H101.62ZM108.451 51.3984C107.478 51.3984 106.611 51.2317 105.851 50.8984C105.091 50.5651 104.491 50.1117 104.051 49.5384C103.611 48.9517 103.364 48.2984 103.311 47.5784H106.691C106.731 47.9651 106.911 48.2784 107.231 48.5184C107.551 48.7584 107.944 48.8784 108.411 48.8784C108.838 48.8784 109.164 48.7984 109.391 48.6384C109.631 48.4651 109.751 48.2451 109.751 47.9784C109.751 47.6584 109.584 47.4251 109.251 47.2784C108.918 47.1184 108.378 46.9451 107.631 46.7584C106.831 46.5717 106.164 46.3784 105.631 46.1784C105.098 45.9651 104.638 45.6384 104.251 45.1984C103.864 44.7451 103.671 44.1384 103.671 43.3784C103.671 42.7384 103.844 42.1584 104.191 41.6384C104.551 41.1051 105.071 40.6851 105.751 40.3784C106.444 40.0717 107.264 39.9184 108.211 39.9184C109.611 39.9184 110.711 40.2651 111.511 40.9584C112.324 41.6517 112.791 42.5717 112.911 43.7184H109.751C109.698 43.3317 109.524 43.0251 109.231 42.7984C108.951 42.5717 108.578 42.4584 108.111 42.4584C107.711 42.4584 107.404 42.5384 107.191 42.6984C106.978 42.8451 106.871 43.0517 106.871 43.3184C106.871 43.6384 107.038 43.8784 107.371 44.0384C107.718 44.1984 108.251 44.3584 108.971 44.5184C109.798 44.7317 110.471 44.9451 110.991 45.1584C111.511 45.3584 111.964 45.6917 112.351 46.1584C112.751 46.6117 112.958 47.2251 112.971 47.9984C112.971 48.6517 112.784 49.2384 112.411 49.7584C112.051 50.2651 111.524 50.6651 110.831 50.9584C110.151 51.2517 109.358 51.3984 108.451 51.3984ZM121.758 39.9584C123.038 39.9584 124.065 40.3851 124.838 41.2384C125.612 42.0784 125.998 43.2384 125.998 44.7184V51.2384H122.598V45.1784C122.598 44.4317 122.405 43.8517 122.018 43.4384C121.632 43.0251 121.112 42.8184 120.458 42.8184C119.805 42.8184 119.285 43.0251 118.898 43.4384C118.512 43.8517 118.318 44.4317 118.318 45.1784V51.2384H114.898V36.4384H118.318V41.5784C118.665 41.0851 119.138 40.6917 119.738 40.3984C120.338 40.1051 121.012 39.9584 121.758 39.9584ZM138.73 45.4784C138.73 45.7984 138.71 46.1317 138.67 46.4784H130.93C130.983 47.1717 131.203 47.7051 131.59 48.0784C131.99 48.4384 132.477 48.6184 133.05 48.6184C133.903 48.6184 134.497 48.2584 134.83 47.5384H138.47C138.283 48.2717 137.943 48.9317 137.45 49.5184C136.97 50.1051 136.363 50.5651 135.63 50.8984C134.897 51.2317 134.077 51.3984 133.17 51.3984C132.077 51.3984 131.103 51.1651 130.25 50.6984C129.397 50.2317 128.73 49.5651 128.25 48.6984C127.77 47.8317 127.53 46.8184 127.53 45.6584C127.53 44.4984 127.763 43.4851 128.23 42.6184C128.71 41.7517 129.377 41.0851 130.23 40.6184C131.083 40.1517 132.063 39.9184 133.17 39.9184C134.25 39.9184 135.21 40.1451 136.05 40.5984C136.89 41.0517 137.543 41.6984 138.01 42.5384C138.49 43.3784 138.73 44.3584 138.73 45.4784ZM135.23 44.5784C135.23 43.9917 135.03 43.5251 134.63 43.1784C134.23 42.8317 133.73 42.6584 133.13 42.6584C132.557 42.6584 132.07 42.8251 131.67 43.1584C131.283 43.4917 131.043 43.9651 130.95 44.5784H135.23ZM144.909 51.3984C143.936 51.3984 143.069 51.2317 142.309 50.8984C141.549 50.5651 140.949 50.1117 140.509 49.5384C140.069 48.9517 139.823 48.2984 139.769 47.5784H143.149C143.189 47.9651 143.369 48.2784 143.689 48.5184C144.009 48.7584 144.403 48.8784 144.869 48.8784C145.296 48.8784 145.623 48.7984 145.849 48.6384C146.089 48.4651 146.209 48.2451 146.209 47.9784C146.209 47.6584 146.043 47.4251 145.709 47.2784C145.376 47.1184 144.836 46.9451 144.089 46.7584C143.289 46.5717 142.623 46.3784 142.089 46.1784C141.556 45.9651 141.096 45.6384 140.709 45.1984C140.323 44.7451 140.129 44.1384 140.129 43.3784C140.129 42.7384 140.303 42.1584 140.649 41.6384C141.009 41.1051 141.529 40.6851 142.209 40.3784C142.903 40.0717 143.723 39.9184 144.669 39.9184C146.069 39.9184 147.169 40.2651 147.969 40.9584C148.783 41.6517 149.249 42.5717 149.369 43.7184H146.209C146.156 43.3317 145.983 43.0251 145.689 42.7984C145.409 42.5717 145.036 42.4584 144.569 42.4584C144.169 42.4584 143.863 42.5384 143.649 42.6984C143.436 42.8451 143.329 43.0517 143.329 43.3184C143.329 43.6384 143.496 43.8784 143.829 44.0384C144.176 44.1984 144.709 44.3584 145.429 44.5184C146.256 44.7317 146.929 44.9451 147.449 45.1584C147.969 45.3584 148.423 45.6917 148.809 46.1584C149.209 46.6117 149.416 47.2251 149.429 47.9984C149.429 48.6517 149.243 49.2384 148.869 49.7584C148.509 50.2651 147.983 50.6651 147.289 50.9584C146.609 51.2517 145.816 51.3984 144.909 51.3984Z" fill="black"/>
<rect x="218" y="72" width="130.992" height="45" rx="2" fill="#B5D364"/>
<rect width="7.05706" height="21.115" transform="matrix(0.693129 0.720813 -0.759303 0.650737 229.033 67)" fill="white" fill-opacity="0.65"/>
<rect width="7.05706" height="21.115" transform="matrix(0.693129 0.720813 -0.759303 0.650737 349.033 103)" fill="white" fill-opacity="0.65"/>
<rect x="34.8516" y="71.5802" width="130.992" height="45" rx="2" fill="#FFCB13"/>
<rect width="7.05706" height="21.115" transform="matrix(0.693129 0.720813 -0.759303 0.650737 46.0327 67)" fill="white" fill-opacity="0.65"/>
<rect width="7.05706" height="21.115" transform="matrix(0.693129 0.720813 -0.759303 0.650737 166.033 103)" fill="white" fill-opacity="0.65"/>
<defs>
<filter id="filter0_d_616_2823" x="-1" y="0" width="388" height="156" filterUnits="userSpaceOnUse" color-interpolation-filters="sRGB">
<feFlood flood-opacity="0" result="BackgroundImageFix"/>
<feColorMatrix in="SourceAlpha" type="matrix" values="0 0 0 0 0 0 0 0 0 0 0 0 0 0 0 0 0 0 127 0" result="hardAlpha"/>
<feMorphology radius="4" operator="dilate" in="SourceAlpha" result="effect1_dropShadow_616_2823"/>
<feOffset/>
<feGaussianBlur stdDeviation="5"/>
<feComposite in2="hardAlpha" operator="out"/>
<feColorMatrix type="matrix" values="0 0 0 0 0.552941 0 0 0 0 0.898039 0 0 0 0 0.858824 0 0 0 0.25 0"/>
<feBlend mode="normal" in2="BackgroundImageFix" result="effect1_dropShadow_616_2823"/>
<feBlend mode="normal" in="SourceGraphic" in2="effect1_dropShadow_616_2823" result="shape"/>
</filter>
</defs>
</svg>
