<svg width="408" height="264" viewBox="0 0 408 264" fill="none" xmlns="http://www.w3.org/2000/svg">
<path d="M14 107H374V244C374 255.046 365.046 264 354 264H34C22.9543 264 14 255.046 14 244V107Z" fill="#F1F0FF"/>
<g filter="url(#filter0_d_533_6131)">
<path d="M14 65C14 53.9543 22.9543 45 34 45H354C365.046 45 374 53.9543 374 65V107H14V65Z" fill="#B2ABFF"/>
</g>
<path d="M44.38 70.96V73.7H38.66V76.66H42.94V79.32H38.66V85H35.24V70.96H44.38ZM49.4325 75.7C49.8325 75.0867 50.3325 74.6067 50.9325 74.26C51.5325 73.9 52.1992 73.72 52.9325 73.72V77.34H51.9925C51.1392 77.34 50.4992 77.5267 50.0725 77.9C49.6458 78.26 49.4325 78.9 49.4325 79.82V85H46.0125V73.84H49.4325V75.7ZM56.1222 72.68C55.5222 72.68 55.0289 72.5067 54.6422 72.16C54.2689 71.8 54.0822 71.36 54.0822 70.84C54.0822 70.3067 54.2689 69.8667 54.6422 69.52C55.0289 69.16 55.5222 68.98 56.1222 68.98C56.7089 68.98 57.1889 69.16 57.5622 69.52C57.9489 69.8667 58.1422 70.3067 58.1422 70.84C58.1422 71.36 57.9489 71.8 57.5622 72.16C57.1889 72.5067 56.7089 72.68 56.1222 72.68ZM57.8222 73.84V85H54.4022V73.84H57.8222ZM70.6556 79.24C70.6556 79.56 70.6356 79.8933 70.5956 80.24H62.8556C62.909 80.9333 63.129 81.4667 63.5156 81.84C63.9156 82.2 64.4023 82.38 64.9756 82.38C65.829 82.38 66.4223 82.02 66.7556 81.3H70.3956C70.209 82.0333 69.869 82.6933 69.3756 83.28C68.8956 83.8667 68.289 84.3267 67.5556 84.66C66.8223 84.9933 66.0023 85.16 65.0956 85.16C64.0023 85.16 63.029 84.9267 62.1756 84.46C61.3223 83.9933 60.6556 83.3267 60.1756 82.46C59.6956 81.5933 59.4556 80.58 59.4556 79.42C59.4556 78.26 59.689 77.2467 60.1556 76.38C60.6356 75.5133 61.3023 74.8467 62.1556 74.38C63.009 73.9133 63.989 73.68 65.0956 73.68C66.1756 73.68 67.1356 73.9067 67.9756 74.36C68.8156 74.8133 69.469 75.46 69.9356 76.3C70.4156 77.14 70.6556 78.12 70.6556 79.24ZM67.1556 78.34C67.1556 77.7533 66.9556 77.2867 66.5556 76.94C66.1556 76.5933 65.6556 76.42 65.0556 76.42C64.4823 76.42 63.9956 76.5867 63.5956 76.92C63.209 77.2533 62.969 77.7267 62.8756 78.34H67.1556ZM79.0948 73.72C80.4015 73.72 81.4415 74.1467 82.2148 75C83.0015 75.84 83.3948 77 83.3948 78.48V85H79.9948V78.94C79.9948 78.1933 79.8015 77.6133 79.4148 77.2C79.0282 76.7867 78.5082 76.58 77.8548 76.58C77.2015 76.58 76.6815 76.7867 76.2948 77.2C75.9082 77.6133 75.7148 78.1933 75.7148 78.94V85H72.2948V73.84H75.7148V75.32C76.0615 74.8267 76.5282 74.44 77.1148 74.16C77.7015 73.8667 78.3615 73.72 79.0948 73.72ZM84.9264 79.4C84.9264 78.2533 85.1397 77.2467 85.5664 76.38C86.0064 75.5133 86.5997 74.8467 87.3464 74.38C88.0931 73.9133 88.9264 73.68 89.8464 73.68C90.5797 73.68 91.2464 73.8333 91.8464 74.14C92.4597 74.4467 92.9397 74.86 93.2864 75.38V70.2H96.7064V85H93.2864V83.4C92.9664 83.9333 92.5064 84.36 91.9064 84.68C91.3197 85 90.6331 85.16 89.8464 85.16C88.9264 85.16 88.0931 84.9267 87.3464 84.46C86.5997 83.98 86.0064 83.3067 85.5664 82.44C85.1397 81.56 84.9264 80.5467 84.9264 79.4ZM93.2864 79.42C93.2864 78.5667 93.0464 77.8933 92.5664 77.4C92.0997 76.9067 91.5264 76.66 90.8464 76.66C90.1664 76.66 89.5864 76.9067 89.1064 77.4C88.6397 77.88 88.4064 78.5467 88.4064 79.4C88.4064 80.2533 88.6397 80.9333 89.1064 81.44C89.5864 81.9333 90.1664 82.18 90.8464 82.18C91.5264 82.18 92.0997 81.9333 92.5664 81.44C93.0464 80.9467 93.2864 80.2733 93.2864 79.42ZM103.556 85.16C102.582 85.16 101.716 84.9933 100.956 84.66C100.196 84.3267 99.5956 83.8733 99.1556 83.3C98.7156 82.7133 98.469 82.06 98.4156 81.34H101.796C101.836 81.7267 102.016 82.04 102.336 82.28C102.656 82.52 103.049 82.64 103.516 82.64C103.942 82.64 104.269 82.56 104.496 82.4C104.736 82.2267 104.856 82.0067 104.856 81.74C104.856 81.42 104.689 81.1867 104.356 81.04C104.022 80.88 103.482 80.7067 102.736 80.52C101.936 80.3333 101.269 80.14 100.736 79.94C100.202 79.7267 99.7423 79.4 99.3556 78.96C98.969 78.5067 98.7756 77.9 98.7756 77.14C98.7756 76.5 98.949 75.92 99.2956 75.4C99.6556 74.8667 100.176 74.4467 100.856 74.14C101.549 73.8333 102.369 73.68 103.316 73.68C104.716 73.68 105.816 74.0267 106.616 74.72C107.429 75.4133 107.896 76.3333 108.016 77.48H104.856C104.802 77.0933 104.629 76.7867 104.336 76.56C104.056 76.3333 103.682 76.22 103.216 76.22C102.816 76.22 102.509 76.3 102.296 76.46C102.082 76.6067 101.976 76.8133 101.976 77.08C101.976 77.4 102.142 77.64 102.476 77.8C102.822 77.96 103.356 78.12 104.076 78.28C104.902 78.4933 105.576 78.7067 106.096 78.92C106.616 79.12 107.069 79.4533 107.456 79.92C107.856 80.3733 108.062 80.9867 108.076 81.76C108.076 82.4133 107.889 83 107.516 83.52C107.156 84.0267 106.629 84.4267 105.936 84.72C105.256 85.0133 104.462 85.16 103.556 85.16ZM116.863 73.72C118.143 73.72 119.17 74.1467 119.943 75C120.716 75.84 121.103 77 121.103 78.48V85H117.703V78.94C117.703 78.1933 117.51 77.6133 117.123 77.2C116.736 76.7867 116.216 76.58 115.563 76.58C114.91 76.58 114.39 76.7867 114.003 77.2C113.616 77.6133 113.423 78.1933 113.423 78.94V85H110.003V70.2H113.423V75.34C113.77 74.8467 114.243 74.4533 114.843 74.16C115.443 73.8667 116.116 73.72 116.863 73.72ZM125.035 72.68C124.435 72.68 123.941 72.5067 123.555 72.16C123.181 71.8 122.995 71.36 122.995 70.84C122.995 70.3067 123.181 69.8667 123.555 69.52C123.941 69.16 124.435 68.98 125.035 68.98C125.621 68.98 126.101 69.16 126.475 69.52C126.861 69.8667 127.055 70.3067 127.055 70.84C127.055 71.36 126.861 71.8 126.475 72.16C126.101 72.5067 125.621 72.68 125.035 72.68ZM126.735 73.84V85H123.315V73.84H126.735ZM132.468 75.42C132.801 74.9 133.261 74.48 133.848 74.16C134.435 73.84 135.121 73.68 135.908 73.68C136.828 73.68 137.661 73.9133 138.408 74.38C139.155 74.8467 139.741 75.5133 140.168 76.38C140.608 77.2467 140.828 78.2533 140.828 79.4C140.828 80.5467 140.608 81.56 140.168 82.44C139.741 83.3067 139.155 83.98 138.408 84.46C137.661 84.9267 136.828 85.16 135.908 85.16C135.135 85.16 134.448 85 133.848 84.68C133.261 84.36 132.801 83.9467 132.468 83.44V90.32H129.048V73.84H132.468V75.42ZM137.348 79.4C137.348 78.5467 137.108 77.88 136.628 77.4C136.161 76.9067 135.581 76.66 134.888 76.66C134.208 76.66 133.628 76.9067 133.148 77.4C132.681 77.8933 132.448 78.5667 132.448 79.42C132.448 80.2733 132.681 80.9467 133.148 81.44C133.628 81.9333 134.208 82.18 134.888 82.18C135.568 82.18 136.148 81.9333 136.628 81.44C137.108 80.9333 137.348 80.2533 137.348 79.4ZM146.997 85.16C146.024 85.16 145.157 84.9933 144.397 84.66C143.637 84.3267 143.037 83.8733 142.597 83.3C142.157 82.7133 141.911 82.06 141.857 81.34H145.237C145.277 81.7267 145.457 82.04 145.777 82.28C146.097 82.52 146.491 82.64 146.957 82.64C147.384 82.64 147.711 82.56 147.937 82.4C148.177 82.2267 148.297 82.0067 148.297 81.74C148.297 81.42 148.131 81.1867 147.797 81.04C147.464 80.88 146.924 80.7067 146.177 80.52C145.377 80.3333 144.711 80.14 144.177 79.94C143.644 79.7267 143.184 79.4 142.797 78.96C142.411 78.5067 142.217 77.9 142.217 77.14C142.217 76.5 142.391 75.92 142.737 75.4C143.097 74.8667 143.617 74.4467 144.297 74.14C144.991 73.8333 145.811 73.68 146.757 73.68C148.157 73.68 149.257 74.0267 150.057 74.72C150.871 75.4133 151.337 76.3333 151.457 77.48H148.297C148.244 77.0933 148.071 76.7867 147.777 76.56C147.497 76.3333 147.124 76.22 146.657 76.22C146.257 76.22 145.951 76.3 145.737 76.46C145.524 76.6067 145.417 76.8133 145.417 77.08C145.417 77.4 145.584 77.64 145.917 77.8C146.264 77.96 146.797 78.12 147.517 78.28C148.344 78.4933 149.017 78.7067 149.537 78.92C150.057 79.12 150.511 79.4533 150.897 79.92C151.297 80.3733 151.504 80.9867 151.517 81.76C151.517 82.4133 151.331 83 150.957 83.52C150.597 84.0267 150.071 84.4267 149.377 84.72C148.697 85.0133 147.904 85.16 146.997 85.16Z" fill="black"/>
<g clip-path="url(#clip0_533_6131)">
<path fill-rule="evenodd" clip-rule="evenodd" d="M308.993 83.0886C309.377 83.6641 309.762 84.2391 310.165 84.8004C310.224 84.8833 310.285 84.9661 310.346 85.05C310.918 85.8332 311.53 86.6725 311.521 87.6687C311.517 88.1587 311.444 88.6999 310.963 88.9631C310.952 88.7724 310.674 88.9609 310.58 89.0247C310.575 89.0285 310.57 89.0318 310.566 89.0345C310.399 89.1457 310.366 89.1931 310.324 89.2024C310.285 89.2105 310.239 89.1866 310.073 89.15C309.863 89.1048 309.664 89.0994 309.471 89.0939C309.147 89.0846 308.836 89.0765 308.511 88.8797C308.195 88.6895 307.881 88.4971 307.567 88.3058C306.783 87.8268 305.999 87.3483 305.198 86.8949C302.771 85.5226 300.368 84.1176 298.117 82.4777C296.869 81.5681 295.587 80.689 294.302 79.8083C291.536 77.9112 288.759 76.007 286.289 73.7796C282.675 70.5205 278.882 67.2876 274.593 64.9038C274.53 64.8684 274.438 64.8286 274.336 64.7839C273.982 64.6297 273.499 64.4193 273.558 64.1234C273.608 63.8743 274.032 63.5511 274.352 63.307C274.462 63.2231 274.56 63.1489 274.626 63.0901C274.945 62.8056 275.269 62.5271 275.594 62.2481C276.185 61.7396 276.775 61.2316 277.337 60.691C278.943 59.146 280.537 57.4407 281.826 55.628C282.39 54.8345 282.705 53.961 283.03 53.0636C283.066 52.9635 283.102 52.8632 283.138 52.7626C283.461 51.8775 283.76 50.7879 283.236 49.9122C282.993 49.5066 282.658 49.3421 282.189 49.3729C282.128 49.3769 282.076 49.3823 282.032 49.3869C281.803 49.411 281.794 49.4118 281.665 49.0724C281.645 49.0188 281.625 48.9643 281.605 48.9092C281.462 48.5172 281.311 48.102 280.921 47.8813C280.5 47.6424 280.202 47.8555 279.869 48.0935C279.838 48.1154 279.807 48.1376 279.775 48.1596C279.705 48.0604 279.633 47.9493 279.557 47.8327C279.166 47.2352 278.68 46.4915 277.958 46.4428C277.061 46.3825 276.55 47.4632 276.237 48.1225L276.232 48.1343C275.311 50.08 274.113 51.8977 272.824 53.6305C271.427 55.5087 269.999 57.4194 268.46 59.1879C268.39 59.2686 268.317 59.3574 268.242 59.4495C267.97 59.7831 267.665 60.158 267.305 60.3357C266.834 60.5689 266.443 60.3504 266.045 60.0817C265.827 59.9351 265.61 59.7869 265.394 59.6392C264.679 59.152 263.967 58.6664 263.218 58.2227C262.389 57.7317 261.543 57.2728 260.697 56.8139C260.438 56.6733 260.179 56.5327 259.921 56.391C259.727 56.2853 259.538 56.1714 259.348 56.0569C259.061 55.8831 258.772 55.7092 258.47 55.5648C258.203 55.4373 257.923 55.3468 257.642 55.2563C257.431 55.1882 257.221 55.1201 257.015 55.0367C258.661 54.5549 260.388 55.1152 261.967 55.6269C262.073 55.6618 262.18 55.6961 262.285 55.7305C263.149 56.0079 264.051 56.2962 264.973 56.2221C265.77 56.1572 266.493 55.7387 267.123 55.2809C268.262 54.4537 268.352 53.2111 267.981 51.9554C267.729 51.1053 267.399 50.2745 267.07 49.4443C266.839 48.8627 266.608 48.2814 266.405 47.6941C266.18 47.0457 266.025 46.3569 266.537 45.7966C266.995 45.2952 267.587 45.2335 268.212 45.4309C268.274 45.4505 268.336 45.47 268.397 45.4895C269.837 45.9456 271.137 46.3571 272.694 46.3135C273.964 46.2781 275.579 45.9242 276.435 44.9111C276.903 44.3558 276.921 43.5922 276.923 42.9034C276.926 42.0871 276.873 41.2661 276.757 40.4579C276.712 40.1475 276.652 39.8371 276.592 39.5271C276.373 38.3964 276.156 37.2706 276.686 36.1719C276.844 35.8435 277.285 35.0787 277.721 35.0328C278.192 34.9833 278.304 35.5377 278.373 35.8856C278.381 35.9277 278.389 35.9668 278.397 36.0014C278.469 35.9567 278.538 35.943 278.6 35.9308C278.712 35.9086 278.798 35.8915 278.828 35.7013C279.278 36.1647 279.666 36.6759 280.054 37.1877C280.22 37.4075 280.387 37.6274 280.559 37.8436C280.803 38.1514 281.109 38.4311 281.415 38.7109C281.795 39.0587 282.176 39.4067 282.439 39.809C282.706 40.2184 282.503 40.7688 282.312 41.2849C282.216 41.5455 282.123 41.7973 282.095 42.0178C282.003 42.7583 282.199 43.6058 282.714 44.1703C282.955 44.4343 283.25 44.6177 283.606 44.6886C283.795 44.7264 283.98 44.6855 284.158 44.646C284.314 44.6117 284.464 44.5784 284.609 44.5986C284.828 44.6292 284.87 44.7547 284.932 44.9444C284.943 44.9783 284.955 45.0142 284.969 45.0521C285.093 45.3944 285.251 45.7176 285.542 45.958C285.664 46.0585 285.791 46.1323 285.913 46.2042C286.117 46.3243 286.313 46.4392 286.469 46.6651C286.523 46.743 286.57 46.8203 286.618 46.8959C286.76 47.1256 286.892 47.339 287.146 47.5035C287.262 47.5786 287.396 47.6402 287.53 47.702C287.917 47.8799 288.305 48.0588 288.269 48.5645C288.346 48.5042 288.423 48.4439 288.501 48.3835C288.68 48.9492 288.927 49.497 289.19 50.0289C289.313 50.2781 289.377 50.4105 289.371 50.6879C289.369 50.7477 289.357 50.8027 289.346 50.8558C289.322 50.9652 289.3 51.0666 289.375 51.1856C289.471 51.3395 289.653 51.3983 289.836 51.4568C289.988 51.5059 290.14 51.5546 290.238 51.6591C290.344 51.7721 290.347 51.9045 290.348 52.0342C290.35 52.174 290.353 52.3106 290.485 52.4166C290.378 52.4491 290.079 52.6853 290.192 52.8289C290.289 52.9535 290.332 52.8997 290.375 52.8451C290.404 52.8093 290.433 52.7731 290.478 52.7866C290.618 52.8286 290.666 52.9404 290.713 53.048C290.753 53.14 290.791 53.229 290.885 53.2687C290.927 53.2868 290.923 53.0911 290.921 53.0452C291.529 54.2221 292.191 55.3708 292.854 56.5185C293.716 58.0129 294.577 59.5067 295.319 61.0622C297.651 65.9584 300.424 70.7254 303.49 75.2162C303.731 75.5683 303.98 75.9203 304.229 76.2724C304.728 76.9798 305.23 77.6899 305.676 78.4175C306.1 79.108 306.59 79.7489 307.08 80.3904C307.367 80.7664 307.655 81.143 307.93 81.5299C308.294 82.0428 308.643 82.566 308.993 83.0886ZM290.92 53.0441C290.92 53.0317 290.92 53.0339 290.921 53.0452C290.921 53.0449 290.92 53.0445 290.92 53.0441ZM241.287 49.113C241.28 49.203 241.272 49.2951 241.303 49.3997C241.335 49.5063 241.426 49.5866 241.516 49.666C241.58 49.7229 241.644 49.7794 241.685 49.8448C242.019 49.3628 242.007 48.33 241.804 47.8144C241.707 47.5709 241.526 47.2539 241.382 47.04C241.359 47.0067 241.322 46.9703 241.287 46.935C241.247 46.8962 241.209 46.8589 241.194 46.8286C241.169 46.7802 241.158 46.7143 241.146 46.6476C241.134 46.5768 241.122 46.5051 241.093 46.4526C240.931 46.1574 240.577 46.0845 240.266 46.1195C240.232 46.1232 240.198 46.1269 240.164 46.1305C239.879 46.1612 239.567 46.1947 239.312 46.3163C239.233 46.3541 239.166 46.4005 239.102 46.4448C238.951 46.548 238.817 46.6404 238.588 46.5886C238.67 46.7279 238.607 46.83 238.541 46.9365C238.502 46.9981 238.463 47.0613 238.451 47.1339C238.408 47.3886 238.492 47.6169 238.663 47.8101C238.98 48.1683 239.438 48.1998 239.884 48.2304C239.936 48.234 239.989 48.2375 240.04 48.2417C240.457 48.2746 240.97 48.3424 241.215 48.7258C241.306 48.8691 241.297 48.9891 241.287 49.113ZM243.195 47.9781C243.398 48.3196 243.855 49.2311 243.82 49.6581V50.7479C243.783 51.1285 243.128 51.779 242.79 52.1148C242.752 52.1528 242.718 52.1867 242.689 52.2158C241.985 52.9275 241.22 53.0185 240.176 52.9277C239.292 52.8508 238.147 52.5614 237.549 51.8715C236.975 51.2095 236.983 50.1835 237.068 49.3683C237.186 48.2298 237.695 47.1926 238.373 46.2719C238.77 45.7327 239.856 44.4771 240.685 44.7518C240.808 44.7923 240.901 44.8998 240.985 44.9958C241 45.0135 241.015 45.0308 241.03 45.0471C241.098 45.1335 241.165 45.2201 241.232 45.3073C241.273 45.4218 241.347 45.4555 241.454 45.4086C241.552 45.5409 241.662 45.6623 241.773 45.7835C241.993 46.0248 242.212 46.2653 242.323 46.5885C242.429 46.8959 242.648 47.1972 242.861 47.4898C242.982 47.6556 243.1 47.8185 243.195 47.9781Z" fill="#EBE2FF"/>
<path fill-rule="evenodd" clip-rule="evenodd" d="M279.978 110.757C280.582 110.525 281.326 110.634 281.959 110.645C282.753 110.659 283.549 110.718 284.341 110.779C285.862 110.896 287.376 110.847 288.898 110.986C289.653 111.056 290.41 111.12 291.166 111.183C291.828 111.238 292.597 111.41 293.259 111.287C293.531 111.235 294.268 110.983 294.132 110.591C294.026 110.288 293.197 110.101 292.927 110.015C292.291 109.812 291.635 109.667 290.993 109.486C290.663 109.393 290.334 109.293 289.987 109.325C289.692 109.353 289.381 109.569 289.082 109.544C288.64 109.507 288.413 108.962 288.089 108.722C287.573 108.339 287.19 108.544 286.794 108.965C286.502 109.277 286.223 109.749 285.743 109.777C285.133 109.812 285.014 109.298 285.283 108.862C285.532 108.461 286.207 108.049 286.244 107.549C286.266 107.232 285.751 106.386 285.454 106.266C284.956 106.063 284.251 106.599 283.8 106.764C283.012 107.051 282.209 107.305 281.411 107.564C280.866 107.742 280.057 107.758 279.954 108.385C279.825 109.17 279.982 109.968 279.978 110.757ZM248.768 98.6803C248.927 98.3354 249.094 98.1392 248.777 97.8193C248.6 97.6399 248.349 97.5522 248.175 97.3664C247.913 97.0873 247.502 96.3243 248.064 96.132C248.601 95.9483 249.053 96.6824 249.485 96.8437C250.034 97.0481 250.374 96.7053 250.452 96.1908C250.554 95.5292 250.442 94.8381 250.523 94.1689C250.601 93.5127 250.835 92.9677 251.014 92.3393C251.136 91.9132 251.284 91.4842 250.733 91.3894C250.228 91.3028 249.642 91.5093 249.129 91.5366C248.33 91.5796 247.521 91.6194 246.729 91.7371C245.844 91.8685 245.86 92.7568 245.638 93.4833C245.099 95.2442 244.377 96.9718 244.041 98.7872C243.896 99.5703 244.28 100.106 244.727 100.722C245.288 101.493 245.87 102.261 246.505 102.975C246.928 103.452 247.406 103.896 248.023 104.115C248.722 104.363 248.988 104.088 248.827 103.411C248.615 102.518 248.293 101.656 248.331 100.726C248.345 100.387 248.445 100.024 248.197 99.7404C248.024 99.5436 247.729 99.4771 247.504 99.3578C247.133 99.1605 246.558 98.5256 247.281 98.3888C247.772 98.2961 248.293 98.6204 248.768 98.6803ZM265.462 63.7059C265.903 64.1893 266.382 64.652 266.8 65.1545C267.04 65.4428 267.21 65.7889 267.467 66.0619C268.031 66.6603 268.593 65.9976 269.091 65.6101C271.055 64.0863 272.902 62.435 274.772 60.8044C275.663 60.0272 276.611 59.3105 277.488 58.5192C278.376 57.717 279.115 56.778 279.948 55.9234C280.347 55.513 280.825 55.1059 281.072 54.5822C281.283 54.1349 281.329 53.6486 281.569 53.2065C281.984 52.4411 282.746 51.5524 282.571 50.6266C282.057 51.1559 281.201 53.0527 280.303 52.1631C279.663 51.5283 280.317 50.5897 280.289 49.8495C279.68 50.1028 279.838 51.1301 279.19 51.3118C278.84 51.4102 278.54 51.0985 278.376 50.8253C278.094 50.3529 278.197 49.8584 278.326 49.3573C278.413 49.0158 278.972 47.8894 278.419 47.7505C277.941 47.6301 277.54 48.4943 277.381 48.8006C277.091 49.3621 276.865 49.9429 276.546 50.4923C275.996 51.4396 275.362 52.3446 274.757 53.2593C273.513 55.143 272.093 56.9109 270.633 58.6375C269.073 60.4817 267.385 62.2208 265.462 63.7059ZM279.29 69.6976C279.227 71.3565 277.775 72.6149 276.519 73.5376C274.913 74.717 273.432 76.0571 271.517 76.728C270.78 76.9863 269.859 76.9117 269.564 77.7264C269.449 78.0452 269.554 78.1624 269.679 78.4829C269.874 78.9843 269.992 79.5287 270.085 80.0563C270.401 81.8531 270.093 83.6821 268.994 85.1776C268.41 85.9727 267.663 86.6485 266.891 87.2649C266.121 87.8797 265.392 88.5969 264.543 89.1053C262.733 90.1899 260.721 90.8128 258.633 91.1126C257.547 91.2684 256.456 91.4074 255.359 91.4624C254.791 91.4908 254.221 91.4962 253.652 91.4717C253.398 91.4603 252.452 91.2494 252.269 91.3927C252.127 91.5028 252.064 92.1693 252.036 92.3535C251.976 92.7426 251.928 93.1258 251.847 93.5116C251.682 94.2855 251.461 95.1613 251.703 95.9418C251.773 96.1679 251.83 96.3516 252.043 96.4273C252.178 96.4758 252.417 96.3908 252.554 96.3772C252.862 96.3461 253.154 96.3341 253.464 96.3663C254.484 96.472 255.484 96.7276 256.514 96.6584C258.71 96.5096 260.907 96.3581 263.083 96.0208C264.141 95.8567 265.157 95.5461 266.197 95.3063C267.189 95.0779 268.181 94.8469 269.106 94.4174C270.92 93.5759 272.597 92.4631 274.094 91.1594C275.693 89.7675 276.751 88.1178 277.751 86.2768C278.63 84.6593 279.37 83.0221 279.332 81.1577C279.307 79.9778 279.135 78.5156 279.83 77.4752C280.147 76.9999 280.787 76.5591 281.384 76.8108C282.466 77.267 281.444 78.1706 281.031 78.6655C280.436 79.3783 280.516 80.4639 280.455 81.3359C280.381 82.3649 280.146 83.2674 279.916 84.2625C279.692 85.2364 280.145 86.3918 280.19 87.3854C280.239 88.4628 280.206 89.5413 280.194 90.6193C280.17 92.7628 280.271 94.9008 280.264 97.0443C280.26 98.1561 280.289 99.2728 280.217 100.383C280.152 101.396 279.94 102.364 279.756 103.357C279.574 104.333 279.31 105.501 279.371 106.493C281.852 105.566 284.266 104.47 286.785 103.643C285.999 102.97 285.964 102.02 285.901 101.071C285.818 99.8199 285.608 98.5795 285.516 97.3288C285.336 94.8583 285.386 92.2598 285.601 89.792C285.831 87.1428 286.238 84.5023 286.321 81.8417C286.362 80.5598 286.261 79.2753 286.048 78.0104C285.869 76.9449 285.714 75.6042 285.148 74.6603C284.607 73.7583 283.613 73.1855 282.784 72.5708C281.571 71.6721 280.447 70.6622 279.29 69.6976ZM279.44 35.0458C279.751 35.4581 280.102 35.8387 280.473 36.1989C280.856 36.5706 281.02 36.4885 281.478 36.2952C282.389 35.9105 282.372 35.4657 281.863 34.6944C280.683 32.9056 280.235 30.7754 278.986 29.0231C277.756 27.2967 275.966 25.9018 274.087 24.9063C272.07 23.8381 269.885 23.4981 267.612 23.53C266.451 23.5463 265.282 23.6251 264.128 23.7529C263.005 23.8771 262.006 24.2389 260.919 24.512C260.372 24.6495 259.808 24.7636 259.276 24.9525C258.809 25.1182 258.389 25.3741 257.918 25.5289C256.886 25.8676 255.847 26.2461 254.915 26.7999C254.005 27.3416 253.184 27.9193 252.357 28.5842C251.501 29.2728 250.757 30.0732 249.831 30.6778C248.987 31.2284 248.317 31.97 247.552 32.6152C246.754 33.2893 246.017 34.1153 245.418 34.9671C244.832 35.8 244.609 36.8777 244.255 37.817C243.843 38.9103 243.434 40.079 243.279 41.2381C242.989 43.3981 243.639 45.9226 244.464 47.9215C245.281 49.8985 246.604 51.548 248.183 52.9954C248.952 53.7013 249.792 54.3419 250.733 54.8138C251.538 55.2176 252.587 55.9436 253.464 55.4367C253.818 55.2313 254.106 54.992 254.516 54.8999C254.965 54.7985 255.404 54.84 255.765 54.5173C256.073 54.2431 256.22 53.9121 256.624 53.7464C257.103 53.5501 257.669 53.5143 258.182 53.516C259.333 53.5197 260.485 53.8027 261.584 54.1164C262.591 54.404 263.434 54.8372 264.503 54.5746C265.298 54.3796 266.573 53.8604 266.744 52.9656C266.898 52.1659 266.307 51.132 266.009 50.4163C265.598 49.4274 265.225 48.4544 264.967 47.4146C264.762 46.5907 264.44 45.2727 265.019 44.5196C265.586 43.7797 266.9 43.7887 267.716 43.9747C268.251 44.0967 268.742 44.3423 269.278 44.4661C269.822 44.5923 270.386 44.6556 270.942 44.7174C272.869 44.9315 275.61 44.4476 275.508 42.0299C275.417 39.8751 274.207 37.7151 274.916 35.5577C275.204 34.6783 275.794 33.6613 276.776 33.4292C277.554 33.2451 278.606 33.4381 279.293 33.838C279.845 34.159 280.391 34.8312 279.44 35.0458ZM240.746 44.6704C238.804 45.0426 237.519 47.0528 237.163 48.8355C237.002 49.6433 236.945 50.6053 237.257 51.3869C237.616 52.288 238.633 52.664 239.53 52.853C240.555 53.0691 241.463 52.9846 242.276 52.2867C242.633 51.9798 242.936 51.6223 243.193 51.2317C243.455 50.8322 243.821 50.5412 243.556 50.0947C242.902 48.9885 242.344 47.9018 241.913 46.6847C241.72 46.1416 241.549 45.6111 241.422 45.0518C241.32 44.6077 241.271 44.3366 240.746 44.6704ZM257.757 56.7376C257.381 57.093 256.949 57.3764 256.464 57.5671C255.932 57.7769 255.77 57.6761 255.797 58.2805C255.826 58.9481 255.831 59.4822 255.521 60.103C255.376 60.394 254.84 60.7864 254.942 61.1134C255.087 61.5826 256.575 62.0573 257.009 62.2214C258.047 62.6143 259.258 62.6219 260.239 62.0671C261.377 61.4224 261.478 60.2539 261.049 59.1231C261.004 59.0021 260.837 58.7983 260.878 58.6669C260.953 58.4249 261.262 58.4598 261.44 58.5525C261.826 58.7525 261.986 59.3612 262.069 59.7416C262.291 60.7564 261.884 61.8557 261.11 62.5554C260.717 62.9108 260.225 63.1484 259.723 63.3195C259.439 63.4165 259.14 63.4934 258.839 63.5228C258.596 63.5468 258.29 63.4716 258.058 63.5397C257.649 63.6596 257.631 64.1545 257.528 64.5163C257.346 65.1632 257.27 65.8636 257.246 66.5334C257.207 67.6157 257.338 68.9951 257.972 69.9129C259.452 72.0541 262.314 72.7975 264.548 73.8989C265.736 74.4848 266.837 75.2211 267.895 76.0075C267.999 76.0855 268.155 76.2375 268.281 76.2985C268.704 76.5029 268.334 76.4288 268.606 76.2931C268.814 76.189 268.993 75.9628 269.209 75.8451C269.706 75.5732 270.265 75.4266 270.771 75.1699C271.946 74.5726 272.987 73.8319 274.03 73.0411C275.1 72.2307 276.183 71.4906 277.158 70.5685C277.57 70.1794 278.033 69.8589 278.45 69.4867C278.871 69.1117 278.332 68.9558 277.976 68.6801C276.765 67.7405 275.569 66.7715 274.275 65.9409C273.844 65.6641 273.463 65.2908 273.013 65.0455C272.543 64.7899 272.263 65.0188 271.894 65.3442C271.489 65.6995 271.103 66.0478 270.652 66.3519C270.057 66.7535 269.366 66.947 268.768 67.329C269.151 67.7236 270.088 67.856 270.224 68.4539C270.362 69.0594 269.443 69.5324 269.013 69.7663C268.255 70.1794 267.419 70.4306 266.573 70.6094C265.87 70.7587 264.828 70.5341 264.264 71.0552C264.104 70.7216 263.953 70.5472 264.218 70.2284C264.482 69.9096 264.953 69.8545 265.325 69.7319C266.332 69.4011 267.323 68.9597 268.297 68.546C268.168 68.249 267.845 68.0457 267.599 67.8522C267.247 67.5759 266.951 67.2702 266.665 66.9263C266.119 66.2712 265.629 65.5725 265.109 64.8978C264.884 64.6052 264.678 64.313 264.266 64.4755C263.902 64.6182 263.547 64.9888 263.198 65.1812C262.408 65.6156 261.716 66.0325 260.846 66.3088C260.496 66.4205 259.06 66.7377 259.442 65.8761C259.555 65.6205 259.933 65.5153 260.167 65.4036C260.597 65.197 261.026 64.9867 261.441 64.7512C262.293 64.2667 263.044 63.6411 263.841 63.0781C264.72 62.4568 265.615 61.8535 266.441 61.163C265.619 60.6289 264.708 60.2376 263.858 59.7493C263 59.255 262.134 58.8086 261.246 58.3699C260.539 58.0205 259.821 57.6478 259.176 57.1965C258.92 57.0167 258.038 56.2706 257.757 56.7376ZM283.586 39.3606C283.478 39.3874 283.371 39.4176 283.265 39.4515C283.985 40.5325 283.19 41.8709 283.415 43.0407C284.08 42.6547 284.167 41.1531 285.176 41.4307C286.264 41.7297 285.723 43.0437 286.052 43.7952C286.565 43.3543 287.165 43.7664 287.377 44.2895C287.607 44.8564 287.288 45.3797 287.396 45.9407C287.506 46.5212 287.837 46.1402 288.02 45.7979C288.253 45.3615 288.457 44.7716 288.371 44.2725C288.267 43.6653 287.851 43.1009 287.594 42.5495C287.338 42.0015 287.097 41.4424 286.727 40.9563C286.027 40.0358 284.81 39.2088 283.586 39.3606ZM290.55 52.3249C290.079 51.1726 289.384 50.1176 288.939 48.9562C288.809 48.6166 288.737 48.0753 288.393 47.8661C288.167 47.7286 287.867 47.8111 287.617 47.7372C287.369 47.6635 287.107 47.4879 286.929 47.3067C286.603 46.9753 286.498 46.5204 286.113 46.2317C285.617 45.8591 285.234 45.7163 284.998 45.0938C284.813 44.6049 284.812 44.5332 284.255 44.6423C283.648 44.7614 283.154 44.6156 282.735 44.1493C282.024 43.3599 281.946 42.2477 282.294 41.2947C282.457 40.8492 282.741 40.3307 282.505 39.8641C282.286 39.4306 281.755 39.1195 281.418 38.774C280.567 37.9008 279.901 36.8789 279.103 35.9628C278.912 35.7436 278.717 35.5249 278.569 35.2736C278.476 35.114 278.421 34.8395 278.204 34.7943C277.831 34.7165 277.31 35.35 277.122 35.5808C275.748 37.2693 276.731 39.5691 276.898 41.4726C276.984 42.442 277.175 43.6042 276.737 44.517C276.325 45.3771 275.28 45.8064 274.401 46.0459C273.214 46.3689 271.939 46.3547 270.731 46.1585C270.098 46.0559 269.491 45.8804 268.893 45.6582C268.279 45.4309 267.642 45.0398 267.018 45.4524C266.212 45.9851 266.461 47.0537 266.638 47.8325C266.927 49.1049 267.432 50.2917 267.879 51.5139C268.254 52.5405 268.558 53.8284 267.769 54.7468C266.981 55.6645 265.675 56.2384 264.459 56.191C261.938 56.0924 259.637 54.2467 257.061 55.0018C257.545 55.198 258.057 55.3136 258.53 55.5386C259.1 55.8101 259.629 56.1708 260.183 56.4728C261.247 57.0521 262.314 57.6232 263.354 58.244C264.294 58.8053 265.182 59.4195 266.079 60.0414C267.196 60.8158 267.785 59.958 268.501 59.1209C270.066 57.2946 271.555 55.361 272.977 53.4254C274.214 51.7428 275.36 49.986 276.255 48.1063C276.574 47.4337 277.113 46.2927 278.049 46.4254C278.88 46.5431 279.364 47.5275 279.794 48.1299C280.093 47.919 280.35 47.6371 280.755 47.7531C281.091 47.8493 281.323 48.1874 281.471 48.4757C281.573 48.674 281.643 49.3421 281.814 49.4426C281.935 49.5141 282.399 49.3604 282.606 49.4073C283.314 49.5681 283.541 50.4619 283.534 51.0824C283.524 51.9376 283.16 52.7934 282.862 53.5853C282.193 55.3604 281.048 56.748 279.785 58.1508C278.504 59.5743 277.163 60.8649 275.718 62.1282C275.361 62.4399 275.008 62.7549 274.66 63.0765C274.375 63.3397 273.924 63.6138 273.7 63.9234C273.287 64.4962 274.392 64.7561 274.803 64.9659C276.572 65.8679 278.202 67.056 279.76 68.267C281.367 69.5161 282.982 70.7701 284.525 72.0939C286.035 73.3883 287.462 74.7687 289.052 75.9726C290.686 77.2098 292.398 78.3515 294.077 79.5287C295.757 80.707 297.393 81.9469 299.071 83.1262C300.711 84.2794 302.472 85.2675 304.197 86.291C305.1 86.8267 306.007 87.3543 306.914 87.8829C307.647 88.3108 308.443 88.9751 309.312 89.029C310.095 89.0776 310.838 89.3604 311.306 88.5244C311.662 87.89 311.514 87.0164 311.203 86.4C310.823 85.6474 310.23 84.9552 309.752 84.2587C309.203 83.4581 308.694 82.6341 308.153 81.8291C307.633 81.0569 307.056 80.3446 306.476 79.617C305.889 78.8796 305.443 78.0485 304.919 77.2675C303.8 75.5982 302.65 73.9594 301.589 72.2525C299.155 68.3384 296.977 64.2978 294.894 60.1962C294.71 59.8348 290.43 52.3891 290.55 52.3249ZM287.124 76.389C288.431 80.8274 287.677 85.3405 287.409 89.8558C287.274 92.1388 287.253 94.4359 287.193 96.7222C287.163 97.8334 287.166 98.9452 287.213 100.056C287.236 100.615 287.278 101.172 287.318 101.73C287.355 102.223 287.22 102.768 287.283 103.244C287.364 103.853 288.596 103.973 288.218 104.755C287.964 105.28 287.075 105.36 286.598 105.582C286.81 105.822 287.141 106.183 287.495 106.206C287.813 106.226 288.059 105.955 288.344 105.852C288.598 105.761 288.946 105.673 289.106 105.964C289.274 106.267 288.922 106.605 288.784 106.841C289.255 106.93 289.582 106.654 290.007 106.679C290.455 106.706 290.475 107.139 290.769 107.389C291.106 107.675 291.693 107.737 292.108 107.857C292.59 107.997 293.075 108.171 293.515 108.414C294.301 108.848 294.975 109.67 295.265 110.51C295.566 111.381 295.096 112.135 294.397 112.669C294.136 112.868 293.762 113.1 293.416 112.992C293.021 112.869 292.959 112.554 292.478 112.577C292.045 112.598 291.635 112.768 291.2 112.79C290.561 112.821 289.922 112.707 289.282 112.731C286.7 112.829 284.118 112.85 281.54 112.607C280.874 112.543 280.22 112.492 279.563 112.471C279.052 112.455 279.009 112.081 278.922 111.611C278.713 110.476 279.176 109.358 278.946 108.255C278.962 108.328 278.6 108.139 278.556 108.103C278.29 107.883 278.201 107.571 278.122 107.247C277.912 106.384 277.914 105.504 277.979 104.624C278.127 102.626 278.506 100.646 278.475 98.6367C278.459 97.6241 278.49 96.6137 278.491 95.6017C278.491 94.6719 278.577 93.7541 278.585 92.8309C278.602 90.8068 278.819 88.8051 278.88 86.7831C278.451 87.193 278.223 87.7641 277.95 88.2759C277.615 88.9048 277.241 89.5272 276.832 90.1125C275.986 91.3213 274.852 92.3045 273.677 93.1961C271.434 94.8981 268.998 96.2159 266.25 96.9375C263.276 97.7184 260.268 98.246 257.201 98.5425C256.492 98.6111 255.774 98.6482 255.063 98.5801C254.598 98.5359 253.841 98.1664 253.399 98.3539C252.896 98.567 252.795 99.0793 252.135 98.9354C251.884 98.8804 251.702 98.7158 251.482 98.6046C251.157 98.4405 251.144 98.5534 250.835 98.5746C250.49 98.5975 250.284 98.4286 249.983 98.7011C249.728 98.9327 249.753 99.0951 249.985 99.3114C250.313 99.6161 250.838 99.6673 251.166 99.9856C251.485 100.295 251.428 100.675 250.935 100.68C250.439 100.684 249.998 100.338 249.513 100.292C249.617 101.701 250.048 103.274 249.57 104.655C249.348 105.295 248.871 105.709 248.161 105.704C246.973 105.697 245.93 104.623 245.215 103.787C244.819 103.325 244.498 102.805 244.116 102.332C243.726 101.847 243.307 101.361 243.083 100.775C242.845 100.152 242.915 99.5267 243.048 98.8874C243.212 98.0956 243.365 97.2961 243.564 96.5118C243.95 94.9913 244.726 93.6037 245.118 92.0876C245.266 91.5142 245.264 90.8412 245.638 90.3496C246.034 89.8286 246.65 89.7953 247.261 89.8286C248.018 89.87 248.773 89.9517 249.525 90.0362C250.001 90.0891 251.042 90.4253 251.428 90.1387C251.562 90.04 251.562 89.7811 251.717 89.6923C251.868 89.6062 252.11 89.6678 252.274 89.6798C253.086 89.7392 253.905 89.8111 254.719 89.834C257.744 89.9212 260.936 89.458 263.637 88.078C264.891 87.4377 265.846 86.43 266.853 85.4773C267.843 84.5416 268.707 83.5333 268.974 82.1747C269.217 80.9337 269.125 79.4492 268.72 78.2485C268.327 77.0784 266.93 76.3694 265.913 75.7928C264.502 74.9927 263.005 74.3295 261.486 73.7551C261.245 73.664 260.951 73.548 260.686 73.5948C260.361 73.6521 260.143 73.9284 259.847 74.0504C259.495 74.196 259.064 74.1965 258.693 74.2815C258.333 74.3638 257.982 74.4766 257.616 74.5311C256.461 74.7017 254.839 74.5655 253.885 73.8417C252.326 72.6585 253.268 70.9838 253.769 69.5439C253.239 69.5259 252.798 69.6474 252.293 69.4251C251.789 69.2033 251.396 68.8109 251.166 68.3193C250.748 67.4244 250.99 66.396 251.113 65.463C251.168 65.0412 251.232 64.6226 251.396 64.2264C251.523 63.9196 251.732 63.6269 251.809 63.3026C251.893 62.9451 251.783 62.9244 251.48 62.7533C251.012 62.49 250.675 62.1865 250.388 61.7243C249.827 60.8185 249.813 59.8294 250.273 58.8762C250.459 58.4909 250.903 57.9606 250.853 57.5099C250.809 57.1224 250.362 56.8205 250.099 56.5665C249.287 55.7834 248.423 55.0596 247.522 54.376C247.101 54.0564 246.638 53.7664 246.255 53.4035C245.975 53.1376 245.69 52.5591 245.306 52.4193C244.923 52.2793 244.667 52.7002 244.4 52.9257C243.983 53.2773 243.584 53.6819 243.129 53.9867C242.315 54.5331 241.305 54.4311 240.385 54.2565C239.424 54.074 238.533 53.7527 237.714 53.2226C237.388 53.012 237.008 52.5842 236.607 52.55C236.179 52.5134 235.714 52.9313 235.408 53.1821C234.61 53.8371 234.37 54.8541 233.905 55.7343C233.385 56.7169 233.164 57.7366 233.306 58.8413C233.433 59.8348 233.823 60.5858 234.403 61.3886C234.522 61.5543 234.803 61.8682 234.598 62.0519C234.347 62.2764 233.833 61.8257 233.664 61.6802C231.99 60.2343 231.038 58.0554 231.581 55.8744C231.873 54.7032 232.444 53.6194 233.107 52.6116C233.389 52.1831 233.664 51.7544 234.154 51.5358C234.712 51.287 235.344 51.3167 235.94 51.257C235.528 49.2755 235.399 47.1195 236.665 45.3926C237.638 44.0674 239.628 42.9079 241.206 43.9825C241.141 42.5216 240.929 41.1345 241.325 39.6962C241.503 39.0517 241.746 38.4244 242.044 37.8246C242.337 37.2367 242.741 36.7382 242.978 36.1262C243.91 33.7125 245.7 31.5564 247.612 29.824C249.545 28.0729 251.441 25.9366 253.875 24.841C256.415 23.6979 259.001 22.6707 261.755 22.1513C264.612 21.6122 267.55 21.5015 270.429 22.0119C272.953 22.4594 275.289 23.9641 277.198 25.5861C279.378 27.4371 280.784 29.6685 281.897 32.2533C282.141 32.821 282.378 33.3937 282.677 33.9363C283.01 34.5384 283.437 35.0983 283.682 35.7444C283.9 36.3205 283.937 36.9455 283.548 37.4603C283.275 37.8223 282.715 37.904 282.476 38.235C282.355 38.402 282.367 38.5608 282.632 38.6106C282.906 38.6619 283.036 38.3621 283.233 38.2419C283.723 37.9424 284.414 38.1975 284.91 38.3676C286.084 38.7708 287.004 39.4948 287.706 40.4986C288.379 41.4592 288.825 42.5504 289.27 43.6246C289.55 44.3023 289.817 44.9756 289.971 45.6936C290.029 45.9638 290.11 46.696 289.675 46.3751C289.498 46.245 289.247 47.2322 289.294 47.3894C289.46 47.9361 290.049 48.4487 290.396 48.8913C291.212 49.9319 291.758 51.0977 292.334 52.2745C293.58 54.8231 294.968 57.2973 296.302 59.8016C299.018 64.9016 301.986 69.806 305.099 74.6805C306.641 77.0959 308.231 79.4699 309.88 81.8166C310.608 82.8521 311.338 83.8881 312.049 84.934C312.654 85.8228 313.251 86.8126 313.096 87.9222C312.953 88.938 312.338 89.7539 311.344 90.0863C310.812 90.264 310.18 90.4695 309.609 90.415C308.986 90.355 308.436 89.9457 307.917 89.6384C305.529 88.2252 303.142 86.8137 300.752 85.4038C298.081 83.8265 295.637 81.9539 293.088 80.2002C291.791 79.308 290.453 78.5036 289.102 77.6965C288.798 77.5144 287.417 76.2113 287.124 76.389Z" fill="black"/>
<path fill-rule="evenodd" clip-rule="evenodd" d="M263.99 80.8792C263.337 81.8226 262.651 82.7093 261.732 83.4254C260.764 84.1792 259.752 84.7901 258.672 85.3754C256.766 86.4076 254.212 87.321 251.998 86.8534C251.369 86.7205 250.362 86.1798 250.909 85.4076C251.184 85.0195 251.775 85.1209 252.192 85.1422C252.865 85.1765 253.454 85.2141 254.098 84.9923C255.282 84.5835 256.476 84.1982 257.632 83.717C258.752 83.251 259.735 82.6123 260.763 81.9845C261.727 81.3959 262.462 80.6912 263.309 79.9794C263.541 79.7843 263.94 79.4437 264.159 79.8225C264.318 80.0966 264.076 80.6111 263.99 80.8792Z" fill="black"/>
<path fill-rule="evenodd" clip-rule="evenodd" d="M290.361 35.5622C290.287 35.9709 290.09 36.7839 289.505 36.6729C288.758 36.5312 289.125 35.0953 289.114 34.6078C289.065 32.4838 288.359 30.4414 287.315 28.5998C286.795 27.6843 286.156 26.8376 285.684 25.8959C285.592 25.7129 285.314 25.2591 285.516 25.0606C285.759 24.8222 286.224 25.1819 286.396 25.352C287.056 26.0099 287.584 26.9962 288.094 27.7703C288.775 28.8038 289.378 29.8953 289.81 31.0541C290.332 32.454 290.625 34.0775 290.361 35.5622Z" fill="black"/>
<path fill-rule="evenodd" clip-rule="evenodd" d="M291.758 28.7698C291.828 29.1381 292.169 30.1403 291.56 30.2292C290.87 30.33 290.655 28.66 290.464 28.2177C290.363 27.9844 289.825 26.9573 290.105 26.7337C290.689 26.2682 291.619 28.4734 291.758 28.7698Z" fill="black"/>
<path fill-rule="evenodd" clip-rule="evenodd" d="M259.274 78.4725C258.619 79.0584 257.858 79.024 257.031 78.9685C256.611 78.9401 255.639 78.696 256.315 78.1848C256.668 77.9172 259.437 77.7335 259.274 78.4725Z" fill="black"/>
<path fill-rule="evenodd" clip-rule="evenodd" d="M310.322 89.204C310.368 89.113 310.762 88.6765 310.846 88.853C310.926 89.0193 310.426 89.1991 310.322 89.204Z" fill="black"/>
<path fill-rule="evenodd" clip-rule="evenodd" d="M258.215 56.803C258.134 56.966 257.798 56.8238 257.682 56.8483C257.839 56.5175 258.027 56.5883 258.215 56.803Z" fill="black"/>
<path fill-rule="evenodd" clip-rule="evenodd" d="M283.536 39.4788C283.501 39.6096 283.466 39.7405 283.431 39.8714C283.377 39.7733 283.323 39.6753 283.269 39.5772C283.358 39.5445 283.447 39.5116 283.536 39.4788Z" fill="black"/>
<path fill-rule="evenodd" clip-rule="evenodd" d="M284.179 64.2019C285.02 64.2852 285.863 64.3272 286.708 64.3528C287.42 64.3741 287.712 64.2422 287.803 63.5146C287.911 62.653 287.948 61.7826 288.056 60.9204C288.105 60.5286 288.492 59.746 288.026 59.5362C287.635 59.3601 287.025 59.6119 286.617 59.6413C286.161 59.6746 285.472 59.5383 285.07 59.8032C284.639 60.0871 284.733 61.0807 284.659 61.5472C284.519 62.4355 284.35 63.3184 284.179 64.2019ZM283.778 60.0147C283.016 60.0713 282.251 60.116 281.491 60.1956C281.153 60.2316 280.469 60.3956 280.184 60.1542C279.514 59.5868 282.015 59.3879 282.299 59.3432C282.777 59.268 283.595 59.3678 283.902 58.9247C284.205 58.4865 284.128 57.7497 284.207 57.2406C284.325 56.4749 284.46 55.7103 284.538 54.9391C284.565 54.6803 284.527 53.8242 284.806 53.697C285.446 53.4047 285.245 56.4172 285.234 56.6433C285.216 57.0319 285.196 57.4227 285.141 57.808C285.11 58.0254 285.001 58.3192 285.069 58.5377C285.261 59.1634 286.358 58.8026 286.858 58.7525C287.418 58.6963 288.283 58.9094 288.468 58.2309C288.702 57.3785 288.668 56.4101 288.754 55.5332C288.778 55.2901 288.84 53.4785 289.295 53.6189C289.804 53.7757 289.605 55.2896 289.601 55.6798C289.595 56.1196 289.597 56.5599 289.567 56.9987C289.54 57.3932 289.426 57.8772 289.51 58.268C289.657 58.953 290.484 58.5884 290.725 59.134C290.953 59.6517 289.709 59.2457 289.477 59.4239C289.13 59.6893 289.213 60.8 289.164 61.1886C289.055 62.0426 288.846 62.9293 288.778 63.7811C288.725 64.4531 289.275 64.3637 289.835 64.3152C290.315 64.2738 290.843 64.1615 291.324 64.2242C291.711 64.2749 292.251 64.6248 291.688 64.8575C290.808 65.2215 289.015 64.4776 288.573 65.5834C288.49 65.7921 288.102 68.2114 287.614 67.0173C287.41 66.5181 287.909 65.7349 287.377 65.3523C287.192 65.2199 286.917 65.2433 286.703 65.2286C286.176 65.1921 285.645 65.1801 285.116 65.1692C284.59 65.1589 284.117 65.0542 283.913 65.621C283.755 66.0625 283.772 66.5568 283.646 67.0086C283.551 67.347 283.239 67.94 282.915 67.3857C282.703 67.0216 282.865 66.3862 282.908 65.9905C282.928 65.7921 283.049 65.3823 282.895 65.2155C282.731 65.0373 282.292 65.1338 282.083 65.1501C281.483 65.1965 280.366 65.4804 279.907 64.9458C279.522 64.4989 280.321 64.4902 280.635 64.4602C280.959 64.4286 281.282 64.4002 281.606 64.3664C281.962 64.3299 282.433 64.379 282.768 64.2694C283.331 64.0852 283.29 63.3342 283.327 62.847C283.4 61.8954 283.618 60.9553 283.778 60.0147Z" fill="black"/>
<path fill-rule="evenodd" clip-rule="evenodd" d="M293.663 62.0475C293.618 62.5969 293.557 63.2133 293.377 63.7354C293.24 64.1299 292.964 64.2498 292.87 63.7474C292.81 63.4285 293.207 61.6339 293.663 62.0475Z" fill="black"/>
<path fill-rule="evenodd" clip-rule="evenodd" d="M258.138 58.4293C257.914 58.2712 256.852 57.439 257.62 57.4063C258.012 57.3894 258.857 58.0227 258.881 58.3742C258.887 58.4631 258.694 58.5089 258.704 58.595C258.724 58.7585 258.971 58.8359 259.05 58.9656C259.225 59.2522 259.153 59.8185 258.927 60.091C258.411 60.7123 257.839 59.6604 258.238 59.4539C258.149 59.5002 256.956 58.9045 256.911 58.7699C256.665 58.0331 258.078 58.7274 258.138 58.4293Z" fill="black"/>
<path fill-rule="evenodd" clip-rule="evenodd" d="M260.011 61.3303C259.739 61.3385 259.192 61.32 258.987 61.1287C258.608 60.7733 259.348 60.7265 259.565 60.5608C259.868 60.3292 259.928 59.5749 260.405 60.0414C260.877 60.5046 260.461 61.0426 260.011 61.3303Z" fill="black"/>
<path fill-rule="evenodd" clip-rule="evenodd" d="M256.083 59.3721C256.575 59.3013 257.672 60.3444 257.139 60.4136C256.787 60.4599 256.159 59.6511 256.083 59.3721Z" fill="black"/>
<path fill-rule="evenodd" clip-rule="evenodd" d="M319.302 87.2583C319.317 86.1874 319.348 85.1171 319.39 84.0472C321.25 83.8827 323.111 83.7186 324.971 83.554C325.45 83.5115 325.929 83.4696 326.408 83.427C326.919 83.3818 327.431 83.3366 327.943 83.2913C327.997 83.2864 328.069 83.2853 328.149 83.2843C328.406 83.2799 328.746 83.2744 328.822 83.1475C328.934 82.9627 328.877 82.4755 328.834 82.106C328.816 81.9583 328.801 81.8302 328.8 81.7468C328.793 81.2863 328.785 80.8252 328.778 80.3647C328.77 79.9042 328.763 79.4431 328.755 78.9826C328.701 75.5928 328.647 72.2024 328.593 68.8125C329.038 68.8267 329.484 68.8397 329.929 68.8517C330.218 68.8599 330.507 68.8686 330.796 68.8768C332.447 68.9259 334.103 68.9744 335.753 68.9248C336.725 68.8959 337.646 68.6381 338.564 68.3345C339.052 68.1732 339.535 67.9977 340.014 67.8124C340.058 67.7955 340.127 67.7601 340.206 67.7192C340.4 67.62 340.656 67.4882 340.771 67.51C340.967 67.547 341.257 67.959 341.469 68.261C341.548 68.3721 341.615 68.4681 341.664 68.5258C342.242 69.2049 342.819 69.8834 343.397 70.5625L343.422 70.5919C343.495 70.678 343.578 70.7652 343.663 70.8546C343.85 71.0508 344.046 71.2562 344.161 71.4759C344.248 71.6426 344.296 71.8519 344.342 72.0519C344.364 72.1462 344.386 72.2383 344.41 72.3228C345.363 75.59 346.294 78.878 346.988 82.209C347.137 82.9262 347.279 83.6478 347.362 84.3759C347.368 84.4309 347.376 84.4909 347.384 84.553C347.43 84.8942 347.486 85.3176 347.351 85.6119C347.182 85.9792 346.661 86.1455 346.287 86.2648C346.263 86.2725 346.239 86.2801 346.215 86.2877C345.483 86.5242 344.717 86.6649 343.959 86.7913C342.131 87.0954 340.282 87.2725 338.435 87.4153C338.225 87.4317 338.012 87.4415 337.799 87.4518C337.441 87.4687 337.081 87.4862 336.729 87.5325C336.581 87.5526 336.539 87.5396 336.518 87.5543C336.5 87.5663 336.495 87.5957 336.458 87.6742C336.376 87.8442 336.388 88.1423 336.4 88.3985C336.404 88.5118 336.408 88.617 336.404 88.6993C336.387 89.016 336.371 89.3331 336.355 89.6503C336.338 89.9626 336.322 90.2749 336.306 90.5872C336.216 92.3034 336.126 94.0201 336.037 95.7363C336.007 96.3112 335.977 96.8862 335.947 97.4606C335.886 98.6264 335.825 99.7916 335.764 100.957C335.747 101.278 335.731 101.599 335.714 101.92C335.696 102.259 335.679 102.597 335.661 102.935C335.655 103.05 335.657 103.175 335.659 103.303C335.662 103.571 335.666 103.853 335.601 104.084C335.565 104.21 335.576 104.257 335.558 104.273C335.54 104.289 335.49 104.274 335.326 104.281C334.827 104.305 334.316 104.273 333.809 104.242C333.556 104.226 333.306 104.21 333.058 104.202C332.655 104.187 332.253 104.173 331.851 104.16C331.406 104.144 330.961 104.128 330.516 104.113C330.457 104.111 330.395 104.113 330.336 104.116C330.152 104.123 329.979 104.13 329.906 104.001C329.822 103.855 329.842 103.527 329.859 103.266C329.866 103.158 329.872 103.06 329.869 102.992L329.798 101.057L329.605 95.7444C329.562 94.5798 329.52 93.4157 329.477 92.251C329.432 91.0003 329.386 89.7495 329.341 88.4988C328.4 88.6846 327.458 88.8704 326.518 89.0563L326.514 89.0568C325.121 89.3315 323.729 89.6067 322.336 89.8814C322.164 89.9157 321.983 89.9615 321.798 90.0084C321.296 90.1354 320.762 90.2705 320.28 90.2024C319.625 90.1103 319.354 89.8362 319.318 89.2258C319.282 88.6404 319.291 88.0508 319.299 87.4638C319.301 87.3951 319.302 87.327 319.302 87.2583ZM338.218 76.934L338.11 76.7291L338.062 76.9552L337.072 81.7065L337.05 81.8117L337.159 81.8046L340.547 81.5844L340.675 81.5762L340.616 81.4651L338.218 76.934ZM337.258 81.6346L338.178 77.2141L340.409 81.4296L337.258 81.6346Z" fill="#EBE2FF"/>
<path fill-rule="evenodd" clip-rule="evenodd" d="M366.441 38.4382C366.371 38.9667 366.421 39.5428 365.813 39.6821C365.25 39.8111 364.633 39.7749 364.059 39.8201C363.414 39.871 362.772 39.9404 362.128 40.003C361.317 40.0818 361.433 39.7759 361.255 39.0962C361.093 38.4756 360.835 37.8561 360.619 37.2508C360.519 36.9694 360.401 36.7106 360.264 36.4455C360.141 36.2054 360.2 35.8789 360.066 35.6772C359.612 34.9888 357.397 36.8711 357.192 36.5001C357.566 36.2138 358.215 35.8935 358.33 35.4037C358.465 34.828 358.092 34.6561 357.624 34.8666C356.471 35.3848 355.141 35.7898 353.883 35.9786C354.29 35.7119 357.967 33.61 356.733 32.9864C356.456 32.8459 356.084 33.1105 355.833 33.2105C355.435 33.3694 355.019 33.4759 354.603 33.58C354.166 33.6896 353.726 33.7952 353.286 33.8949C352.977 33.9649 352.427 34.2134 352.126 34.1521C351.82 34.0898 352.362 33.9037 352.45 33.8598C352.836 33.6688 353.216 33.4635 353.593 33.2557C354.263 32.8869 354.881 32.4596 355.39 31.8894C355.774 31.4591 356.408 30.5195 356.141 29.9245C355.986 29.5796 355.646 29.2609 355.447 28.9341C355.214 28.5525 355.026 28.1457 354.824 27.7482C355.163 27.8943 355.542 27.9317 355.888 28.0627C356.234 28.194 356.585 28.3001 356.944 28.3977C357.666 28.5933 358.385 28.6281 359.1 28.7868C359.909 28.9663 360.752 29.1671 361.574 29.2708C362.29 29.361 362.933 29.5533 363.547 29.9362C364.799 30.7185 365.668 31.8422 366.107 33.232C366.365 34.046 366.428 34.8954 366.458 35.7425C366.49 36.6355 366.557 37.5491 366.441 38.4382ZM359.411 38.5039C358.537 39.1295 357.517 39.6184 356.579 40.1505C356.042 40.455 355.493 40.7395 354.945 41.0249C354.557 41.2274 354.084 41.6001 353.656 41.7039C353.386 41.7697 353.406 41.7747 353.235 41.5325C353.071 41.3012 352.928 41.0522 352.774 40.8141C352.492 40.375 352.207 39.9374 351.922 39.4999C351.282 38.5192 350.644 37.5387 349.972 36.5789C349.298 35.6157 348.651 34.6349 347.999 33.6581C347.695 33.2039 347.393 32.7481 347.071 32.3064C346.826 31.9692 346.195 31.4548 346.495 31.0578C346.772 30.689 347.406 30.3826 347.781 30.1034C348.239 29.7626 348.699 29.4252 349.156 29.0826C350.138 28.3462 351.094 27.5777 352.074 26.8403C352.907 28.2728 353.886 29.6158 354.874 30.9477C353.981 31.507 353.078 32.0386 352.137 32.5175C351.442 32.8711 350.378 33.349 349.939 34.0198C349.507 34.6804 349.932 35.4425 350.703 35.4547C351.164 35.4618 351.623 35.342 352.076 35.2736C352.402 35.2241 352.998 34.9933 353.292 35.156C352.763 35.4871 350.844 36.4521 351.878 37.2982C352.618 37.9029 353.868 37.0204 354.667 37.202C354.423 37.6604 354.17 38.3916 354.845 38.6409C355.408 38.8484 356.144 38.4617 356.65 38.2566C357.015 38.1084 357.379 37.9552 357.739 37.7935C358.024 37.6648 358.367 37.4041 358.672 37.3486C359.029 37.2837 359.754 38.2585 359.411 38.5039ZM343.153 72.289C343.653 72.1997 343.91 71.9964 344.068 72.5926C344.209 73.1267 344.349 73.6412 344.53 74.1654C343.749 74.2314 343.06 74.5976 342.49 75.1126C342.084 75.48 341.276 76.3558 341.477 76.9705C341.963 78.4644 344.418 75.1137 344.71 74.7551C345.067 75.2674 345.199 75.9383 345.376 76.5242C345.503 76.9411 345.972 77.7406 345.352 77.842C344.481 77.9842 342.848 78.3025 342.952 79.5118C343.073 80.9397 344.925 80.9315 345.963 80.9959C346.548 81.0318 346.551 81.4923 346.634 82.0074C346.672 82.2379 346.788 82.5491 346.589 82.7175C346.412 82.8674 345.87 82.8717 345.639 82.9202C344.968 83.0614 344.296 83.2058 343.625 83.347C342.862 83.5077 342.46 83.2826 341.747 83.0777C341.483 83.002 341.218 83.0341 341.198 82.7442C341.187 82.566 341.364 82.2913 341.422 82.1153C341.652 81.4193 341.848 80.7026 341.914 79.9718C342.01 78.9096 341.89 77.3171 340.557 77.11C339.923 77.0114 339.801 76.9792 339.515 76.395C339.206 75.7639 338.714 75.1791 338.833 74.4516C338.918 73.9246 338.773 72.9272 339.117 72.4901C339.275 72.2879 339.584 72.1675 339.795 72.0193C340.064 71.8301 340.322 71.6274 340.573 71.4154C340.783 71.2377 341.04 70.8895 341.279 70.7609C341.571 70.6039 341.58 70.7107 341.789 70.9565C342.099 71.3189 342.59 72.3899 343.153 72.289ZM344.567 74.6489C344.394 74.9922 343.993 75.3116 343.738 75.5982C343.481 75.8865 343.238 76.1912 342.951 76.4528C342.636 76.7405 341.517 77.4354 341.763 76.4997C341.955 75.7726 342.674 75.1835 343.306 74.82C343.428 74.7497 344.86 74.0679 344.567 74.6489ZM345.792 78.1117C345.903 78.599 345.963 79.1009 346.057 79.5914C346.106 79.8421 346.375 80.4476 346.265 80.689C346.079 81.0978 344.409 80.6138 344.063 80.4732C343.238 80.138 342.86 79.2786 343.621 78.6665C343.909 78.4349 345.681 77.6251 345.792 78.1117ZM346.887 83.9601C346.98 84.4249 347.252 84.8555 346.802 85.207C346.429 85.4986 345.817 85.6981 345.356 85.8016C344.729 85.9433 344.527 85.5983 344.195 85.1547C343.838 84.6773 343.457 84.2162 343.063 83.7682C344.302 83.4963 345.541 83.2243 346.779 82.9524C346.779 83.2908 346.82 83.6282 346.887 83.9601ZM343.919 86.1172C343.273 86.0845 342.578 86.2752 341.923 86.3253C341.104 86.388 340.289 86.479 339.47 86.533C339.679 85.8763 340.056 85.2904 340.351 84.6702C340.647 84.0473 340.855 83.9802 341.535 83.9323C342.165 83.8876 342.61 83.6745 343.075 84.1993C343.559 84.7454 343.998 85.3384 344.439 85.9166C344.289 86.0158 344.109 86.127 343.919 86.1172ZM339.301 86.2512C339.142 86.3651 338.65 86.0414 338.485 85.9787C338.162 85.8567 338.091 85.8169 337.923 85.5084C337.778 85.2435 337.549 84.9422 337.503 84.6397C337.444 84.2407 337.623 83.7154 337.689 83.3186C337.863 83.7317 338.436 83.7797 338.823 83.8467C339.116 83.8979 339.982 83.8167 340.203 84.0211C340.446 84.2473 339.998 84.8768 339.881 85.1144C339.741 85.3972 339.569 86.0599 339.301 86.2512ZM338.989 86.5788C338.797 86.6093 338.245 86.7962 338.256 86.4523C338.269 86.0599 339.028 86.4834 338.989 86.5788ZM338.016 86.5581C337.981 86.8889 337.256 86.8611 337.239 86.5706C337.211 86.079 338.072 86.03 338.016 86.5581ZM337.187 77.6409C337.002 78.1592 335.872 78.3445 335.439 78.5041C335.043 78.6497 333.86 79.3222 333.451 79.078C334.833 78.1461 336.25 77.2327 337.421 76.0424C337.469 76.3362 337.396 76.582 337.308 76.8604C337.228 77.1111 337.269 77.4114 337.187 77.6409ZM336.843 79.5304C336.644 80.7997 336.449 82.0853 336.18 83.3415C335.667 83.1878 335.244 82.8761 334.705 82.7676C334.213 82.6684 333.705 82.6663 333.21 82.7382C332.153 82.8924 331.211 83.4053 330.289 83.905C330.204 83.0347 330.028 82.1033 330.048 81.2302C330.066 80.5048 331.331 80.2901 331.905 79.9903C332.252 79.8089 332.566 79.5538 332.962 79.4906C333.369 79.4257 333.761 79.4274 334.163 79.3058C335.114 79.0181 336.009 78.5614 336.94 78.2213C337.017 78.6573 336.911 79.1009 336.843 79.5304ZM335.955 84.9013C335.912 85.1896 335.966 85.7046 335.742 85.9248C335.531 86.1319 335.08 86.1384 334.802 86.1945C333.955 86.3657 333.108 86.5384 332.262 86.715C331.883 86.794 331.504 86.8692 331.124 86.9396C330.943 86.9733 330.488 87.1439 330.335 87.0022C330.19 86.8682 330.298 86.4387 330.306 86.2583C330.322 85.8981 330.342 85.5373 330.319 85.177C330.275 84.4865 330.314 84.2217 330.969 83.8647C331.665 83.4848 332.385 83.2249 333.168 83.0843C333.961 82.9415 334.717 83.0194 335.471 83.3181C335.682 83.4015 335.997 83.5039 336.095 83.7263C336.228 84.0287 336 84.595 335.955 84.9013ZM335 96.0355C334.69 96.2262 334.014 96.1941 333.657 96.2328C333.081 96.2949 332.501 96.2595 331.929 96.1723C331.498 96.1063 330.855 96.0159 330.524 95.7189C330.055 95.297 330.597 95.278 330.956 95.3074C332 95.3935 333.057 95.3335 334.1 95.2594C334.303 95.2447 334.849 95.0698 335.044 95.1521C335.295 95.2567 335.218 95.9014 335 96.0355ZM334.409 102.852C332.463 102.666 331.336 101.085 330.631 99.4701C330.252 98.6024 330.388 97.6923 330.351 96.7751C330.344 96.6072 330.237 96.1914 330.413 96.0666C330.578 95.9488 331.245 96.3124 331.425 96.356C332.351 96.5783 333.374 96.5996 334.301 96.3832C334.703 96.29 334.928 96.1156 335.055 96.5064C335.158 96.8208 334.989 97.4007 334.971 97.7304C334.939 98.3005 335.03 102.911 334.409 102.852ZM330.523 102.853C330.516 102.577 330.373 99.7791 330.511 99.7703C330.922 100.639 331.343 101.416 332.09 102.055C332.472 102.382 332.901 102.676 333.378 102.851C333.558 102.917 334.574 102.967 334.623 103.185C334.711 103.567 334.017 103.413 333.811 103.382C333.646 103.357 333.498 103.288 333.336 103.259C333.027 103.204 332.736 103.278 332.426 103.284C331.955 103.294 331.493 103.245 331.022 103.285C330.591 103.322 330.534 103.273 330.523 102.853ZM330.81 90.3049C332.476 89.7768 333.867 90.7769 334.746 92.0859C335.247 92.8326 335.359 93.3547 335.272 94.2387C335.24 94.5548 335.298 94.7689 335.002 94.8981C334.708 95.0256 334.041 94.9313 333.724 94.9455C332.811 94.9875 331.901 95.0431 330.988 94.9902C330.394 94.9559 330.311 94.8572 330.321 94.2921C330.333 93.6119 330.276 92.935 330.236 92.2538C330.194 91.5164 329.936 90.5823 330.81 90.3049ZM330.265 89.325C330.266 88.8252 330.236 88.3129 330.267 87.8137C330.298 87.3189 330.512 87.3434 330.988 87.2595C332.019 87.0763 333.048 86.872 334.065 86.624C334.467 86.5259 334.922 86.3379 335.34 86.3362C335.78 86.3346 335.757 86.5564 335.728 86.9385C335.662 87.7843 335.504 88.6181 335.456 89.4596C335.404 90.3676 335.377 91.2875 335.382 92.1971C335.383 92.5039 335.459 92.7312 335.192 92.444C334.925 92.1562 334.794 91.6979 334.556 91.3742C334.068 90.7125 333.342 90.1795 332.537 89.9555C332.091 89.8313 331.623 89.81 331.169 89.8994C331.032 89.9267 330.342 90.2498 330.254 90.1861C330.195 90.143 330.265 89.3457 330.265 89.325ZM336.357 106.645C337.018 107.109 337.749 107.484 338.489 107.81C338.906 107.993 340.555 108.378 340.607 108.791C340.636 109.01 340.362 109.257 340.184 109.283C339.956 109.316 339.582 109.17 339.351 109.143C338.51 109.043 337.67 109.042 336.85 108.812C335.212 108.353 333.513 108.224 331.857 107.824C331.464 107.729 331.069 107.64 330.673 107.553C330.297 107.472 330.128 107.486 330.115 107.091C330.086 106.226 330.338 105.339 330.341 104.463C331.68 104.613 333.024 104.611 334.367 104.735C334.942 104.788 334.929 104.894 335.181 105.388C335.443 105.9 335.888 106.316 336.357 106.645ZM329.827 78.527C329.81 78.2066 329.797 77.8856 329.767 77.5657C329.747 77.3509 329.547 76.7509 329.66 76.5841C329.794 76.3857 329.929 76.5067 330.168 76.5013C330.484 76.4937 330.749 76.3694 331.009 76.2065C331.502 75.8974 331.869 75.4914 332.189 75.0173C332.47 74.5998 332.418 74.0297 332.415 73.5305C332.406 72.2383 332.502 70.9783 332.421 69.6807C332.385 69.0845 332.903 69.4502 333.321 69.5276C334.006 69.6534 334.751 69.5662 335.447 69.5679C335.421 69.7265 333.997 70.121 333.767 70.2715C333.179 70.6551 332.835 71.2699 332.889 71.9708C332.997 73.3807 334.579 73.6161 335.736 73.6188C334.777 74.451 333.835 75.2445 333.08 76.2713C332.525 77.0283 331.546 78.5205 332.454 79.3581C331.651 79.8056 330.855 80.3037 329.947 80.519C329.906 79.8552 329.862 79.1914 329.827 78.527ZM329.462 52.7938C329.79 53 329.927 52.7086 330.176 52.5576C330.527 52.345 330.642 52.3659 330.687 51.891C330.769 51.0102 330.392 50.2129 329.917 49.4921C329.702 49.1645 329.487 48.7744 329.183 48.5183C328.905 48.2848 328.625 48.3652 328.368 48.1239C328.267 48.0289 328.289 47.895 328.122 47.8988C328.012 47.9013 327.746 48.235 327.655 48.3088C327.369 48.5414 327.018 48.7186 326.643 48.5267C326.096 48.2474 326.272 47.2338 326.696 46.9054C327.023 46.6526 327.41 46.6916 327.782 46.6508C328.061 46.6203 328.119 46.6323 328.004 46.3188C327.923 46.0994 327.738 45.9281 327.646 45.7135C327.47 45.3014 327.509 44.8004 327.432 44.3643C327.364 43.9735 327.205 43.5507 327.21 43.1538C327.218 42.6484 327.386 42.5171 327.832 42.3754C328.265 42.2381 328.623 41.9356 328.991 41.6813C329.408 41.3935 329.865 41.2035 330.293 40.9407C330.584 40.7622 330.771 40.4015 331.091 40.57C331.471 40.7703 331.873 41.3499 332.196 41.6461C331.723 41.9406 331.613 42.0694 331.679 42.6458C331.738 43.1743 331.848 43.6453 332.26 44.0135C332.418 44.155 332.713 44.2682 332.835 44.4314C332.978 44.6214 332.885 44.4539 332.867 44.6685C332.858 44.7841 332.764 44.8598 332.785 44.9936C332.875 45.5875 333.571 45.237 333.857 45.0306C334.881 44.2934 332.969 43.708 332.516 43.4394C332.202 43.2538 332.047 42.6616 332.544 42.819C332.874 42.9236 333.621 43.8109 333.696 43.0021C334.516 43.4692 335.022 44.4615 335.709 45.0889C336.204 45.5414 336.869 46.0433 336.476 46.7659C335.975 47.6871 334.982 48.1053 334.074 48.5027C333.194 48.8882 333.377 49.979 333.847 50.6467C334.119 51.0327 334.476 51.2588 334.904 51.4464C335.342 51.638 335.433 51.8632 335.529 52.3078C335.635 52.8009 335.522 52.9997 335.087 53.2545C334.662 53.5034 334.218 53.7444 333.764 53.9392C332.783 54.3604 331.766 54.3869 330.722 54.5304C330.357 54.5806 330.006 54.6857 329.806 54.3299C329.582 53.9295 329.566 53.2401 329.462 52.7938ZM329.305 50.8781C329.059 50.7511 328.467 51.1729 328.156 51.1913C327.654 51.2212 327.324 51.2099 326.879 51.4713C326.036 51.9653 325.337 52.6014 324.661 53.2912C323.9 54.068 323.144 54.8492 322.385 55.628C322.041 55.9812 321.696 56.3322 321.347 56.6799C321.071 56.954 320.802 57.3393 320.461 57.535C320.479 57.3028 320.625 57.1382 320.676 56.9229C320.706 56.797 320.654 56.6902 320.673 56.5698C320.679 56.5305 320.786 56.3943 320.803 56.3501C320.846 56.2319 320.899 56.1158 320.951 55.9937C320.999 55.8793 320.992 55.761 321.041 55.6417C321.091 55.519 321.229 55.4378 321.276 55.3168C321.416 54.962 321.185 54.798 320.815 54.8062C320.96 54.0975 321.023 53.7507 321.778 53.5008C322.5 53.2619 323.205 52.9939 323.868 52.6206C324.457 52.2893 324.948 51.8118 325.514 51.4425C326.02 51.1118 326.65 50.7654 326.645 50.0874C326.933 50.2785 327.201 50.4394 327.53 50.2491C327.807 50.0884 327.844 49.959 328.165 49.9287C328.427 49.9041 328.589 49.8975 328.822 50.0105C329.097 50.1433 329.135 50.2356 329.295 49.8446C329.476 49.9949 329.936 50.6207 329.921 50.8683C329.912 51.0048 329.892 51.0664 329.719 51.1024C329.475 51.1533 329.484 50.9709 329.305 50.8781ZM328.159 87.9135C328.04 88.0928 327.537 88.0601 327.342 88.0573C326.749 88.0497 326.542 87.5614 326.282 87.09C325.872 86.3461 325.259 84.8005 325.931 84.02C326.463 83.4036 327.497 84.1803 327.859 84.6451C328.172 85.0473 328.079 85.6506 328.108 86.133C328.133 86.5395 328.396 87.5587 328.159 87.9135ZM326.54 88.1827C326.303 88.4154 325.534 88.3663 325.219 88.4159C324.659 88.5053 324.101 88.6121 323.557 88.7745C323.152 88.8955 322.752 89.2209 322.645 88.6672C322.556 88.2018 322.6 87.6431 322.609 87.1728C322.618 86.666 322.672 86.1657 322.717 85.6605C322.748 85.3193 322.671 84.6915 322.955 84.4293C323.2 84.2037 323.795 84.1819 324.113 84.1072C324.635 83.9841 325.18 83.8227 325.722 83.8778C325.406 84.7203 325.379 85.6043 325.718 86.4442C325.815 86.684 326.687 88.0394 326.54 88.1827ZM322.553 84.8255C322.42 86.0932 322.288 87.369 322.415 88.6427C322.423 88.719 322.515 89.0667 322.475 89.1212C322.433 89.1778 322.104 89.2067 322.029 89.2242C321.732 89.2934 321.436 89.3664 321.137 89.428C320.555 89.5473 320.479 89.1866 320.365 88.6579C320.121 87.5243 320.595 86.2959 320.882 85.2076C321.022 84.6778 321.125 84.6168 321.657 84.5726C322.026 84.5421 322.609 84.2871 322.553 84.8255ZM320.307 89.555C320.084 89.7534 319.862 88.8171 319.843 88.7217C319.765 88.3429 319.808 87.9592 319.809 87.5745C319.812 86.9733 319.764 86.3755 319.764 85.7771C319.763 85.4539 319.516 84.7928 319.906 84.6217C320.02 84.571 320.475 84.5923 320.579 84.6582C320.793 84.7955 320.709 84.8844 320.645 85.1236C320.503 85.6599 320.38 86.1984 320.256 86.7395C320.134 87.2693 320.015 87.7794 320.073 88.3271C320.092 88.508 320.449 89.4285 320.307 89.555ZM327.395 83.6483C327.937 83.4985 327.966 83.9061 327.965 84.2958C327.882 84.2337 327.112 83.7263 327.395 83.6483ZM320.148 55.034C320.015 55.2487 319.174 55.307 318.934 55.3637C318.461 55.4749 317.988 55.585 317.517 55.7005C316.634 55.9174 315.772 56.1621 314.866 56.2755C315.363 55.494 315.518 54.8198 315.426 53.8448C315.309 52.6139 315.161 51.3956 314.872 50.1908C314.587 49.0028 314.258 47.8227 313.94 46.6426C313.784 46.0628 313.615 45.4941 313.408 44.93C313.242 44.4779 312.982 43.9087 313.264 43.4452C313.981 43.9579 314.555 44.5103 314.963 45.2892C315.401 46.1242 315.783 46.9814 316.291 47.7802C316.524 48.1454 316.795 48.4784 317.043 48.832C317.191 49.0423 317.299 49.3458 317.487 49.5233C317.704 49.7278 317.935 49.8242 318.059 49.4791C318.193 49.1087 317.768 48.3759 317.643 48.028C317.34 47.1884 317.04 46.3504 316.807 45.4891C316.618 44.7929 316.306 43.9512 316.416 43.2166C316.525 42.4893 317.028 43.0098 317.283 43.3479C317.808 44.045 318.122 44.8575 318.466 45.6478C318.783 46.3738 319.152 47.066 319.503 47.7752C319.625 48.022 319.786 48.6595 320.105 48.7329C320.569 48.8398 320.53 48.1981 320.486 47.9377C320.192 46.2119 319.423 44.5593 319.264 42.8036C319.256 42.7197 319.145 42.0673 319.235 42.0128C319.407 41.9072 319.641 42.569 319.716 42.7311C320.104 43.5746 320.375 44.4637 320.623 45.3546C320.834 46.1123 321.025 46.8758 321.262 47.6262C321.392 48.0388 321.541 48.4444 321.688 48.8513C321.822 49.2199 321.957 49.8499 322.304 50.0927C322.796 50.4373 324.558 49.6181 324.736 50.3505C324.864 50.8711 323.23 51.2903 322.882 51.4484C322.424 51.6565 321.974 51.8844 321.516 52.0927C321.169 52.2503 320.67 52.3149 320.419 52.6114C320.154 52.9256 320.111 53.3667 320.103 53.7564C320.097 54.0513 320.305 54.7795 320.148 55.034ZM319.034 60.7183C319.011 60.8818 318.878 61.0987 318.819 61.2545C318.697 61.5717 318.594 61.9505 318.425 62.247C318.28 62.502 318.065 62.7304 317.925 62.9893C317.792 63.2351 317.774 63.5185 317.619 63.7648C317.441 64.046 317.147 64.2482 316.971 64.5278C316.884 64.6657 316.794 64.8232 316.67 64.9698C316.235 65.4902 315.802 65.9807 315.452 66.5383C315.362 66.681 314.925 67.3034 314.75 67.3372C314.386 67.4075 314.81 66.8996 314.881 66.7944C315.397 66.0347 315.855 65.2346 316.353 64.4635C316.836 63.7163 317.33 62.9751 317.793 62.2165C318.172 61.5984 318.434 60.7106 319.049 60.2752C319.052 60.4234 319.047 60.5711 319.034 60.7183ZM335.858 53.7359C336.157 54.9446 336.516 56.1163 336.853 57.3142C337.167 58.426 337.584 59.6158 337.714 60.7619C337.843 61.8971 338.139 63.0459 338.536 64.1234C338.72 64.6221 338.909 65.1229 339.109 65.6156C339.219 65.8864 339.341 66.1508 339.466 66.4151C339.563 66.6206 339.818 66.9535 339.828 67.171C339.835 67.3454 339.897 67.2756 339.722 67.407C339.54 67.5427 339.226 67.4931 339.014 67.5171C338.463 67.5797 337.925 67.783 337.387 67.9149C336.351 68.1694 335.114 68.3711 334.052 68.1945C333.605 68.1198 333.141 68.0555 332.699 67.9585C332.155 67.8392 332.043 67.6179 331.932 67.0936C331.687 65.9475 331.478 64.8035 331.276 63.6492C331.037 62.2764 330.777 60.9052 330.592 59.5242C330.405 58.1263 330.271 56.7278 329.978 55.3452C331.159 55.5392 332.271 55.7577 333.455 55.4406C334.503 55.1593 335.26 54.61 335.858 53.7359ZM340.479 68.703C340.743 69.2371 340.107 69.7172 339.799 70.1281C339.392 70.6699 339.012 71.2361 338.54 71.7266C338.397 71.1696 338.273 70.5429 337.894 70.0851C337.411 69.5008 336.847 69.7395 336.255 69.4632C336.876 69.1668 337.669 69.2801 338.327 69.0153C338.978 68.7547 339.634 68.5498 340.239 68.2114C340.319 68.3754 340.399 68.5395 340.479 68.703ZM338.176 81.1577C337.779 81.1795 338.044 80.3577 338.07 80.1538C338.141 79.5925 338.212 79.0311 338.275 78.4693C338.602 79.3167 338.929 80.1642 339.257 81.0117C338.897 81.0623 338.54 81.1381 338.176 81.1577ZM337.53 85.2206C337.584 85.3384 337.836 85.7324 337.637 85.8049C337.364 85.9041 337.331 85.2523 337.53 85.2206ZM337.056 76.0898C335.791 77.0806 334.536 78.0741 333.167 78.9271C332.867 79.114 332.566 79.1925 332.367 78.8219C332.211 78.5303 332.376 78.2022 332.476 77.9166C332.731 77.1896 333.176 76.5574 333.669 75.965C334.654 74.7835 335.827 73.7736 337.323 73.3076C337.568 73.2313 337.945 73.0013 338.031 73.3191C338.081 73.506 337.868 73.9725 337.825 74.148C337.646 74.8723 337.685 75.5977 337.056 76.0898ZM340.697 83.3159C340.725 84.1574 338.381 83.4783 338.089 83.3284C338.395 83.2276 340.684 82.9377 340.697 83.3159ZM341.567 83.3208C341.706 83.3573 342.24 83.4036 342.041 83.5829C341.862 83.7432 341.053 83.6789 340.839 83.6985C340.983 83.2341 341.093 83.1971 341.567 83.3208ZM341.133 82.1943C341.08 82.3812 341.059 82.6668 340.888 82.7949C340.675 82.9551 340.222 82.8581 339.981 82.8592C339.572 82.8614 339.163 82.8821 338.755 82.9219C338.6 82.9371 337.968 83.1235 337.822 82.9965C337.714 82.9028 337.754 82.4635 337.833 82.3649C337.993 82.1621 338.362 82.2324 338.594 82.2243C339.442 82.1948 340.285 82.1921 341.133 82.1943ZM340.589 79.0846C340.469 78.9102 340.447 78.9118 340.396 78.6486C340.342 78.3663 340.203 78.1254 340.122 77.8529C339.942 77.2528 340.516 77.3062 340.936 77.5259C342.028 78.0965 341.764 80.0895 341.494 81.0231C341.102 80.7397 340.957 80.6116 340.822 80.1549C340.771 79.9816 340.713 79.811 340.66 79.6383C340.621 79.5113 340.648 79.1712 340.589 79.0846ZM340.683 69.3831C340.988 69.3472 341.267 70.2747 341.179 70.4753C341.001 70.8862 340.321 71.253 339.974 71.5151C339.743 71.6895 339.514 71.8896 339.267 72.0416C339.038 72.1828 338.907 72.1037 338.693 72.1713C338.385 72.2694 338.311 72.5893 337.995 72.7267C337.552 72.9201 337.013 72.9746 336.55 73.149C335.987 73.361 335.472 73.367 334.882 73.2668C334.034 73.1218 333.04 72.7092 333.117 71.6983C333.252 69.9139 336.862 69 337.847 70.5124C338.103 70.9064 338.099 71.3653 338.266 71.7882C338.446 72.246 338.621 72.0661 338.892 71.7288C339.247 71.2879 339.576 70.823 339.916 70.3712C340.027 70.2257 340.463 69.4098 340.683 69.3831ZM318.555 86.7537C318.537 87.0573 318.556 87.3652 318.448 87.6546C318.34 87.9467 318.12 88.1827 317.994 88.4666C317.737 89.0416 317.739 89.737 317.749 90.3534C317.773 91.7873 318.119 93.1797 318.302 94.5962C317.693 94.5945 317.063 94.6011 316.473 94.4305C315.946 94.2779 315.862 93.8997 315.713 93.4233C315.294 92.0848 314.841 90.7523 314.706 89.3506C314.642 88.6824 314.615 88.0094 314.584 87.339C314.557 86.7515 314.692 86.4948 315.232 86.2038C316.408 85.5711 317.626 85.0446 318.79 84.3819C318.671 85.1683 318.6 85.9607 318.555 86.7537ZM368.733 39.7813C368.447 39.7298 368.159 39.6975 367.87 39.6638C367.719 39.646 367.249 39.6706 367.137 39.5743C367.003 39.4596 367.235 38.5923 367.247 38.4062C367.319 37.2871 367.235 36.1333 367.131 35.0184C366.941 33.0001 366.294 31.1303 364.802 29.677C364.059 28.9535 363.224 28.3795 362.209 28.1026C361.618 27.9412 361.009 27.8551 360.417 27.6986C359.939 27.5722 359.493 27.4276 358.997 27.3775C358.006 27.2776 357.101 26.9105 356.135 26.6981C355.424 26.5419 354.281 26.1713 353.82 26.9589C353.457 26.5414 353.092 26.2279 352.635 25.9165C352.197 25.6182 352.125 25.3202 351.588 25.6647C350.545 26.334 349.569 27.1505 348.595 27.912C347.686 28.6232 346.805 29.3679 345.852 30.0219C344.88 30.6891 345.064 31.8211 345.521 32.7597C346.381 34.5261 347.708 36.0364 348.87 37.5506C349.597 38.4992 350.327 39.449 351.051 40.3994C351.745 41.3079 352.343 42.3593 353.153 43.1754C353.663 43.6899 354.272 43.0171 354.733 42.7062C355.305 42.3201 355.866 41.9197 356.438 41.5347C357.63 40.7327 358.905 39.9816 360.163 39.2836C360.255 39.5381 360.347 39.7926 360.438 40.0472C360.162 40.0676 359.789 40.007 359.648 40.2985C359.447 40.7149 359.94 40.7696 360.026 41.0082C360.103 41.2215 359.787 41.7846 359.694 41.9768C359.483 42.4096 359.189 42.7829 358.865 43.1392C357.584 44.5495 355.962 45.5582 354.317 46.5197C352.557 47.5484 350.669 48.1766 348.742 48.8395C347.762 49.1765 346.745 49.3331 345.733 49.549C344.759 49.7569 343.785 50.0301 342.789 50.1086C340.752 50.269 338.59 50.3893 336.577 49.9581C336.357 49.911 336.124 49.8088 335.899 49.7893C335.72 49.7737 335.586 49.8476 335.417 49.8571C335.053 49.8775 334.844 49.5579 334.554 49.8549C334.41 50.0034 334.407 50.2528 334.206 49.9756C333.949 49.623 334.605 49.5547 334.848 49.4542C335.666 49.116 336.325 48.4349 336.844 47.7465C337.364 47.0586 337.439 46.3238 337.122 45.5184C336.806 44.7133 336.087 44.1675 335.546 43.5137C335.285 43.1972 335.045 42.8623 334.758 42.5667C334.605 42.4088 334.358 42.2577 334.348 42.0985C334.337 41.9134 334.45 41.8215 334.383 41.5966C334.365 41.5381 334.29 41.5048 334.275 41.4405C334.249 41.3381 334.288 41.2502 334.275 41.1503C334.245 40.9213 334.153 40.7776 334.024 40.5899C333.943 40.4727 333.825 40.238 333.714 40.1502C333.519 39.9963 333.254 40.059 333.056 39.903C332.743 39.6562 332.633 39.1361 332.356 38.8366C331.966 38.4149 331.883 38.8409 331.47 38.7065C331.117 38.5915 331.121 38.07 330.835 37.8936C330.433 37.6452 330.095 38.1023 329.738 38.2041C329.268 38.338 329.449 37.8181 329.03 37.7707C328.652 37.7279 328.128 38.4804 327.94 38.7476C327.747 38.5279 327.537 38.1537 327.192 38.2877C326.829 38.4286 326.764 39.0838 326.499 39.3176C326.407 39.3988 326.427 39.4588 326.313 39.4962C326.166 39.5445 325.971 39.3354 325.781 39.3991C325.398 39.5277 325.445 40.0291 325.444 40.3538C324.992 40.2891 324.677 40.2561 324.525 40.7338C324.378 41.2014 324.322 40.9951 323.845 41.147C323.435 41.2778 323.377 41.6604 323.31 42.0346C323.267 42.2673 323.306 42.3623 323.37 42.5745C323.451 42.8417 323.451 42.8383 323.319 43.0934C323.091 43.5384 323.077 44.0288 323.04 44.5186C323.002 45.0412 322.909 45.517 323.06 46.0274C323.154 46.3434 323.161 46.7732 323.476 46.9501C323.601 47.0202 323.813 46.9818 323.92 47.0514C324.123 47.1841 324.061 47.3862 324.197 47.5801C324.298 47.7251 324.462 47.7391 324.575 47.8568C324.699 47.9849 324.706 48.1409 324.776 48.2972C324.984 48.7599 325.18 48.9837 324.502 49.0102C324.083 49.0265 323.636 49.1497 323.219 49.1119C322.727 49.0674 322.605 48.7975 322.448 48.3866C321.659 46.3158 321.235 44.0712 320.195 42.1019C319.967 41.6696 319.03 39.9032 318.634 41.1902C318.3 42.2757 318.738 43.6005 318.906 44.6809C318.379 44.2148 318.184 43.3752 317.784 42.8061C317.488 42.3856 316.562 41.3531 316.02 41.9447C315.593 42.4111 315.699 43.3999 315.778 43.9575C315.903 44.8395 316.19 45.6895 316.395 46.5546C316.137 46.223 316.01 45.8181 315.83 45.4448C315.606 44.9767 315.325 44.5325 315.006 44.1211C314.726 43.7616 314.414 43.4274 314.075 43.1209C313.817 42.8864 313.353 42.3733 312.985 42.3456C312.039 42.2744 312.337 43.977 312.481 44.4639C312.78 45.4728 313.103 46.4539 313.335 47.4832C313.788 49.4941 314.337 51.4585 314.671 53.495C314.745 53.9466 314.834 54.307 314.652 54.7408C314.492 55.1234 314.325 55.5806 314.029 55.8749C313.359 56.5403 312.803 57.2516 312.302 58.0538C311.767 58.9133 311.214 59.782 310.777 60.6943C310.575 61.1139 310.411 61.5679 310.179 61.9718C309.97 62.3358 309.719 62.6241 309.571 63.0274C308.861 64.9545 308.336 66.8484 308.096 68.8894C307.898 70.5652 308.082 72.7942 310.144 73.1861C311.091 73.3665 311.941 72.9539 312.796 72.6138C313.679 72.2623 314.318 71.6901 315.038 71.0824C315.934 70.3276 316.863 69.6191 317.768 68.8763C318.673 68.1335 319.509 67.3094 320.41 66.5584C321.299 65.8167 322.103 65.0286 322.873 64.167C323.636 63.3124 324.255 62.3652 324.994 61.4987C324.991 62.6208 324.821 63.7326 324.774 64.8531C324.73 65.8805 324.729 66.9067 324.771 67.9334C324.814 68.9597 324.537 69.9363 324.535 70.9603C324.533 71.9593 324.492 72.9523 324.47 73.9502C324.46 74.3982 324.37 74.9001 324.541 75.3317C324.668 75.6544 325.068 75.7552 325.41 75.8424C325.937 75.9765 327.524 75.7176 327.759 76.2708C327.888 76.5721 327.758 77.1215 327.768 77.455C327.785 78.0044 327.806 78.5537 327.825 79.1031C327.845 79.6704 327.864 80.2372 327.885 80.8046C327.904 81.3043 328.003 81.8613 327.941 82.3562C327.889 82.7802 327.637 82.7246 327.237 82.7464C326.635 82.7791 326.032 82.8052 325.429 82.8308C324.544 82.869 323.621 82.8516 322.773 82.954C322.417 82.9971 322.027 82.9791 321.652 83.0488C321.181 83.1371 320.745 83.1595 320.267 83.1824C319.882 83.2014 319.387 83.1736 319.084 83.4532C318.979 83.5502 318.956 83.6658 318.881 83.7737C318.741 83.9759 318.819 83.923 318.59 83.9682C317.697 84.1459 316.848 84.3465 315.974 84.6451C315.537 84.795 315.131 84.9956 314.691 85.1362C314.306 85.2599 314.024 85.4114 313.833 85.7825C313.493 86.4452 313.579 87.4039 313.604 88.1178C313.643 89.2323 313.895 90.2929 314.167 91.3704C314.45 92.4914 314.672 93.6424 315.222 94.6719C315.403 95.0104 315.598 95.442 315.968 95.6186C316.445 95.8464 317.178 95.7085 317.699 95.709C318.049 95.7096 318.985 95.8273 319.246 95.5401C319.498 95.2616 319.244 94.4763 319.208 94.1313C319.084 92.9203 318.858 91.6984 318.861 90.4798C319.146 90.8929 319.64 91.6063 320.135 90.9731C320.257 90.8172 320.209 90.7447 320.425 90.6542C320.545 90.6046 320.797 90.5741 320.927 90.5823C321.104 90.5943 321.17 90.664 321.332 90.6297C321.476 90.5997 321.638 90.4733 321.803 90.4346C323.851 89.9572 325.886 89.4427 327.942 89.0171C328.486 88.9048 328.408 89.3141 328.444 89.7752C328.484 90.2853 328.408 90.8003 328.48 91.305C328.543 91.7437 328.592 92.1709 328.503 92.6124C328.399 93.1334 328.466 93.5678 328.57 94.0833C328.97 96.0715 328.898 98.228 328.989 100.249C329.035 101.301 328.935 102.376 329.035 103.422C329.074 103.818 329.299 104.037 329.39 104.396C329.495 104.809 329.209 105.335 329.122 105.735C328.948 106.538 328.641 107.687 329.202 108.386C329.505 108.764 329.901 108.818 330.349 108.946C330.886 109.098 331.415 109.277 331.954 109.422C333.922 109.95 336.05 110.054 338.068 110.345C338.562 110.416 339.02 110.41 339.518 110.376C339.824 110.355 340.579 110.454 340.834 110.274C340.971 110.178 340.901 110.057 340.971 109.939C341.069 109.772 341.189 109.704 341.357 109.6C341.634 109.428 341.956 109.327 342.003 108.971C342.118 108.099 341.008 107.638 340.414 107.261C339.655 106.779 338.74 106.593 337.935 106.2C337.49 105.983 337.062 105.737 336.634 105.491C336.448 105.384 336.072 105.263 335.943 105.095C335.811 104.924 335.94 104.679 335.995 104.434C336.221 103.422 336.144 102.386 336.261 101.363C336.377 100.338 336.346 99.3071 336.385 98.2771C336.424 97.2165 336.513 96.1581 336.582 95.0992C336.645 94.1204 336.708 93.1263 336.719 92.1475C336.729 91.239 336.855 90.3479 336.885 89.434C336.895 89.1239 336.838 88.5615 337.048 88.2982C337.233 88.0677 337.842 88.0971 338.126 88.0562C338.893 87.9472 339.622 87.8519 340.38 87.7859C342.183 87.629 344.189 87.514 345.894 86.8976C346.597 86.6431 347.532 86.2959 347.766 85.5035C348.034 84.5928 347.684 83.4734 347.672 82.5425C347.66 81.5485 347.366 80.5784 347.146 79.6154C346.909 78.5783 346.76 77.5237 346.503 76.4904C346.268 75.5426 345.887 74.7034 345.526 73.803C345.379 73.4384 344.546 72.1806 344.805 71.8705C344.944 71.7032 345.446 71.6612 345.649 71.5844C346.088 71.4198 346.527 71.2328 346.931 70.9985C347.471 70.6851 348.653 70.1674 348.708 69.472C348.759 68.8071 348.094 68.1351 347.755 67.613C347.21 66.7721 346.523 66.0363 346.003 65.1785C344.953 63.4443 344.119 61.5456 343.354 59.6773C342.953 58.6996 342.823 57.7791 342.757 56.7355C343.919 56.7382 345.102 56.8788 346.257 56.7191C347.514 56.5458 348.772 56.2531 350.018 56.0123C352.287 55.5735 354.465 55.0781 356.567 54.0902C358.536 53.1649 360.533 52.1523 362.162 50.6836C363.005 49.9242 363.864 49.1503 364.592 48.2818C365.339 47.3898 365.902 46.3762 366.478 45.3747C367.115 44.2693 367.622 43.1076 368.023 41.8985C368.103 41.6554 368.103 41.3458 368.206 41.1162C368.323 40.857 368.535 40.8501 368.756 40.7136C369.066 40.5215 369.273 39.8785 368.733 39.7813Z" fill="black"/>
<path fill-rule="evenodd" clip-rule="evenodd" d="M341.674 27.407C341.94 27.631 343.085 28.4199 343.455 28.2281C343.911 27.9913 343.189 27.2779 342.994 27.102C342.747 26.8783 341.862 26.2014 341.523 26.2642C340.846 26.3899 341.435 27.2054 341.674 27.407Z" fill="black"/>
<path fill-rule="evenodd" clip-rule="evenodd" d="M342.24 35.5041C342.39 35.2141 342.789 35.1076 342.974 34.827C343.196 34.4898 343.298 34.1946 343.216 33.7811C342.647 33.9689 342.001 34.5372 341.62 34.9817C341.302 35.3532 340.85 36.1294 341.68 36.1314C341.673 36.0208 341.666 35.9102 341.659 35.7998C341.907 35.8353 342.126 35.7226 342.24 35.5041Z" fill="black"/>
<path fill-rule="evenodd" clip-rule="evenodd" d="M339.532 30.6808C339.898 30.7842 340.2 30.7695 340.575 30.7776C340.847 30.7835 341.218 30.9301 341.438 30.7649C341.243 30.6539 341.49 30.6477 341.441 30.5394C341.401 30.4492 341.323 30.4788 341.261 30.4057C341.037 30.1453 340.842 30.1484 340.488 30.0943C340.213 30.0521 339.809 29.9549 339.544 30.089C339.267 30.2301 339.159 30.5758 339.532 30.6808Z" fill="black"/>
<path fill-rule="evenodd" clip-rule="evenodd" d="M344.749 38.6672C344.986 38.4722 345.244 37.9073 345.292 37.6159C345.311 37.5018 345.227 37.4142 345.237 37.3302C345.256 37.1701 345.592 36.8605 345.24 36.7291C344.933 36.6141 344.644 37.5076 344.566 37.7026C344.486 37.9021 344.268 38.2905 344.335 38.4835C344.39 38.6435 344.589 38.7988 344.749 38.6672Z" fill="black"/>
<path fill-rule="evenodd" clip-rule="evenodd" d="M347.585 26.5731C347.799 26.3777 347.934 26.1562 347.912 25.8876C347.895 25.676 347.733 24.9465 347.552 24.968C346.948 25.0394 347.22 26.9057 347.585 26.5731Z" fill="black"/>
<path fill-rule="evenodd" clip-rule="evenodd" d="M334.844 59.1874C334.795 59.0091 334.614 57.9181 334.302 57.9927C334.065 58.0489 334.312 59.0086 334.322 59.135C334.346 59.3994 333.828 59.3906 333.587 59.3547C333.206 59.2985 333.237 59.0789 333.18 58.7388C333.158 58.6102 333.076 58.0293 332.803 58.2418C332.618 58.3857 332.75 59.1023 332.765 59.2658C332.818 59.8321 332.881 60.7989 333.224 61.3134C333.361 61.5183 333.484 61.6197 333.627 61.3564C333.773 61.0905 333.444 60.279 333.386 60.007C333.658 60.0332 334.439 59.9465 334.603 60.2234C334.752 60.4757 334.513 61.1973 334.993 61.2562C335.277 61.291 335.225 60.9679 335.198 60.7193C335.14 60.1983 334.985 59.6909 334.844 59.1874Z" fill="black"/>
<path fill-rule="evenodd" clip-rule="evenodd" d="M335.573 58.935C335.258 59.0745 335.653 61.1085 336.114 61.0431C336.651 60.9662 335.873 58.802 335.573 58.935Z" fill="black"/>
<path fill-rule="evenodd" clip-rule="evenodd" d="M335.222 58.2614C335.183 58.7192 335.79 58.8904 335.819 58.3922C335.84 58.0086 335.263 57.7802 335.222 58.2614Z" fill="black"/>
<path fill-rule="evenodd" clip-rule="evenodd" d="M331.893 46.1196C332.17 47.1321 334.69 47.5628 334.351 46.1973C334.18 45.5135 333.471 46.1209 332.975 46.0414C332.654 45.99 331.698 45.4056 331.893 46.1196Z" fill="black"/>
<path fill-rule="evenodd" clip-rule="evenodd" d="M331.26 44.3136C331.379 43.7718 330.171 43.1738 329.733 43.323C329.092 43.5412 329.094 44.9367 329.583 45.3077C329.648 45.3565 329.845 45.4729 329.941 45.3801C330.094 45.2334 329.928 45.2734 329.892 45.1268C329.835 44.8938 329.65 44.5946 329.835 44.3294C330.182 43.8285 331.091 45.0898 331.26 44.3136Z" fill="black"/>
<path fill-rule="evenodd" clip-rule="evenodd" d="M327.578 46.9433C327.142 46.9193 326.785 47.5825 327.425 47.5269C327.548 47.5163 327.812 47.486 327.883 47.3595C328.001 47.1499 327.769 46.9538 327.578 46.9433Z" fill="black"/>
<path fill-rule="evenodd" clip-rule="evenodd" d="M348.703 31.1326C348.554 30.921 348.241 30.5806 347.973 30.7928C347.734 30.981 347.775 31.4454 347.867 31.6762C348.113 32.2975 348.694 32.851 349.352 32.4931C349.123 32.044 348.995 31.5467 348.703 31.1326Z" fill="black"/>
</g>
<defs>
<filter id="filter0_d_533_6131" x="0" y="31" width="388" height="90" filterUnits="userSpaceOnUse" color-interpolation-filters="sRGB">
<feFlood flood-opacity="0" result="BackgroundImageFix"/>
<feColorMatrix in="SourceAlpha" type="matrix" values="0 0 0 0 0 0 0 0 0 0 0 0 0 0 0 0 0 0 127 0" result="hardAlpha"/>
<feMorphology radius="4" operator="dilate" in="SourceAlpha" result="effect1_dropShadow_533_6131"/>
<feOffset/>
<feGaussianBlur stdDeviation="5"/>
<feComposite in2="hardAlpha" operator="out"/>
<feColorMatrix type="matrix" values="0 0 0 0 0.698039 0 0 0 0 0.670588 0 0 0 0 1 0 0 0 0.25 0"/>
<feBlend mode="normal" in2="BackgroundImageFix" result="effect1_dropShadow_533_6131"/>
<feBlend mode="normal" in="SourceGraphic" in2="effect1_dropShadow_533_6131" result="shape"/>
</filter>
<clipPath id="clip0_533_6131">
<rect width="215" height="129" fill="white" transform="translate(193)"/>
</clipPath>
</defs>
</svg>
