<svg width="388" height="221" viewBox="0 0 388 221" fill="none" xmlns="http://www.w3.org/2000/svg">
<g filter="url(#filter0_d_526_6082)">
<path d="M14 50C14 38.9543 22.9543 30 34 30H354C365.046 30 374 38.9543 374 50V187C374 198.046 365.046 207 354 207H34C22.9543 207 14 198.046 14 187V50Z" fill="#FD9CD6"/>
</g>
<path d="M304.845 87.1502C329.095 78.8927 374 71 374 71V111.997C374 111.997 363.867 110.991 357 123C350.133 135.009 339.035 142.178 318.535 146.782C300.052 150.933 267.593 144.44 249.87 150.509C230.66 157.087 234.09 170.113 220.933 183.638C211.15 193.694 185.327 191.627 159.668 183.638C120.097 171.318 115.753 205.108 89.458 206.828C89.458 206.828 80.9413 207.429 73.5 207.429C69.0369 207.429 63.6867 207.814 58 207.429C49.4081 206.846 40.4846 208.199 32.5 206.828C31.4554 206.648 30.4567 206.428 29.4832 206.16L26.5 205.5L22.3666 203.204C22.2448 203.137 22.1226 203.069 22 203C18.5 200 19 200 17 197.5C15 195 14 187.5 14 187.5C15.1147 174.536 29.5553 174.078 58.975 163.529C58.975 163.529 81.9179 146.389 101.768 138.268C103.772 137.373 105.824 136.611 107.948 136.021C126.059 130.986 148.763 137.037 169.967 130.632C203.496 120.503 196.745 85.2117 230.785 76.3834C256.235 69.7829 280.153 95.558 304.845 87.1502Z" fill="#FFADDE"/>
<path d="M34.66 88.96C34.66 87.5733 34.96 86.34 35.56 85.26C36.16 84.1667 36.9933 83.32 38.06 82.72C39.14 82.1067 40.36 81.8 41.72 81.8C43.3867 81.8 44.8133 82.24 46 83.12C47.1867 84 47.98 85.2 48.38 86.72H44.62C44.34 86.1333 43.94 85.6867 43.42 85.38C42.9133 85.0733 42.3333 84.92 41.68 84.92C40.6267 84.92 39.7733 85.2867 39.12 86.02C38.4667 86.7533 38.14 87.7333 38.14 88.96C38.14 90.1867 38.4667 91.1667 39.12 91.9C39.7733 92.6333 40.6267 93 41.68 93C42.3333 93 42.9133 92.8467 43.42 92.54C43.94 92.2333 44.34 91.7867 44.62 91.2H48.38C47.98 92.72 47.1867 93.92 46 94.8C44.8133 95.6667 43.3867 96.1 41.72 96.1C40.36 96.1 39.14 95.8 38.06 95.2C36.9933 94.5867 36.16 93.74 35.56 92.66C34.96 91.58 34.66 90.3467 34.66 88.96ZM49.6294 90.4C49.6294 89.2533 49.8427 88.2467 50.2694 87.38C50.7094 86.5133 51.3027 85.8467 52.0494 85.38C52.796 84.9133 53.6294 84.68 54.5494 84.68C55.336 84.68 56.0227 84.84 56.6094 85.16C57.2094 85.48 57.6694 85.9 57.9894 86.42V84.84H61.4094V96H57.9894V94.42C57.656 94.94 57.1894 95.36 56.5894 95.68C56.0027 96 55.316 96.16 54.5294 96.16C53.6227 96.16 52.796 95.9267 52.0494 95.46C51.3027 94.98 50.7094 94.3067 50.2694 93.44C49.8427 92.56 49.6294 91.5467 49.6294 90.4ZM57.9894 90.42C57.9894 89.5667 57.7494 88.8933 57.2694 88.4C56.8027 87.9067 56.2294 87.66 55.5494 87.66C54.8694 87.66 54.2894 87.9067 53.8094 88.4C53.3427 88.88 53.1094 89.5467 53.1094 90.4C53.1094 91.2533 53.3427 91.9333 53.8094 92.44C54.2894 92.9333 54.8694 93.18 55.5494 93.18C56.2294 93.18 56.8027 92.9333 57.2694 92.44C57.7494 91.9467 57.9894 91.2733 57.9894 90.42ZM67.1386 86.7C67.5386 86.0867 68.0386 85.6067 68.6386 85.26C69.2386 84.9 69.9053 84.72 70.6386 84.72V88.34H69.6986C68.8453 88.34 68.2053 88.5267 67.7786 88.9C67.3519 89.26 67.1386 89.9 67.1386 90.82V96H63.7186V84.84H67.1386V86.7ZM82.6283 90.24C82.6283 90.56 82.6083 90.8933 82.5683 91.24H74.8283C74.8816 91.9333 75.1016 92.4667 75.4883 92.84C75.8883 93.2 76.3749 93.38 76.9483 93.38C77.8016 93.38 78.3949 93.02 78.7283 92.3H82.3683C82.1816 93.0333 81.8416 93.6933 81.3483 94.28C80.8683 94.8667 80.2616 95.3267 79.5283 95.66C78.7949 95.9933 77.9749 96.16 77.0683 96.16C75.9749 96.16 75.0016 95.9267 74.1483 95.46C73.2949 94.9933 72.6283 94.3267 72.1483 93.46C71.6683 92.5933 71.4283 91.58 71.4283 90.42C71.4283 89.26 71.6616 88.2467 72.1283 87.38C72.6083 86.5133 73.2749 85.8467 74.1283 85.38C74.9816 84.9133 75.9616 84.68 77.0683 84.68C78.1483 84.68 79.1083 84.9067 79.9483 85.36C80.7883 85.8133 81.4416 86.46 81.9083 87.3C82.3883 88.14 82.6283 89.12 82.6283 90.24ZM79.1283 89.34C79.1283 88.7533 78.9283 88.2867 78.5283 87.94C78.1283 87.5933 77.6283 87.42 77.0283 87.42C76.4549 87.42 75.9683 87.5867 75.5683 87.92C75.1816 88.2533 74.9416 88.7267 74.8483 89.34H79.1283ZM91.1275 84.72C92.4075 84.72 93.4342 85.1467 94.2075 86C94.9808 86.84 95.3675 88 95.3675 89.48V96H91.9675V89.94C91.9675 89.1933 91.7742 88.6133 91.3875 88.2C91.0008 87.7867 90.4808 87.58 89.8275 87.58C89.1742 87.58 88.6542 87.7867 88.2675 88.2C87.8808 88.6133 87.6875 89.1933 87.6875 89.94V96H84.2675V81.2H87.6875V86.34C88.0342 85.8467 88.5075 85.4533 89.1075 85.16C89.7075 84.8667 90.3808 84.72 91.1275 84.72ZM108.099 90.24C108.099 90.56 108.079 90.8933 108.039 91.24H100.299C100.352 91.9333 100.572 92.4667 100.959 92.84C101.359 93.2 101.846 93.38 102.419 93.38C103.272 93.38 103.866 93.02 104.199 92.3H107.839C107.652 93.0333 107.312 93.6933 106.819 94.28C106.339 94.8667 105.732 95.3267 104.999 95.66C104.266 95.9933 103.446 96.16 102.539 96.16C101.446 96.16 100.472 95.9267 99.6191 95.46C98.7657 94.9933 98.0991 94.3267 97.6191 93.46C97.1391 92.5933 96.8991 91.58 96.8991 90.42C96.8991 89.26 97.1324 88.2467 97.5991 87.38C98.0791 86.5133 98.7457 85.8467 99.5991 85.38C100.452 84.9133 101.432 84.68 102.539 84.68C103.619 84.68 104.579 84.9067 105.419 85.36C106.259 85.8133 106.912 86.46 107.379 87.3C107.859 88.14 108.099 89.12 108.099 90.24ZM104.599 89.34C104.599 88.7533 104.399 88.2867 103.999 87.94C103.599 87.5933 103.099 87.42 102.499 87.42C101.926 87.42 101.439 87.5867 101.039 87.92C100.652 88.2533 100.412 88.7267 100.319 89.34H104.599ZM109.058 90.4C109.058 89.2533 109.272 88.2467 109.698 87.38C110.138 86.5133 110.732 85.8467 111.478 85.38C112.225 84.9133 113.058 84.68 113.978 84.68C114.765 84.68 115.452 84.84 116.038 85.16C116.638 85.48 117.098 85.9 117.418 86.42V84.84H120.838V96H117.418V94.42C117.085 94.94 116.618 95.36 116.018 95.68C115.432 96 114.745 96.16 113.958 96.16C113.052 96.16 112.225 95.9267 111.478 95.46C110.732 94.98 110.138 94.3067 109.698 93.44C109.272 92.56 109.058 91.5467 109.058 90.4ZM117.418 90.42C117.418 89.5667 117.178 88.8933 116.698 88.4C116.232 87.9067 115.658 87.66 114.978 87.66C114.298 87.66 113.718 87.9067 113.238 88.4C112.772 88.88 112.538 89.5467 112.538 90.4C112.538 91.2533 112.772 91.9333 113.238 92.44C113.718 92.9333 114.298 93.18 114.978 93.18C115.658 93.18 116.232 92.9333 116.698 92.44C117.178 91.9467 117.418 91.2733 117.418 90.42ZM126.568 86.7C126.968 86.0867 127.468 85.6067 128.068 85.26C128.668 84.9 129.334 84.72 130.068 84.72V88.34H129.128C128.274 88.34 127.634 88.5267 127.208 88.9C126.781 89.26 126.568 89.9 126.568 90.82V96H123.148V84.84H126.568V86.7ZM137.757 93.1V96H136.017C134.777 96 133.811 95.7 133.117 95.1C132.424 94.4867 132.077 93.4933 132.077 92.12V87.68H130.717V84.84H132.077V82.12H135.497V84.84H137.737V87.68H135.497V92.16C135.497 92.4933 135.577 92.7333 135.737 92.88C135.897 93.0267 136.164 93.1 136.537 93.1H137.757ZM144.037 96.16C143.064 96.16 142.197 95.9933 141.437 95.66C140.677 95.3267 140.077 94.8733 139.637 94.3C139.197 93.7133 138.951 93.06 138.897 92.34H142.277C142.317 92.7267 142.497 93.04 142.817 93.28C143.137 93.52 143.531 93.64 143.997 93.64C144.424 93.64 144.751 93.56 144.977 93.4C145.217 93.2267 145.337 93.0067 145.337 92.74C145.337 92.42 145.171 92.1867 144.837 92.04C144.504 91.88 143.964 91.7067 143.217 91.52C142.417 91.3333 141.751 91.14 141.217 90.94C140.684 90.7267 140.224 90.4 139.837 89.96C139.451 89.5067 139.257 88.9 139.257 88.14C139.257 87.5 139.431 86.92 139.777 86.4C140.137 85.8667 140.657 85.4467 141.337 85.14C142.031 84.8333 142.851 84.68 143.797 84.68C145.197 84.68 146.297 85.0267 147.097 85.72C147.911 86.4133 148.377 87.3333 148.497 88.48H145.337C145.284 88.0933 145.111 87.7867 144.817 87.56C144.537 87.3333 144.164 87.22 143.697 87.22C143.297 87.22 142.991 87.3 142.777 87.46C142.564 87.6067 142.457 87.8133 142.457 88.08C142.457 88.4 142.624 88.64 142.957 88.8C143.304 88.96 143.837 89.12 144.557 89.28C145.384 89.4933 146.057 89.7067 146.577 89.92C147.097 90.12 147.551 90.4533 147.937 90.92C148.337 91.3733 148.544 91.9867 148.557 92.76C148.557 93.4133 148.371 94 147.997 94.52C147.637 95.0267 147.111 95.4267 146.417 95.72C145.737 96.0133 144.944 96.16 144.037 96.16Z" fill="#272727"/>
<path fill-rule="evenodd" clip-rule="evenodd" d="M273.663 62.9011C272.17 64.1381 272.408 66.572 272.857 68.3403C273.519 70.9441 274.837 73.3544 276.341 75.4321C279.009 79.118 283.538 83.2567 287.713 80.0208C291.43 77.139 293.775 71.324 294.585 66.426C294.835 64.9123 295.168 62.6568 293.993 61.5189C292.255 59.8368 289.19 60.1428 287.092 60.3594C285.71 60.5019 284.377 60.9858 283.012 60.7588C279.84 60.2304 276.309 60.7089 273.663 62.9011Z" fill="#FF5678"/>
<path fill-rule="evenodd" clip-rule="evenodd" d="M337.98 82.1893C334.956 86.574 329.814 87.2668 325.247 87.2239C322.504 87.1978 319.757 86.9619 317.068 86.3233C315.619 85.9789 314.179 85.5227 312.779 84.9746C311.854 84.6125 310.476 84.4316 310.083 83.2987C309.044 80.31 309.808 76.5617 310.236 73.5279C310.453 71.9848 310.617 70.4325 310.828 68.8882C310.964 67.9001 311.028 66.807 311.391 65.8826C311.815 64.7998 312.351 65.016 313.248 65.315C314.484 65.7275 315.754 65.8989 317.024 66.1207C320.126 66.662 322.833 67.7537 325.652 69.3009C328.439 70.8305 331.143 72.3407 333.629 74.4677C334.889 75.5458 335.975 76.7158 336.986 78.0896C337.767 79.151 338.933 80.808 337.98 82.1893ZM324.759 101.665C324.735 102.137 319.995 100.711 319.371 100.552C315.278 99.5025 311.104 98.3075 307.241 96.4119C303.634 94.6427 300.456 92.6184 297.618 89.475C296.295 88.0097 295.105 86.4667 293.967 84.8235C293.396 83.9998 292.617 84.0954 291.98 83.3987C291.408 82.7715 290.969 82.2817 291.148 81.3442C292.578 81.7749 295.219 84.4824 296.702 83.1152C297.547 82.3359 296.375 81.5218 295.834 81.0703C294.816 80.2211 293.947 79.1735 293.138 78.074C294.526 78.3817 295.819 78.9759 297.027 79.8032C297.564 80.1707 299.404 81.5032 299.832 80.2329C300.096 79.4509 298.848 78.4682 298.459 78.0354C297.504 76.9732 296.473 75.7331 295.966 74.3049C297.22 73.9725 298.402 75.08 299.256 75.9821C300.203 76.9837 301.365 78.0349 302.16 79.1889C302.57 79.784 302.659 80.4872 302.98 81.1292C303.34 81.8514 303.917 82.4705 304.467 83.0049C305.529 84.0349 306.771 84.7931 308.045 85.4203C310.957 86.8532 314.079 87.8674 317.183 88.5787C318.706 88.9279 320.192 89.0885 321.737 89.1478C322.939 89.1939 323.47 89.6045 323.929 90.8694C325.17 94.2924 324.945 98.0578 324.759 101.665ZM289.112 75.5835C288.417 76.3262 287.515 76.7921 286.789 77.5061C286.15 78.1344 285.413 78.8047 284.7 79.3129C283.939 79.8551 283.37 79.4749 282.685 78.9842C281.88 78.4085 280.955 78.1751 280.126 77.66C277.261 75.8779 273.756 71.5112 274.291 67.5017C274.518 65.8024 275.287 64.1302 276.683 63.359C277.951 62.6591 279.793 62.2704 281.15 62.8558C281.915 63.186 282.462 63.9148 282.953 64.6314C283.524 65.4667 283.743 65.3351 284.325 64.5294C285.367 63.0881 287.085 61.8236 288.783 61.854C289.627 61.8694 290.465 62.0726 291.225 62.4729C291.329 62.5273 291.386 62.6915 291.489 62.7472C291.616 62.8157 291.825 62.6734 291.913 62.7373C292.136 62.8984 292.358 63.4014 292.486 63.6568C293.001 64.6811 293.929 66.69 292.994 67.5525C292.994 67.5529 293.036 68.7195 293.023 68.8524C292.957 69.5484 292.747 70.1229 292.475 70.7595C291.661 72.6714 290.459 74.1435 289.112 75.5835ZM290.497 91.761C289.839 91.9946 289.13 89.6381 289.761 89.262C290.363 88.9033 291.092 91.5495 290.497 91.761ZM280.163 88.9434C279.935 89.8335 279.838 90.8437 279.281 91.5682C278.771 90.8764 278.721 89.5997 279.215 88.8883C279.498 88.4825 280.412 87.9707 280.163 88.9434ZM301.218 73.347C301.214 73.3695 302.009 73.8043 301.621 74.2796C301.091 74.9289 301.164 73.6652 301.218 73.347ZM304.505 66.0922C304.496 66.9922 302.828 66.7749 302.84 65.8697C302.855 64.7555 304.514 65.138 304.505 66.0922ZM302.514 58.5699C302.68 57.7459 305.579 56.5995 305.5 58.0357C305.461 58.7557 302.165 60.3219 302.514 58.5699ZM272.786 86.5157C272.461 86.9623 271.999 87.1384 271.609 87.4813C271.201 87.8405 270.908 88.3067 270.552 88.7285C269.572 89.8865 268.392 90.8381 267.334 91.902C265.391 93.8574 263.528 95.9599 261.373 97.6183C257.522 100.582 253.056 102.203 248.622 103.622C248.255 103.739 247.197 104.214 246.833 103.861C246.441 103.479 246.641 102.138 246.659 101.631C246.732 99.5512 246.944 97.4471 246.921 95.3707C246.912 94.5178 246.693 93.3054 247.083 92.525C247.517 91.6535 248.731 91.3985 249.482 91.0706C251.764 90.0737 253.963 88.392 255.979 86.8346C258.457 84.9199 260.96 82.9734 263.51 81.1862C266.009 79.4351 268.765 78.2625 271.552 77.2624C271.681 77.5725 270.351 78.5704 270.199 78.7102C269.47 79.3811 268.677 80.0765 268.135 80.9621C267.752 81.5891 267.359 83.0077 268.417 83.0441C268.93 83.0617 269.688 82.4947 270.153 82.3114C270.922 82.0084 271.713 81.7957 272.517 81.6574C271.826 82.5266 269.484 84.0881 269.91 85.5337C270.324 86.9366 272.715 85.2995 273.538 85.2995C273.403 85.7887 273.064 86.1339 272.786 86.5157ZM244.54 90.4312C243.009 91.0466 241.439 91.3965 239.859 91.7938C238.353 92.1725 236.96 92.4579 235.418 92.2361C233.288 91.9301 230.93 90.9217 230.66 88.1555C230.34 84.878 232.365 81.8662 234.104 79.5148C236.221 76.6539 238.598 74.0962 241.173 71.7804C243.746 69.4667 246.523 67.427 249.433 65.705C251.646 64.395 254.146 63.5996 256.486 62.6164C256.931 62.4294 258.163 61.7722 258.579 62.3169C258.916 62.7574 258.458 63.491 258.305 63.9C258.005 64.6972 257.964 65.4999 257.887 66.3559C257.542 70.1786 257.126 74.0002 256.935 77.8395C256.882 78.9094 256.788 80.0287 256.843 81.0994C256.873 81.6924 257.143 82.4477 256.963 83.0267C256.618 84.1397 255.035 84.8764 254.196 85.3736C252.694 86.2637 251.103 86.9278 249.586 87.779C247.92 88.7141 246.297 89.7247 244.54 90.4312ZM265.775 65.5922C266.195 65.5262 266.825 65.3953 267.199 65.7065C267.688 66.1123 267.56 66.6769 267.108 66.9712C266.752 67.2039 265.918 67.2675 265.566 67.0564C264.966 66.6969 265.068 65.7034 265.775 65.5922ZM268.102 74.444C267.763 75.0905 266.522 75.5145 266.63 74.3081C266.722 73.2752 268.728 73.2536 268.102 74.444ZM267.642 56.2324C268.188 56.474 269.178 56.6809 269.34 57.4835C269.491 58.2305 268.872 58.1812 268.425 57.9755C268.057 57.8068 266.419 56.2194 267.642 56.2324ZM353.183 84.7303C352.864 83.312 353.107 81.7421 352.931 80.2895C352.76 78.8814 352.453 77.5875 352.012 76.2605C351.036 73.3228 349.918 70.6783 348.336 68.1C345.356 63.2447 341.899 58.968 337.725 55.4216C333.604 51.9206 329.041 49.0753 324.207 47.0812C319.081 44.9664 313.921 44.2305 308.515 43.8251C306.901 43.7042 305.288 43.5607 303.683 43.3277C302.51 43.1574 301.039 42.9476 299.879 43.3582C299.15 43.6164 298.743 44.3426 299.537 44.8192C300.1 45.1571 300.837 45.1976 301.458 45.2874C300.707 48.0137 299.486 50.7495 297.549 52.6267C295.659 54.4595 293.13 55.0879 290.744 55.5527C289.45 55.8045 288.002 55.9995 286.688 55.8907C285.858 55.8223 285.209 55.3828 284.874 56.3604C284.642 57.0397 284.532 57.785 284.225 56.7594C283.863 55.5469 283.685 55.5545 282.557 55.2101C280.25 54.5059 277.605 53.8633 275.592 52.34C273.505 50.7598 272.778 48.2034 271.613 45.8229C271.325 45.2345 270.455 44.0437 270.899 43.3695C271.306 42.753 272.627 42.8145 273.232 42.7502C273.87 42.6823 274.513 42.6795 275.154 42.651C275.525 42.6347 276.271 42.8085 276.122 42.1749C275.897 41.22 273.483 41.3424 272.884 41.3269C271.769 41.2984 270.639 41.3278 269.53 41.4679C264.031 42.1629 258.483 43.448 253.161 45.1618C242.837 48.4865 232.838 54.6129 225.304 63.4389C218.071 71.9111 215.78 86.0094 220.226 96.8269C222.537 102.449 227.551 104.758 232.412 106.624C234.976 107.607 237.691 108.377 240.417 108.191C241.725 108.102 242.966 107.7 244.241 107.396C244.797 107.264 245.431 107.053 246.002 107.106C246.434 107.147 246.85 107.6 247.256 107.359C247.544 107.188 247.669 106.697 248.021 106.488C248.443 106.237 248.956 106.146 249.412 106.019C250.68 105.667 251.909 105.096 253.148 104.628C254.431 104.143 255.64 103.52 256.871 102.889C257.492 102.571 258.929 101.276 259.334 102.223C259.518 102.655 259.44 103.488 259.485 103.941C259.564 104.733 259.656 105.524 259.757 106.313C259.98 108.05 260.247 109.78 260.52 111.508C261.014 114.625 261.649 117.609 262.713 120.542C263.561 122.883 264.307 125.537 265.883 127.399C266.571 128.212 267.51 128.578 268.497 128.323C269.619 128.032 270.178 126.867 270.86 125.925C272.359 123.851 274.834 122.262 277.12 121.69C279.919 120.99 282.646 122.014 285.318 122.885C288.144 123.806 291.021 124.684 293.795 125.791C296.38 126.822 299.172 128.346 301.975 128.214C304.42 128.098 306.703 125.824 308.466 124.091C310.237 122.35 312.451 119.801 314.997 120.006C316.262 120.108 317.414 120.805 318.645 121.088C319.997 121.399 321.436 121.444 322.811 121.56C324.518 121.703 328.336 121.195 328.967 118.849C329.061 118.5 329.061 117.784 328.659 117.644C328.289 117.516 328.1 118.011 327.75 117.988C327.036 117.942 326.479 116.521 326.087 115.971C324.506 113.75 322.337 112.093 320.563 110.087C318.56 107.821 316.85 105.077 315.34 102.37C316.023 102.167 316.759 102.504 317.419 102.664C318.222 102.858 319.004 103.093 319.795 103.341C320.666 103.616 321.55 103.804 322.435 104.013C323.095 104.169 323.971 104.216 324.567 104.594C325.087 104.925 325.377 105.28 326.023 105.375C326.68 105.473 327.354 105.391 328.013 105.386C329.797 105.372 331.578 105.334 333.353 105.118C339.628 104.357 346.279 101.324 350.052 95.3042C351.078 93.6669 351.904 91.8532 352.427 89.9285C352.835 88.4257 353.538 86.3081 353.183 84.7303Z" fill="black"/>
<path fill-rule="evenodd" clip-rule="evenodd" d="M280.572 32.6696C279.455 33.0656 278.136 32.5997 277.494 31.4606C276.841 30.3024 276.395 28.9622 276.305 27.5826C276.219 26.2607 276.482 24.9223 277.164 23.8371C277.89 22.6826 279.369 21.3887 280.695 21.7896C280.975 21.8741 281.227 22.0776 281.478 22.2795C281.744 22.4936 282.007 22.7061 282.298 22.7724C282.373 22.7895 282.426 22.8056 282.465 22.8174C282.517 22.8336 282.545 22.8422 282.57 22.8356C282.599 22.8281 282.624 22.8009 282.676 22.7426C282.706 22.7093 282.746 22.6658 282.8 22.6101C282.912 22.4955 283.021 22.323 283.127 22.1543C283.198 22.0408 283.269 21.9289 283.338 21.8376C283.472 21.6619 283.606 21.4843 283.74 21.3064C284.603 20.1626 285.482 18.9969 286.536 18.0923C288.721 16.2179 291.624 15.3326 294.334 15.3766C295.983 15.4032 297.528 15.962 299.065 16.5973C299.194 16.6506 299.324 16.7035 299.454 16.7566L299.454 16.7568C300.688 17.2601 301.961 17.7792 302.949 18.7875C304.914 20.7932 305.426 24.114 305.747 26.955C306.096 30.0317 305.136 32.6786 304.142 35.4208V35.4212L304.142 35.4218V35.4219C303.991 35.8393 303.839 36.2588 303.69 36.6821C302.64 39.6819 300.711 42.1121 298.419 43.9639C297.218 44.9338 295.89 45.5194 294.502 46.0328C294.214 46.1393 293.927 46.2533 293.641 46.3671H293.641C292.527 46.8103 291.417 47.2521 290.216 47.25C287.924 47.2463 284.99 46.0022 284.013 43.4216C283.569 42.2466 284.002 42.0356 284.891 42.6743C285.047 42.7858 285.201 42.8985 285.356 43.011V43.0112H285.356L285.357 43.0118C286.486 43.8334 287.607 44.6501 288.933 45.0114C291.858 45.8087 295.36 44.5736 297.924 42.9439C300.487 41.3147 302.208 38.8671 303.358 35.8196C304.518 32.745 304.969 29.7154 304.522 26.4009C304.143 23.592 303.388 21.0263 301.174 19.5015C296.392 16.2103 289.95 16.4755 285.699 20.7527C285.115 21.339 284.539 21.9096 283.938 22.4696C283.556 22.8255 283.106 23.2524 283.162 23.8678C283.174 24.0036 283.248 24.2393 283.332 24.5034C283.572 25.2654 283.887 26.2661 283.008 25.8028C282.646 25.6118 282.346 25.3517 282.05 25.0954C281.563 24.6731 281.088 24.261 280.364 24.1849C279.127 24.0544 277.651 25.1408 277.281 26.5082C276.927 27.813 277.557 29.5982 278.543 30.3465C279.098 30.7676 279.704 30.747 280.33 30.7256C280.393 30.7236 280.456 30.7213 280.52 30.7196C280.568 30.7183 280.628 30.7148 280.697 30.7106C281.118 30.6851 281.854 30.6409 282.05 30.9984C282.453 31.734 281.031 32.5071 280.572 32.6696ZM295.468 38.4902C295.678 38.0194 295.886 37.5538 296.12 37.1331C296.229 36.9379 296.406 36.8031 296.577 36.6739H296.577C296.626 36.6368 296.674 36.6 296.72 36.5625C297.293 37.5836 296.727 38.6775 296.239 39.6195C296.182 39.7288 296.127 39.8361 296.074 39.9409C295.92 40.2484 295.769 40.5686 295.617 40.8917C295.292 41.5819 294.961 42.2844 294.578 42.9021C293.643 44.4073 291.609 42.7789 291.549 41.2318C291.503 40.0476 292.237 40.563 292.708 41.0053C293.193 41.4609 293.423 41.5744 293.931 41.0768C294.614 40.4078 295.046 39.4382 295.468 38.4902ZM289.963 34.3189C290.169 32.7656 289.238 33.9718 289.039 34.6862C288.794 35.5676 288.59 36.8126 288.962 37.6873C289.644 39.2929 291.568 38.5277 292.494 37.6748C292.928 37.2748 293.536 36.4418 293.515 35.7474C293.479 34.5394 292.665 35.2637 292.164 35.7092H292.164C292.1 35.766 292.041 35.8183 291.99 35.8614C291.969 35.8789 291.947 35.8974 291.924 35.9169C291.459 36.3092 290.536 37.0886 289.995 36.7029C289.498 36.3488 289.697 35.5074 289.854 34.8456C289.901 34.6481 289.944 34.4666 289.963 34.3189ZM292.715 28.0547C293.814 27.8048 295.228 27.9336 296.184 28.6453C297.416 29.5622 295.796 30.2224 295.095 30.3045C294.246 30.4035 293.161 30.4691 292.381 29.9931C291.276 29.3183 291.644 28.2988 292.715 28.0547ZM280.174 25.7265C279.334 25.5399 278.162 26.0244 278.74 27.1659C279.172 28.0179 280.235 28.3046 281.067 28.5291C281.168 28.5563 281.266 28.5827 281.358 28.6089C282.283 28.8714 282.741 28.4844 282.423 27.3184C282.114 26.1898 281.08 25.9279 280.174 25.7265ZM297.711 37.6663C297.789 37.2975 298.239 35.9111 298.544 36.9289C298.591 37.0853 298.596 37.3148 298.602 37.5598C298.618 38.1791 298.636 38.8989 299.325 38.7943C299.681 38.7405 299.849 38.3325 300.005 37.9545C300.083 37.7672 300.157 37.5872 300.25 37.4612C301.19 36.1819 300.901 38.6016 300.656 39.2072C300.114 40.5418 298.599 41.4615 297.848 39.7682C297.568 39.1384 297.569 38.3434 297.711 37.6663ZM301.25 32.2858C301.686 32.8646 302.413 33.8297 302.89 33.1307C303.355 32.4484 302.555 31.3911 302.156 30.864C302.138 30.8411 302.122 30.8192 302.106 30.7984C302.095 30.7832 302.082 30.7671 302.07 30.75C301.709 30.2689 300.783 29.0353 300.313 29.9593C300.02 30.5378 300.709 31.6281 301.036 32.0109C301.095 32.079 301.167 32.1754 301.25 32.2858ZM288.441 43.6399C287.991 43.0493 288.038 41.9546 288.293 41.2712C288.501 40.7147 288.848 41.4036 289.05 41.8024C289.099 41.8997 289.139 41.9796 289.167 42.0201C289.257 42.1526 289.386 42.2754 289.519 42.4016C289.796 42.6645 290.089 42.9416 290.07 43.3487C290.023 44.3432 288.837 44.1587 288.441 43.6399Z" fill="black"/>
<path fill-rule="evenodd" clip-rule="evenodd" d="M327.65 36.2897C327.156 36.1365 326.663 35.9834 326.172 35.8257C325.03 35.4585 326.109 34.6324 326.787 34.6905C327.312 34.7353 327.825 34.9457 328.33 35.1525C328.553 35.2438 328.774 35.3346 328.994 35.4102C331.189 36.1633 333.223 36.987 335.274 38.1561C335.58 38.3307 336.927 39.1581 336.036 39.5245C335.568 39.7168 334.626 39.1378 333.967 38.7325C333.756 38.6029 333.574 38.4912 333.446 38.4278C331.584 37.5105 329.612 36.8985 327.65 36.2897ZM346.289 54.8792C338.947 49.6737 331.636 44.575 323.332 41.5928C322.899 41.4375 322.765 40.9963 322.992 40.5593C323.231 40.0986 323.691 40.1155 324.099 40.1305L324.133 40.1318C325.208 40.1706 326.257 40.5583 327.273 40.9339L327.402 40.9817C329.726 41.8392 331.939 43.0287 334.121 44.272C337.946 46.4511 341.628 49.0877 345.002 52.0857C345.708 52.7121 346.431 53.2199 347.198 53.7321C347.245 53.764 347.295 53.7964 347.346 53.8298C347.82 54.1405 348.407 54.5256 348.578 55.1297C349.058 56.83 346.633 55.1234 346.289 54.8792ZM227.733 53.332C225.05 55.7175 222.429 58.2014 220.003 60.9239C219.139 61.8932 218.419 63.0019 217.7 64.11C217.371 64.6174 217.042 65.1246 216.699 65.6181C216.662 65.671 216.622 65.7329 216.578 65.8002C216.302 66.2205 215.889 66.8496 215.438 66.78C214.865 66.6919 214.749 65.5635 214.767 65.0708C214.83 63.3904 216.173 61.7676 217.13 60.6105C218.208 59.3095 219.359 58.0416 220.536 56.857C221.831 55.5527 223.236 54.4317 224.668 53.3342C225.191 52.9332 225.706 52.5089 226.223 52.0838C227.093 51.367 227.967 50.6481 228.885 50.0352C229.574 49.5754 230.718 49.4005 230.343 50.7844C230.124 51.5929 229.264 52.2051 228.513 52.7393C228.222 52.9463 227.948 53.1415 227.733 53.332ZM218.123 50.0247C219.634 49.4873 221.034 48.6531 222.435 47.8189C223.347 47.2754 224.26 46.7318 225.203 46.2705C225.881 45.9387 226.569 45.6351 227.256 45.3315C227.875 45.0584 228.494 44.7853 229.105 44.4919C229.163 44.4642 229.225 44.4379 229.289 44.4107C229.609 44.2753 229.973 44.1216 230.016 43.6904C230.075 43.0933 229.77 43.1112 229.398 43.1329C229.374 43.1342 229.35 43.1357 229.325 43.1369C228.476 43.1805 227.578 43.6107 226.729 44.0172C226.379 44.1852 226.037 44.349 225.71 44.4799C225.419 44.5965 225.128 44.7104 224.837 44.824C223.926 45.1802 223.017 45.5355 222.128 45.9711C220.945 46.5505 219.737 47.1499 218.671 47.9839C218.634 48.0135 218.594 48.0437 218.554 48.0748C218.201 48.3462 217.774 48.6747 217.622 49.1228C217.469 49.5702 217.553 50.2277 218.123 50.0247Z" fill="black"/>
<path fill-rule="evenodd" clip-rule="evenodd" d="M280.654 38.4996C280.797 38.0211 282.563 32.7895 281.871 32.6318C281.14 32.4644 280.161 35.4998 279.949 36.0482C279.165 38.0736 278.701 40.2467 278.337 42.4193C278.083 43.932 277.861 45.4817 277.95 47.0282C278.018 48.2168 278.447 48.3968 279.155 49.125C279.155 45.5149 279.635 41.9166 280.654 38.4996Z" fill="black"/>
<defs>
<filter id="filter0_d_526_6082" x="0" y="16" width="388" height="205" filterUnits="userSpaceOnUse" color-interpolation-filters="sRGB">
<feFlood flood-opacity="0" result="BackgroundImageFix"/>
<feColorMatrix in="SourceAlpha" type="matrix" values="0 0 0 0 0 0 0 0 0 0 0 0 0 0 0 0 0 0 127 0" result="hardAlpha"/>
<feMorphology radius="4" operator="dilate" in="SourceAlpha" result="effect1_dropShadow_526_6082"/>
<feOffset/>
<feGaussianBlur stdDeviation="5"/>
<feComposite in2="hardAlpha" operator="out"/>
<feColorMatrix type="matrix" values="0 0 0 0 0.992157 0 0 0 0 0.611765 0 0 0 0 0.839216 0 0 0 0.25 0"/>
<feBlend mode="normal" in2="BackgroundImageFix" result="effect1_dropShadow_526_6082"/>
<feBlend mode="normal" in="SourceGraphic" in2="effect1_dropShadow_526_6082" result="shape"/>
</filter>
</defs>
</svg>
