<svg width="388" height="290" viewBox="0 0 388 290" fill="none" xmlns="http://www.w3.org/2000/svg">
<g filter="url(#filter0_d_533_6166)">
<path d="M14 34C14 22.9543 22.9543 14 34 14H354C365.046 14 374 22.9543 374 34V76H14V34Z" fill="#9CE6DD"/>
</g>
<path d="M132.732 46.8311C133.593 45.4757 136.006 44.6637 136.006 44.6637C136.006 44.6637 132.621 43.9606 131.834 42.3634C130.702 40.649 129.769 39.1177 129.769 39.1177C129.769 39.1177 129.374 40.8512 128.973 42.7947C128.573 44.7382 126.117 46.1546 126.117 46.1546C126.117 46.1546 128.542 46.2373 129.652 47.2955C130.763 48.3538 131.558 50.9836 131.558 50.9836C131.558 50.9836 131.871 48.1866 132.732 46.8311Z" fill="#B5F8F0"/>
<path d="M170.77 48.1143C173.012 46.4821 177.826 46.4278 177.826 46.4278C177.826 46.4278 171.978 43.7164 171.322 40.9161C170.093 37.7708 169.139 34.9995 169.139 34.9995C169.139 34.9995 167.564 37.4304 165.876 40.1764C164.187 42.9225 158.998 43.8706 158.998 43.8706C158.998 43.8706 163.394 45.1758 164.906 47.3178C166.418 49.4597 166.582 53.8266 166.582 53.8266C166.582 53.8266 168.529 49.7465 170.77 48.1143Z" fill="#B5F8F0"/>
<path d="M246.841 47.1563C248.414 44.873 252.937 43.2245 252.937 43.2245C252.937 43.2245 246.521 42.6069 244.972 40.183C242.77 37.6234 240.95 35.3258 240.95 35.3258C240.95 35.3258 240.271 38.1414 239.59 41.2921C238.908 44.4427 234.328 47.0589 234.328 47.0589C234.328 47.0589 238.907 46.8318 241.044 48.3507C243.181 49.8696 244.785 53.9349 244.785 53.9349C244.785 53.9349 245.268 49.4396 246.841 47.1563Z" fill="#B5F8F0"/>
<path d="M320.659 48.1818C322.948 46.6188 327.762 46.7115 327.762 46.7115C327.762 46.7115 322 43.8229 321.429 41.0038C320.297 37.8224 319.428 35.0234 319.428 35.0234C319.428 35.0234 317.78 37.405 316.008 40.0983C314.237 42.7915 309.022 43.5808 309.022 43.5808C309.022 43.5808 313.375 45.0195 314.821 47.2066C316.267 49.3938 316.297 53.7637 316.297 53.7637C316.297 53.7637 318.369 49.7449 320.659 48.1818Z" fill="#B5F8F0"/>
<path d="M207.879 46.6807C208.624 45.2583 210.96 44.2485 210.96 44.2485C210.96 44.2485 207.529 43.8294 206.611 42.3032C205.341 40.6889 204.284 39.2405 204.284 39.2405C204.284 39.2405 204.035 41.0008 203.797 42.9709C203.559 44.941 201.23 46.5568 201.23 46.5568C201.23 46.5568 203.653 46.4375 204.848 47.3997C206.042 48.3619 207.054 50.9164 207.054 50.9164C207.054 50.9164 207.134 48.103 207.879 46.6807Z" fill="#B5F8F0"/>
<path d="M281.507 47.4692C282.953 46.771 285.431 47.3525 285.431 47.3525C285.431 47.3525 282.926 44.9713 283.098 43.1988C283.04 41.1453 283.054 39.3524 283.054 39.3524C283.054 39.3524 281.805 40.6174 280.44 42.0579C279.075 43.4984 276.242 43.408 276.242 43.408C276.242 43.408 278.259 44.7559 278.645 46.2406C279.031 47.7252 278.321 50.3794 278.321 50.3794C278.321 50.3794 280.061 48.1675 281.507 47.4692Z" fill="#B5F8F0"/>
<path d="M44.04 39.96V49.52C44.04 51 43.62 52.14 42.78 52.94C41.9533 53.74 40.8333 54.14 39.42 54.14C37.94 54.14 36.7533 53.72 35.86 52.88C34.9667 52.04 34.52 50.8467 34.52 49.3H37.92C37.92 49.8867 38.04 50.3333 38.28 50.64C38.52 50.9333 38.8667 51.08 39.32 51.08C39.7333 51.08 40.0533 50.9467 40.28 50.68C40.5067 50.4133 40.62 50.0267 40.62 49.52V39.96H44.04ZM51.7175 54.16C50.6242 54.16 49.6375 53.9267 48.7575 53.46C47.8908 52.9933 47.2042 52.3267 46.6975 51.46C46.2042 50.5933 45.9575 49.58 45.9575 48.42C45.9575 47.2733 46.2108 46.2667 46.7175 45.4C47.2242 44.52 47.9175 43.8467 48.7975 43.38C49.6775 42.9133 50.6642 42.68 51.7575 42.68C52.8508 42.68 53.8375 42.9133 54.7175 43.38C55.5975 43.8467 56.2908 44.52 56.7975 45.4C57.3042 46.2667 57.5575 47.2733 57.5575 48.42C57.5575 49.5667 57.2975 50.58 56.7775 51.46C56.2708 52.3267 55.5708 52.9933 54.6775 53.46C53.7975 53.9267 52.8108 54.16 51.7175 54.16ZM51.7175 51.2C52.3708 51.2 52.9242 50.96 53.3775 50.48C53.8442 50 54.0775 49.3133 54.0775 48.42C54.0775 47.5267 53.8508 46.84 53.3975 46.36C52.9575 45.88 52.4108 45.64 51.7575 45.64C51.0908 45.64 50.5375 45.88 50.0975 46.36C49.6575 46.8267 49.4375 47.5133 49.4375 48.42C49.4375 49.3133 49.6508 50 50.0775 50.48C50.5175 50.96 51.0642 51.2 51.7175 51.2ZM70.2269 42.84V54H66.8069V52.48C66.4602 52.9733 65.9869 53.3733 65.3869 53.68C64.8002 53.9733 64.1469 54.12 63.4269 54.12C62.5735 54.12 61.8202 53.9333 61.1669 53.56C60.5135 53.1733 60.0069 52.62 59.6469 51.9C59.2869 51.18 59.1069 50.3333 59.1069 49.36V42.84H62.5069V48.9C62.5069 49.6467 62.7002 50.2267 63.0869 50.64C63.4735 51.0533 63.9935 51.26 64.6469 51.26C65.3135 51.26 65.8402 51.0533 66.2269 50.64C66.6135 50.2267 66.8069 49.6467 66.8069 48.9V42.84H70.2269ZM75.9384 44.7C76.3384 44.0867 76.8384 43.6067 77.4384 43.26C78.0384 42.9 78.7051 42.72 79.4384 42.72V46.34H78.4984C77.6451 46.34 77.0051 46.5267 76.5784 46.9C76.1518 47.26 75.9384 47.9 75.9384 48.82V54H72.5184V42.84H75.9384V44.7ZM87.7081 42.72C89.0148 42.72 90.0548 43.1467 90.8281 44C91.6148 44.84 92.0081 46 92.0081 47.48V54H88.6081V47.94C88.6081 47.1933 88.4148 46.6133 88.0281 46.2C87.6415 45.7867 87.1215 45.58 86.4681 45.58C85.8148 45.58 85.2948 45.7867 84.9081 46.2C84.5215 46.6133 84.3281 47.1933 84.3281 47.94V54H80.9081V42.84H84.3281V44.32C84.6748 43.8267 85.1415 43.44 85.7281 43.16C86.3148 42.8667 86.9748 42.72 87.7081 42.72ZM93.5397 48.4C93.5397 47.2533 93.753 46.2467 94.1797 45.38C94.6197 44.5133 95.213 43.8467 95.9597 43.38C96.7064 42.9133 97.5397 42.68 98.4597 42.68C99.2464 42.68 99.933 42.84 100.52 43.16C101.12 43.48 101.58 43.9 101.9 44.42V42.84H105.32V54H101.9V52.42C101.566 52.94 101.1 53.36 100.5 53.68C99.913 54 99.2264 54.16 98.4397 54.16C97.533 54.16 96.7064 53.9267 95.9597 53.46C95.213 52.98 94.6197 52.3067 94.1797 51.44C93.753 50.56 93.5397 49.5467 93.5397 48.4ZM101.9 48.42C101.9 47.5667 101.66 46.8933 101.18 46.4C100.713 45.9067 100.14 45.66 99.4597 45.66C98.7797 45.66 98.1997 45.9067 97.7197 46.4C97.253 46.88 97.0197 47.5467 97.0197 48.4C97.0197 49.2533 97.253 49.9333 97.7197 50.44C98.1997 50.9333 98.7797 51.18 99.4597 51.18C100.14 51.18 100.713 50.9333 101.18 50.44C101.66 49.9467 101.9 49.2733 101.9 48.42ZM111.049 39.2V54H107.629V39.2H111.049Z" fill="black"/>
<g filter="url(#filter1_d_533_6166)">
<rect x="26" y="105" width="151" height="171" fill="#FFCB13"/>
</g>
<rect x="55" y="168" width="108" height="45" fill="#FFE485"/>
<g filter="url(#filter2_d_533_6166)">
<rect x="212" y="105" width="151" height="171" fill="#CFE29B"/>
</g>
<rect x="243" y="168" width="98" height="45" fill="#DCEDAC"/>
<rect x="212" y="105" width="17" height="171" fill="#B5D364"/>
<rect x="26" y="105" width="17" height="171" fill="#FFAF13"/>
<rect x="64.2188" y="164" width="6" height="17.853" transform="rotate(47.7668 64.2188 164)" fill="white" fill-opacity="0.65"/>
<rect x="163.219" y="201" width="6" height="17.853" transform="rotate(47.7668 163.219 201)" fill="white" fill-opacity="0.65"/>
<rect x="252.219" y="164" width="6" height="17.853" transform="rotate(47.7668 252.219 164)" fill="white" fill-opacity="0.65"/>
<rect x="341.219" y="201" width="6" height="17.853" transform="rotate(47.7668 341.219 201)" fill="white" fill-opacity="0.65"/>
<path d="M358.04 46.6499C358.805 45.238 361.155 44.2603 361.155 44.2603C361.155 44.2603 357.73 43.7941 356.834 42.2555C355.585 40.6238 354.549 39.161 354.549 39.161C354.549 39.161 354.275 40.9177 354.01 42.8844C353.745 44.851 351.394 46.4346 351.394 46.4346C351.394 46.4346 353.819 46.3487 355 47.3272C356.181 48.3057 357.158 50.8739 357.158 50.8739C357.158 50.8739 357.276 48.0619 358.04 46.6499Z" fill="#B5F8F0"/>
<defs>
<filter id="filter0_d_533_6166" x="0" y="0" width="388" height="90" filterUnits="userSpaceOnUse" color-interpolation-filters="sRGB">
<feFlood flood-opacity="0" result="BackgroundImageFix"/>
<feColorMatrix in="SourceAlpha" type="matrix" values="0 0 0 0 0 0 0 0 0 0 0 0 0 0 0 0 0 0 127 0" result="hardAlpha"/>
<feMorphology radius="4" operator="dilate" in="SourceAlpha" result="effect1_dropShadow_533_6166"/>
<feOffset/>
<feGaussianBlur stdDeviation="5"/>
<feComposite in2="hardAlpha" operator="out"/>
<feColorMatrix type="matrix" values="0 0 0 0 0.552941 0 0 0 0 0.898039 0 0 0 0 0.858824 0 0 0 0.25 0"/>
<feBlend mode="normal" in2="BackgroundImageFix" result="effect1_dropShadow_533_6166"/>
<feBlend mode="normal" in="SourceGraphic" in2="effect1_dropShadow_533_6166" result="shape"/>
</filter>
<filter id="filter1_d_533_6166" x="12" y="91" width="179" height="199" filterUnits="userSpaceOnUse" color-interpolation-filters="sRGB">
<feFlood flood-opacity="0" result="BackgroundImageFix"/>
<feColorMatrix in="SourceAlpha" type="matrix" values="0 0 0 0 0 0 0 0 0 0 0 0 0 0 0 0 0 0 127 0" result="hardAlpha"/>
<feMorphology radius="4" operator="dilate" in="SourceAlpha" result="effect1_dropShadow_533_6166"/>
<feOffset/>
<feGaussianBlur stdDeviation="5"/>
<feComposite in2="hardAlpha" operator="out"/>
<feColorMatrix type="matrix" values="0 0 0 0 1 0 0 0 0 0.796078 0 0 0 0 0.0745098 0 0 0 0.25 0"/>
<feBlend mode="normal" in2="BackgroundImageFix" result="effect1_dropShadow_533_6166"/>
<feBlend mode="normal" in="SourceGraphic" in2="effect1_dropShadow_533_6166" result="shape"/>
</filter>
<filter id="filter2_d_533_6166" x="198" y="91" width="179" height="199" filterUnits="userSpaceOnUse" color-interpolation-filters="sRGB">
<feFlood flood-opacity="0" result="BackgroundImageFix"/>
<feColorMatrix in="SourceAlpha" type="matrix" values="0 0 0 0 0 0 0 0 0 0 0 0 0 0 0 0 0 0 127 0" result="hardAlpha"/>
<feMorphology radius="4" operator="dilate" in="SourceAlpha" result="effect1_dropShadow_533_6166"/>
<feOffset/>
<feGaussianBlur stdDeviation="5"/>
<feComposite in2="hardAlpha" operator="out"/>
<feColorMatrix type="matrix" values="0 0 0 0 0.811765 0 0 0 0 0.886275 0 0 0 0 0.607843 0 0 0 0.25 0"/>
<feBlend mode="normal" in2="BackgroundImageFix" result="effect1_dropShadow_533_6166"/>
<feBlend mode="normal" in="SourceGraphic" in2="effect1_dropShadow_533_6166" result="shape"/>
</filter>
</defs>
</svg>
