<svg width="388" height="290" viewBox="0 0 388 290" fill="none" xmlns="http://www.w3.org/2000/svg">
<g filter="url(#filter0_d_586_2384)">
<path d="M14 34C14 22.9543 22.9543 14 34 14H354C365.046 14 374 22.9543 374 34V76H14V34Z" fill="#9CE6DD"/>
</g>
<path d="M189.962 51.3064C192.203 49.6743 197.017 49.62 197.017 49.62C197.017 49.62 191.17 46.9086 190.513 44.1082C189.285 40.9629 188.331 38.1917 188.331 38.1917C188.331 38.1917 186.756 40.6225 185.068 43.3686C183.379 46.1146 178.19 47.0628 178.19 47.0628C178.19 47.0628 182.586 48.3679 184.098 50.5099C185.61 52.6519 185.773 57.0188 185.773 57.0188C185.773 57.0188 187.721 52.9386 189.962 51.3064Z" fill="#B5F8F0"/>
<path d="M254.563 49.8781C256.135 47.5948 260.659 45.9463 260.659 45.9463C260.659 45.9463 254.242 45.3287 252.694 42.9048C250.492 40.3452 248.672 38.0476 248.672 38.0476C248.672 38.0476 247.993 40.8632 247.311 44.0139C246.63 47.1645 242.049 49.7807 242.049 49.7807C242.049 49.7807 246.629 49.5536 248.766 51.0725C250.903 52.5914 252.506 56.6567 252.506 56.6567C252.506 56.6567 252.99 52.1614 254.563 49.8781Z" fill="#B5F8F0"/>
<path d="M320.095 51.6174C322.384 50.0544 327.198 50.147 327.198 50.147C327.198 50.147 321.436 47.2584 320.865 44.4393C319.733 41.258 318.864 38.4589 318.864 38.4589C318.864 38.4589 317.216 40.8406 315.444 43.5338C313.673 46.227 308.458 47.0164 308.458 47.0164C308.458 47.0164 312.811 48.4551 314.257 50.6422C315.703 52.8293 315.733 57.1992 315.733 57.1992C315.733 57.1992 317.805 53.1804 320.095 51.6174Z" fill="#B5F8F0"/>
<path d="M158.129 49.6728C158.874 48.2504 161.21 47.2405 161.21 47.2405C161.21 47.2405 157.779 46.8214 156.861 45.2953C155.591 43.6809 154.534 42.2326 154.534 42.2326C154.534 42.2326 154.285 43.9928 154.047 45.963C153.809 47.9331 151.48 49.5488 151.48 49.5488C151.48 49.5488 153.903 49.4296 155.098 50.3918C156.292 51.354 157.304 53.9085 157.304 53.9085C157.304 53.9085 157.384 51.0951 158.129 49.6728Z" fill="#B5F8F0"/>
<path d="M220.533 50.1618C221.673 49.0309 224.206 48.7741 224.206 48.7741C224.206 48.7741 221.062 47.3381 220.648 45.606C219.924 43.6833 219.354 41.9833 219.354 41.9833C219.354 41.9833 218.585 43.586 217.763 45.3923C216.941 47.1986 214.233 48.0353 214.233 48.0353C214.233 48.0353 216.579 48.6535 217.427 49.9316C218.275 51.2097 218.468 53.9505 218.468 53.9505C218.468 53.9505 219.393 51.2926 220.533 50.1618Z" fill="#B5F8F0"/>
<path d="M285.469 50.955C286.914 50.2567 289.393 50.8382 289.393 50.8382C289.393 50.8382 286.887 48.457 287.059 46.6845C287.001 44.6311 287.016 42.8381 287.016 42.8381C287.016 42.8381 285.766 44.1031 284.401 45.5436C283.037 46.9841 280.204 46.8938 280.204 46.8938C280.204 46.8938 282.22 48.2417 282.606 49.7263C282.992 51.2109 282.282 53.8652 282.282 53.8652C282.282 53.8652 284.023 51.6532 285.469 50.955Z" fill="#B5F8F0"/>
<path d="M51.14 39.96V54H47.72V45.58L44.58 54H41.82L38.66 45.56V54H35.24V39.96H39.28L43.22 49.68L47.12 39.96H51.14ZM64.8344 42.84L57.8344 59.3H54.1544L56.7144 53.62L52.1744 42.84H55.9944L58.5744 49.82L61.1344 42.84H64.8344ZM69.3994 46.96C69.3994 45.5733 69.6994 44.34 70.2994 43.26C70.8994 42.1667 71.7327 41.32 72.7994 40.72C73.8794 40.1067 75.0994 39.8 76.4594 39.8C78.126 39.8 79.5527 40.24 80.7394 41.12C81.926 42 82.7194 43.2 83.1194 44.72H79.3594C79.0794 44.1333 78.6794 43.6867 78.1594 43.38C77.6527 43.0733 77.0727 42.92 76.4194 42.92C75.366 42.92 74.5127 43.2867 73.8594 44.02C73.206 44.7533 72.8794 45.7333 72.8794 46.96C72.8794 48.1867 73.206 49.1667 73.8594 49.9C74.5127 50.6333 75.366 51 76.4194 51C77.0727 51 77.6527 50.8467 78.1594 50.54C78.6794 50.2333 79.0794 49.7867 79.3594 49.2H83.1194C82.7194 50.72 81.926 51.92 80.7394 52.8C79.5527 53.6667 78.126 54.1 76.4594 54.1C75.0994 54.1 73.8794 53.8 72.7994 53.2C71.7327 52.5867 70.8994 51.74 70.2994 50.66C69.6994 49.58 69.3994 48.3467 69.3994 46.96ZM88.4688 44.7C88.8688 44.0867 89.3688 43.6067 89.9688 43.26C90.5688 42.9 91.2354 42.72 91.9688 42.72V46.34H91.0288C90.1754 46.34 89.5354 46.5267 89.1088 46.9C88.6821 47.26 88.4688 47.9 88.4688 48.82V54H85.0488V42.84H88.4688V44.7ZM104.458 42.84V54H101.038V52.48C100.692 52.9733 100.218 53.3733 99.6184 53.68C99.0318 53.9733 98.3784 54.12 97.6584 54.12C96.8051 54.12 96.0518 53.9333 95.3984 53.56C94.7451 53.1733 94.2384 52.62 93.8784 51.9C93.5184 51.18 93.3384 50.3333 93.3384 49.36V42.84H96.7384V48.9C96.7384 49.6467 96.9318 50.2267 97.3184 50.64C97.7051 51.0533 98.2251 51.26 98.8784 51.26C99.5451 51.26 100.072 51.0533 100.458 50.64C100.845 50.2267 101.038 49.6467 101.038 48.9V42.84H104.458ZM111.29 54.16C110.317 54.16 109.45 53.9933 108.69 53.66C107.93 53.3267 107.33 52.8733 106.89 52.3C106.45 51.7133 106.203 51.06 106.15 50.34H109.53C109.57 50.7267 109.75 51.04 110.07 51.28C110.39 51.52 110.783 51.64 111.25 51.64C111.677 51.64 112.003 51.56 112.23 51.4C112.47 51.2267 112.59 51.0067 112.59 50.74C112.59 50.42 112.423 50.1867 112.09 50.04C111.757 49.88 111.217 49.7067 110.47 49.52C109.67 49.3333 109.003 49.14 108.47 48.94C107.937 48.7267 107.477 48.4 107.09 47.96C106.703 47.5067 106.51 46.9 106.51 46.14C106.51 45.5 106.683 44.92 107.03 44.4C107.39 43.8667 107.91 43.4467 108.59 43.14C109.283 42.8333 110.103 42.68 111.05 42.68C112.45 42.68 113.55 43.0267 114.35 43.72C115.163 44.4133 115.63 45.3333 115.75 46.48H112.59C112.537 46.0933 112.363 45.7867 112.07 45.56C111.79 45.3333 111.417 45.22 110.95 45.22C110.55 45.22 110.243 45.3 110.03 45.46C109.817 45.6067 109.71 45.8133 109.71 46.08C109.71 46.4 109.877 46.64 110.21 46.8C110.557 46.96 111.09 47.12 111.81 47.28C112.637 47.4933 113.31 47.7067 113.83 47.92C114.35 48.12 114.803 48.4533 115.19 48.92C115.59 49.3733 115.797 49.9867 115.81 50.76C115.81 51.4133 115.623 52 115.25 52.52C114.89 53.0267 114.363 53.4267 113.67 53.72C112.99 54.0133 112.197 54.16 111.29 54.16ZM124.597 42.72C125.877 42.72 126.904 43.1467 127.677 44C128.451 44.84 128.837 46 128.837 47.48V54H125.437V47.94C125.437 47.1933 125.244 46.6133 124.857 46.2C124.471 45.7867 123.951 45.58 123.297 45.58C122.644 45.58 122.124 45.7867 121.737 46.2C121.351 46.6133 121.157 47.1933 121.157 47.94V54H117.737V39.2H121.157V44.34C121.504 43.8467 121.977 43.4533 122.577 43.16C123.177 42.8667 123.851 42.72 124.597 42.72Z" fill="black"/>
<g filter="url(#filter1_d_586_2384)">
<rect x="26" y="105" width="151" height="171" fill="#FFCB13"/>
</g>
<rect x="55" y="168" width="108" height="45" fill="#FFE485"/>
<g filter="url(#filter2_d_586_2384)">
<rect x="212" y="105" width="151" height="171" fill="#CFE29B"/>
</g>
<rect x="243" y="168" width="98" height="45" fill="#DCEDAC"/>
<rect x="212" y="105" width="17" height="171" fill="#B5D364"/>
<rect x="26" y="105" width="17" height="171" fill="#FFAF13"/>
<rect x="64.2188" y="164" width="6" height="17.853" transform="rotate(47.7668 64.2188 164)" fill="white" fill-opacity="0.65"/>
<rect x="163.219" y="201" width="6" height="17.853" transform="rotate(47.7668 163.219 201)" fill="white" fill-opacity="0.65"/>
<rect x="252.219" y="164" width="6" height="17.853" transform="rotate(47.7668 252.219 164)" fill="white" fill-opacity="0.65"/>
<rect x="341.219" y="201" width="6" height="17.853" transform="rotate(47.7668 341.219 201)" fill="white" fill-opacity="0.65"/>
<path d="M352.04 49.6499C352.805 48.238 355.155 47.2603 355.155 47.2603C355.155 47.2603 351.73 46.7941 350.834 45.2555C349.585 43.6238 348.549 42.161 348.549 42.161C348.549 42.161 348.275 43.9177 348.01 45.8844C347.745 47.851 345.394 49.4346 345.394 49.4346C345.394 49.4346 347.819 49.3487 349 50.3272C350.181 51.3057 351.158 53.8739 351.158 53.8739C351.158 53.8739 351.276 51.0619 352.04 49.6499Z" fill="#B5F8F0"/>
<defs>
<filter id="filter0_d_586_2384" x="0" y="0" width="388" height="90" filterUnits="userSpaceOnUse" color-interpolation-filters="sRGB">
<feFlood flood-opacity="0" result="BackgroundImageFix"/>
<feColorMatrix in="SourceAlpha" type="matrix" values="0 0 0 0 0 0 0 0 0 0 0 0 0 0 0 0 0 0 127 0" result="hardAlpha"/>
<feMorphology radius="4" operator="dilate" in="SourceAlpha" result="effect1_dropShadow_586_2384"/>
<feOffset/>
<feGaussianBlur stdDeviation="5"/>
<feComposite in2="hardAlpha" operator="out"/>
<feColorMatrix type="matrix" values="0 0 0 0 0.552941 0 0 0 0 0.898039 0 0 0 0 0.858824 0 0 0 0.25 0"/>
<feBlend mode="normal" in2="BackgroundImageFix" result="effect1_dropShadow_586_2384"/>
<feBlend mode="normal" in="SourceGraphic" in2="effect1_dropShadow_586_2384" result="shape"/>
</filter>
<filter id="filter1_d_586_2384" x="12" y="91" width="179" height="199" filterUnits="userSpaceOnUse" color-interpolation-filters="sRGB">
<feFlood flood-opacity="0" result="BackgroundImageFix"/>
<feColorMatrix in="SourceAlpha" type="matrix" values="0 0 0 0 0 0 0 0 0 0 0 0 0 0 0 0 0 0 127 0" result="hardAlpha"/>
<feMorphology radius="4" operator="dilate" in="SourceAlpha" result="effect1_dropShadow_586_2384"/>
<feOffset/>
<feGaussianBlur stdDeviation="5"/>
<feComposite in2="hardAlpha" operator="out"/>
<feColorMatrix type="matrix" values="0 0 0 0 1 0 0 0 0 0.796078 0 0 0 0 0.0745098 0 0 0 0.25 0"/>
<feBlend mode="normal" in2="BackgroundImageFix" result="effect1_dropShadow_586_2384"/>
<feBlend mode="normal" in="SourceGraphic" in2="effect1_dropShadow_586_2384" result="shape"/>
</filter>
<filter id="filter2_d_586_2384" x="198" y="91" width="179" height="199" filterUnits="userSpaceOnUse" color-interpolation-filters="sRGB">
<feFlood flood-opacity="0" result="BackgroundImageFix"/>
<feColorMatrix in="SourceAlpha" type="matrix" values="0 0 0 0 0 0 0 0 0 0 0 0 0 0 0 0 0 0 127 0" result="hardAlpha"/>
<feMorphology radius="4" operator="dilate" in="SourceAlpha" result="effect1_dropShadow_586_2384"/>
<feOffset/>
<feGaussianBlur stdDeviation="5"/>
<feComposite in2="hardAlpha" operator="out"/>
<feColorMatrix type="matrix" values="0 0 0 0 0.811765 0 0 0 0 0.886275 0 0 0 0 0.607843 0 0 0 0.25 0"/>
<feBlend mode="normal" in2="BackgroundImageFix" result="effect1_dropShadow_586_2384"/>
<feBlend mode="normal" in="SourceGraphic" in2="effect1_dropShadow_586_2384" result="shape"/>
</filter>
</defs>
</svg>
