<svg width="387" height="178" viewBox="0 0 387 178" fill="none" xmlns="http://www.w3.org/2000/svg">
<g filter="url(#filter0_d_616_2823)">
<path d="M13 34C13 22.9543 21.9543 14 33 14H353C364.046 14 373 22.9543 373 34V144C373 155.046 364.046 164 353 164H33C21.9543 164 13 155.046 13 144V34Z" fill="#9CE6DD"/>
</g>
<path d="M188.962 56.7174C191.203 54.8485 196.017 54.7863 196.017 54.7863C196.017 54.7863 190.17 51.6816 189.513 48.4751C188.285 44.8736 187.331 41.7004 187.331 41.7004C187.331 41.7004 185.756 44.4839 184.068 47.6282C182.379 50.7725 177.19 51.8582 177.19 51.8582C177.19 51.8582 181.586 53.3527 183.098 55.8053C184.61 58.2579 184.773 63.2582 184.773 63.2582C184.773 63.2582 186.721 58.5863 188.962 56.7174Z" fill="#F3F4FF"/>
<path d="M253.563 55.0817C255.135 52.4672 259.659 50.5796 259.659 50.5796C259.659 50.5796 253.242 49.8725 251.694 47.097C249.492 44.1662 247.672 41.5354 247.672 41.5354C247.672 41.5354 246.993 44.7594 246.311 48.367C245.63 51.9746 241.049 54.9702 241.049 54.9702C241.049 54.9702 245.629 54.7102 247.766 56.4494C249.903 58.1886 251.506 62.8435 251.506 62.8435C251.506 62.8435 251.99 57.6962 253.563 55.0817Z" fill="#F3F4FF"/>
<path d="M319.095 57.0734C321.384 55.2837 326.198 55.3898 326.198 55.3898C326.198 55.3898 320.436 52.0822 319.865 48.8543C318.733 45.2115 317.864 42.0064 317.864 42.0064C317.864 42.0064 316.216 44.7336 314.444 47.8174C312.673 50.9012 307.458 51.8051 307.458 51.8051C307.458 51.8051 311.811 53.4524 313.257 55.9568C314.703 58.4611 314.733 63.4648 314.733 63.4648C314.733 63.4648 316.805 58.8631 319.095 57.0734Z" fill="#B5F8F0"/>
<path d="M157.129 54.8467C157.874 53.2181 160.21 52.0617 160.21 52.0617C160.21 52.0617 156.779 51.5818 155.861 49.8344C154.591 47.9858 153.534 46.3274 153.534 46.3274C153.534 46.3274 153.285 48.343 153.047 50.5989C152.809 52.8547 150.48 54.7048 150.48 54.7048C150.48 54.7048 152.903 54.5683 154.098 55.67C155.292 56.7718 156.304 59.6968 156.304 59.6968C156.304 59.6968 156.384 56.4753 157.129 54.8467Z" fill="#F3F4FF"/>
<path d="M219.533 55.4065C220.673 54.1117 223.206 53.8177 223.206 53.8177C223.206 53.8177 220.062 52.1734 219.648 50.1901C218.924 47.9885 218.354 46.0419 218.354 46.0419C218.354 46.0419 217.585 47.8771 216.763 49.9454C215.941 52.0136 213.233 52.9717 213.233 52.9717C213.233 52.9717 215.579 53.6795 216.427 55.143C217.275 56.6065 217.468 59.7448 217.468 59.7448C217.468 59.7448 218.393 56.7014 219.533 55.4065Z" fill="#F3F4FF"/>
<path d="M284.469 56.3148C285.914 55.5153 288.393 56.1811 288.393 56.1811C288.393 56.1811 285.887 53.4546 286.059 51.425C286.001 49.0737 286.016 47.0207 286.016 47.0207C286.016 47.0207 284.766 48.4692 283.401 50.1186C282.037 51.768 279.204 51.6646 279.204 51.6646C279.204 51.6646 281.22 53.208 281.606 54.9079C281.992 56.6079 281.282 59.6471 281.282 59.6471C281.282 59.6471 283.023 57.1144 284.469 56.3148Z" fill="#B5F8F0"/>
<path d="M50.14 42.5707V56.6107H46.72V48.1907L43.58 56.6107H40.82L37.66 48.1707V56.6107H34.24V42.5707H38.28L42.22 52.2907L46.12 42.5707H50.14ZM63.8344 45.4507L56.8344 61.9107H53.1544L55.7144 56.2307L51.1744 45.4507H54.9944L57.5744 52.4307L60.1344 45.4507H63.8344ZM68.3994 49.5707C68.3994 48.1841 68.6994 46.9507 69.2994 45.8707C69.8994 44.7774 70.7327 43.9307 71.7994 43.3307C72.8794 42.7174 74.0994 42.4107 75.4594 42.4107C77.126 42.4107 78.5527 42.8507 79.7394 43.7307C80.926 44.6107 81.7194 45.8107 82.1194 47.3307H78.3594C78.0794 46.7441 77.6794 46.2974 77.1594 45.9907C76.6527 45.6841 76.0727 45.5307 75.4194 45.5307C74.366 45.5307 73.5127 45.8974 72.8594 46.6307C72.206 47.3641 71.8794 48.3441 71.8794 49.5707C71.8794 50.7974 72.206 51.7774 72.8594 52.5107C73.5127 53.2441 74.366 53.6107 75.4194 53.6107C76.0727 53.6107 76.6527 53.4574 77.1594 53.1507C77.6794 52.8441 78.0794 52.3974 78.3594 51.8107H82.1194C81.7194 53.3307 80.926 54.5307 79.7394 55.4107C78.5527 56.2774 77.126 56.7107 75.4594 56.7107C74.0994 56.7107 72.8794 56.4107 71.7994 55.8107C70.7327 55.1974 69.8994 54.3507 69.2994 53.2707C68.6994 52.1907 68.3994 50.9574 68.3994 49.5707ZM87.4688 47.3107C87.8688 46.6974 88.3688 46.2174 88.9688 45.8707C89.5688 45.5107 90.2354 45.3307 90.9688 45.3307V48.9507H90.0288C89.1754 48.9507 88.5354 49.1374 88.1088 49.5107C87.6821 49.8707 87.4688 50.5107 87.4688 51.4307V56.6107H84.0488V45.4507H87.4688V47.3107ZM103.458 45.4507V56.6107H100.038V55.0907C99.6918 55.5841 99.2184 55.9841 98.6184 56.2907C98.0318 56.5841 97.3784 56.7307 96.6584 56.7307C95.8051 56.7307 95.0518 56.5441 94.3984 56.1707C93.7451 55.7841 93.2384 55.2307 92.8784 54.5107C92.5184 53.7907 92.3384 52.9441 92.3384 51.9707V45.4507H95.7384V51.5107C95.7384 52.2574 95.9318 52.8374 96.3184 53.2507C96.7051 53.6641 97.2251 53.8707 97.8784 53.8707C98.5451 53.8707 99.0718 53.6641 99.4584 53.2507C99.8451 52.8374 100.038 52.2574 100.038 51.5107V45.4507H103.458ZM110.29 56.7707C109.317 56.7707 108.45 56.6041 107.69 56.2707C106.93 55.9374 106.33 55.4841 105.89 54.9107C105.45 54.3241 105.203 53.6707 105.15 52.9507H108.53C108.57 53.3374 108.75 53.6507 109.07 53.8907C109.39 54.1307 109.783 54.2507 110.25 54.2507C110.677 54.2507 111.003 54.1707 111.23 54.0107C111.47 53.8374 111.59 53.6174 111.59 53.3507C111.59 53.0307 111.423 52.7974 111.09 52.6507C110.757 52.4907 110.217 52.3174 109.47 52.1307C108.67 51.9441 108.003 51.7507 107.47 51.5507C106.937 51.3374 106.477 51.0107 106.09 50.5707C105.703 50.1174 105.51 49.5107 105.51 48.7507C105.51 48.1107 105.683 47.5307 106.03 47.0107C106.39 46.4774 106.91 46.0574 107.59 45.7507C108.283 45.4441 109.103 45.2907 110.05 45.2907C111.45 45.2907 112.55 45.6374 113.35 46.3307C114.163 47.0241 114.63 47.9441 114.75 49.0907H111.59C111.537 48.7041 111.363 48.3974 111.07 48.1707C110.79 47.9441 110.417 47.8307 109.95 47.8307C109.55 47.8307 109.243 47.9107 109.03 48.0707C108.817 48.2174 108.71 48.4241 108.71 48.6907C108.71 49.0107 108.877 49.2507 109.21 49.4107C109.557 49.5707 110.09 49.7307 110.81 49.8907C111.637 50.1041 112.31 50.3174 112.83 50.5307C113.35 50.7307 113.803 51.0641 114.19 51.5307C114.59 51.9841 114.797 52.5974 114.81 53.3707C114.81 54.0241 114.623 54.6107 114.25 55.1307C113.89 55.6374 113.363 56.0374 112.67 56.3307C111.99 56.6241 111.197 56.7707 110.29 56.7707ZM123.597 45.3307C124.877 45.3307 125.904 45.7574 126.677 46.6107C127.451 47.4507 127.837 48.6107 127.837 50.0907V56.6107H124.437V50.5507C124.437 49.8041 124.244 49.2241 123.857 48.8107C123.471 48.3974 122.951 48.1907 122.297 48.1907C121.644 48.1907 121.124 48.3974 120.737 48.8107C120.351 49.2241 120.157 49.8041 120.157 50.5507V56.6107H116.737V41.8107H120.157V46.9507C120.504 46.4574 120.977 46.0641 121.577 45.7707C122.177 45.4774 122.851 45.3307 123.597 45.3307Z" fill="black"/>
<path d="M351.04 54.8205C351.805 53.2037 354.155 52.0843 354.155 52.0843C354.155 52.0843 350.73 51.5504 349.834 49.7887C348.585 47.9203 347.549 46.2454 347.549 46.2454C347.549 46.2454 347.275 48.2568 347.01 50.5088C346.745 52.7607 344.394 54.5739 344.394 54.5739C344.394 54.5739 346.819 54.4755 348 55.596C349.181 56.7164 350.158 59.6571 350.158 59.6571C350.158 59.6571 350.276 56.4372 351.04 54.8205Z" fill="#B5F8F0"/>
<path d="M37.8516 108.427C37.8516 97.3818 46.8059 88.4275 57.8516 88.4275H148.843C159.889 88.4275 168.843 97.3818 168.843 108.427V119.954C168.843 131 159.889 139.954 148.843 139.954H57.8516C46.8059 139.954 37.8516 131 37.8516 119.954V108.427Z" fill="#FFCB13"/>
<path d="M46.3535 86.1434C47.8332 84.8753 50.1277 84.986 51.4784 86.3907V86.3907C52.8292 87.7954 52.7246 89.9621 51.2449 91.2303L40.5707 100.378C39.091 101.646 36.7965 101.536 35.4457 100.131V100.131C34.095 98.7264 34.1995 96.5596 35.6792 95.2915L46.3535 86.1434Z" fill="white" fill-opacity="0.65"/>
<path d="M166.43 128.51C167.909 127.242 170.204 127.352 171.555 128.757V128.757C172.905 130.162 172.801 132.329 171.321 133.597L160.647 142.745C159.167 144.013 156.873 143.902 155.522 142.497V142.497C154.171 141.093 154.276 138.926 155.755 137.658L166.43 128.51Z" fill="white" fill-opacity="0.65"/>
<path d="M213.852 108.427C213.852 97.3818 222.806 88.4275 233.852 88.4275H324.843C335.889 88.4275 344.843 97.3818 344.843 108.427V119.954C344.843 131 335.889 139.954 324.843 139.954H233.852C222.806 139.954 213.852 131 213.852 119.954V108.427Z" fill="#B5D364"/>
<path d="M222.353 86.1434C223.833 84.8753 226.128 84.986 227.478 86.3907V86.3907C228.829 87.7954 228.725 89.9621 227.245 91.2303L216.571 100.378C215.091 101.646 212.796 101.536 211.446 100.131V100.131C210.095 98.7264 210.2 96.5596 211.679 95.2915L222.353 86.1434Z" fill="white" fill-opacity="0.65"/>
<path d="M342.43 128.51C343.909 127.242 346.204 127.352 347.555 128.757V128.757C348.905 130.162 348.801 132.329 347.321 133.597L336.647 142.745C335.167 144.013 332.873 143.902 331.522 142.497V142.497C330.171 141.093 330.276 138.926 331.755 137.658L342.43 128.51Z" fill="white" fill-opacity="0.65"/>
<path d="M74.404 114.324C74.404 114.996 74.242 115.626 73.918 116.214C73.606 116.802 73.108 117.276 72.424 117.636C71.752 117.996 70.9 118.176 69.868 118.176H67.762V123H65.242V110.436H69.868C70.84 110.436 71.668 110.604 72.352 110.94C73.036 111.276 73.546 111.738 73.882 112.326C74.23 112.914 74.404 113.58 74.404 114.324ZM69.76 116.142C70.456 116.142 70.972 115.986 71.308 115.674C71.644 115.35 71.812 114.9 71.812 114.324C71.812 113.1 71.128 112.488 69.76 112.488H67.762V116.142H69.76ZM85.2982 117.798C85.2982 118.158 85.2742 118.482 85.2262 118.77H77.9362C77.9962 119.49 78.2482 120.054 78.6922 120.462C79.1362 120.87 79.6822 121.074 80.3302 121.074C81.2662 121.074 81.9322 120.672 82.3282 119.868H85.0462C84.7582 120.828 84.2062 121.62 83.3902 122.244C82.5742 122.856 81.5722 123.162 80.3842 123.162C79.4242 123.162 78.5602 122.952 77.7922 122.532C77.0362 122.1 76.4422 121.494 76.0102 120.714C75.5902 119.934 75.3802 119.034 75.3802 118.014C75.3802 116.982 75.5902 116.076 76.0102 115.296C76.4302 114.516 77.0182 113.916 77.7742 113.496C78.5302 113.076 79.4002 112.866 80.3842 112.866C81.3322 112.866 82.1782 113.07 82.9222 113.478C83.6782 113.886 84.2602 114.468 84.6682 115.224C85.0882 115.968 85.2982 116.826 85.2982 117.798ZM82.6882 117.078C82.6762 116.43 82.4422 115.914 81.9862 115.53C81.5302 115.134 80.9722 114.936 80.3122 114.936C79.6882 114.936 79.1602 115.128 78.7282 115.512C78.3082 115.884 78.0502 116.406 77.9542 117.078H82.6882ZM89.4925 114.576C89.8165 114.048 90.2365 113.634 90.7525 113.334C91.2805 113.034 91.8805 112.884 92.5525 112.884V115.53H91.8865C91.0945 115.53 90.4945 115.716 90.0865 116.088C89.6905 116.46 89.4925 117.108 89.4925 118.032V123H86.9725V113.028H89.4925V114.576ZM97.9009 123.162C97.0849 123.162 96.3529 123.018 95.7049 122.73C95.0569 122.43 94.5409 122.028 94.1569 121.524C93.7849 121.02 93.5809 120.462 93.5449 119.85H96.0829C96.1309 120.234 96.3169 120.552 96.6409 120.804C96.9769 121.056 97.3909 121.182 97.8829 121.182C98.3629 121.182 98.7349 121.086 98.9989 120.894C99.2749 120.702 99.4129 120.456 99.4129 120.156C99.4129 119.832 99.2449 119.592 98.9089 119.436C98.5849 119.268 98.0629 119.088 97.3429 118.896C96.5989 118.716 95.9869 118.53 95.5069 118.338C95.0389 118.146 94.6309 117.852 94.2829 117.456C93.9469 117.06 93.7789 116.526 93.7789 115.854C93.7789 115.302 93.9349 114.798 94.2469 114.342C94.5709 113.886 95.0269 113.526 95.6149 113.262C96.2149 112.998 96.9169 112.866 97.7209 112.866C98.9089 112.866 99.8569 113.166 100.565 113.766C101.273 114.354 101.663 115.152 101.735 116.16H99.3229C99.2869 115.764 99.1189 115.452 98.8189 115.224C98.5309 114.984 98.1409 114.864 97.6489 114.864C97.1929 114.864 96.8389 114.948 96.5869 115.116C96.3469 115.284 96.2269 115.518 96.2269 115.818C96.2269 116.154 96.3949 116.412 96.7309 116.592C97.0669 116.76 97.5889 116.934 98.2969 117.114C99.0169 117.294 99.6109 117.48 100.079 117.672C100.547 117.864 100.949 118.164 101.285 118.572C101.633 118.968 101.813 119.496 101.825 120.156C101.825 120.732 101.663 121.248 101.339 121.704C101.027 122.16 100.571 122.52 99.9709 122.784C99.3829 123.036 98.6929 123.162 97.9009 123.162ZM108.156 123.162C107.196 123.162 106.332 122.952 105.564 122.532C104.796 122.1 104.19 121.494 103.746 120.714C103.314 119.934 103.098 119.034 103.098 118.014C103.098 116.994 103.32 116.094 103.764 115.314C104.22 114.534 104.838 113.934 105.618 113.514C106.398 113.082 107.268 112.866 108.228 112.866C109.188 112.866 110.058 113.082 110.838 113.514C111.618 113.934 112.23 114.534 112.674 115.314C113.13 116.094 113.358 116.994 113.358 118.014C113.358 119.034 113.124 119.934 112.656 120.714C112.2 121.494 111.576 122.1 110.784 122.532C110.004 122.952 109.128 123.162 108.156 123.162ZM108.156 120.966C108.612 120.966 109.038 120.858 109.434 120.642C109.842 120.414 110.166 120.078 110.406 119.634C110.646 119.19 110.766 118.65 110.766 118.014C110.766 117.066 110.514 116.34 110.01 115.836C109.518 115.32 108.912 115.062 108.192 115.062C107.472 115.062 106.866 115.32 106.374 115.836C105.894 116.34 105.654 117.066 105.654 118.014C105.654 118.962 105.888 119.694 106.356 120.21C106.836 120.714 107.436 120.966 108.156 120.966ZM120.568 112.884C121.756 112.884 122.716 113.262 123.448 114.018C124.18 114.762 124.546 115.806 124.546 117.15V123H122.026V117.492C122.026 116.7 121.828 116.094 121.432 115.674C121.036 115.242 120.496 115.026 119.812 115.026C119.116 115.026 118.564 115.242 118.156 115.674C117.76 116.094 117.562 116.7 117.562 117.492V123H115.042V113.028H117.562V114.27C117.898 113.838 118.324 113.502 118.84 113.262C119.368 113.01 119.944 112.884 120.568 112.884ZM126.129 117.978C126.129 116.97 126.327 116.076 126.723 115.296C127.131 114.516 127.677 113.916 128.361 113.496C129.057 113.076 129.831 112.866 130.683 112.866C131.427 112.866 132.075 113.016 132.627 113.316C133.191 113.616 133.641 113.994 133.977 114.45V113.028H136.515V123H133.977V121.542C133.653 122.01 133.203 122.4 132.627 122.712C132.063 123.012 131.409 123.162 130.665 123.162C129.825 123.162 129.057 122.946 128.361 122.514C127.677 122.082 127.131 121.476 126.723 120.696C126.327 119.904 126.129 118.998 126.129 117.978ZM133.977 118.014C133.977 117.402 133.857 116.88 133.617 116.448C133.377 116.004 133.053 115.668 132.645 115.44C132.237 115.2 131.799 115.08 131.331 115.08C130.863 115.08 130.431 115.194 130.035 115.422C129.639 115.65 129.315 115.986 129.063 116.43C128.823 116.862 128.703 117.378 128.703 117.978C128.703 118.578 128.823 119.106 129.063 119.562C129.315 120.006 129.639 120.348 130.035 120.588C130.443 120.828 130.875 120.948 131.331 120.948C131.799 120.948 132.237 120.834 132.645 120.606C133.053 120.366 133.377 120.03 133.617 119.598C133.857 119.154 133.977 118.626 133.977 118.014ZM141.332 109.68V123H138.812V109.68H141.332Z" fill="black"/>
<path d="M22 39C22 30.7157 28.7157 24 37 24H348C356.284 24 363 30.7157 363 39V139C363 147.284 356.284 154 348 154H37C28.7157 154 22 147.284 22 139V39Z" fill="#EAF7F5"/>
<path d="M59.14 51.96V66H55.72V57.58L52.58 66H49.82L46.66 57.56V66H43.24V51.96H47.28L51.22 61.68L55.12 51.96H59.14ZM72.8344 54.84L65.8344 71.3H62.1544L64.7144 65.62L60.1744 54.84H63.9944L66.5744 61.82L69.1344 54.84H72.8344ZM77.3994 58.96C77.3994 57.5733 77.6994 56.34 78.2994 55.26C78.8994 54.1667 79.7327 53.32 80.7994 52.72C81.8794 52.1067 83.0994 51.8 84.4594 51.8C86.126 51.8 87.5527 52.24 88.7394 53.12C89.926 54 90.7194 55.2 91.1194 56.72H87.3594C87.0794 56.1333 86.6794 55.6867 86.1594 55.38C85.6527 55.0733 85.0727 54.92 84.4194 54.92C83.366 54.92 82.5127 55.2867 81.8594 56.02C81.206 56.7533 80.8794 57.7333 80.8794 58.96C80.8794 60.1867 81.206 61.1667 81.8594 61.9C82.5127 62.6333 83.366 63 84.4194 63C85.0727 63 85.6527 62.8467 86.1594 62.54C86.6794 62.2333 87.0794 61.7867 87.3594 61.2H91.1194C90.7194 62.72 89.926 63.92 88.7394 64.8C87.5527 65.6667 86.126 66.1 84.4594 66.1C83.0994 66.1 81.8794 65.8 80.7994 65.2C79.7327 64.5867 78.8994 63.74 78.2994 62.66C77.6994 61.58 77.3994 60.3467 77.3994 58.96ZM96.4688 56.7C96.8688 56.0867 97.3688 55.6067 97.9688 55.26C98.5688 54.9 99.2354 54.72 99.9688 54.72V58.34H99.0288C98.1754 58.34 97.5354 58.5267 97.1088 58.9C96.6821 59.26 96.4688 59.9 96.4688 60.82V66H93.0488V54.84H96.4688V56.7ZM112.458 54.84V66H109.038V64.48C108.692 64.9733 108.218 65.3733 107.618 65.68C107.032 65.9733 106.378 66.12 105.658 66.12C104.805 66.12 104.052 65.9333 103.398 65.56C102.745 65.1733 102.238 64.62 101.878 63.9C101.518 63.18 101.338 62.3333 101.338 61.36V54.84H104.738V60.9C104.738 61.6467 104.932 62.2267 105.318 62.64C105.705 63.0533 106.225 63.26 106.878 63.26C107.545 63.26 108.072 63.0533 108.458 62.64C108.845 62.2267 109.038 61.6467 109.038 60.9V54.84H112.458ZM119.29 66.16C118.317 66.16 117.45 65.9933 116.69 65.66C115.93 65.3267 115.33 64.8733 114.89 64.3C114.45 63.7133 114.203 63.06 114.15 62.34H117.53C117.57 62.7267 117.75 63.04 118.07 63.28C118.39 63.52 118.783 63.64 119.25 63.64C119.677 63.64 120.003 63.56 120.23 63.4C120.47 63.2267 120.59 63.0067 120.59 62.74C120.59 62.42 120.423 62.1867 120.09 62.04C119.757 61.88 119.217 61.7067 118.47 61.52C117.67 61.3333 117.003 61.14 116.47 60.94C115.937 60.7267 115.477 60.4 115.09 59.96C114.703 59.5067 114.51 58.9 114.51 58.14C114.51 57.5 114.683 56.92 115.03 56.4C115.39 55.8667 115.91 55.4467 116.59 55.14C117.283 54.8333 118.103 54.68 119.05 54.68C120.45 54.68 121.55 55.0267 122.35 55.72C123.163 56.4133 123.63 57.3333 123.75 58.48H120.59C120.537 58.0933 120.363 57.7867 120.07 57.56C119.79 57.3333 119.417 57.22 118.95 57.22C118.55 57.22 118.243 57.3 118.03 57.46C117.817 57.6067 117.71 57.8133 117.71 58.08C117.71 58.4 117.877 58.64 118.21 58.8C118.557 58.96 119.09 59.12 119.81 59.28C120.637 59.4933 121.31 59.7067 121.83 59.92C122.35 60.12 122.803 60.4533 123.19 60.92C123.59 61.3733 123.797 61.9867 123.81 62.76C123.81 63.4133 123.623 64 123.25 64.52C122.89 65.0267 122.363 65.4267 121.67 65.72C120.99 66.0133 120.197 66.16 119.29 66.16ZM132.597 54.72C133.877 54.72 134.904 55.1467 135.677 56C136.451 56.84 136.837 58 136.837 59.48V66H133.437V59.94C133.437 59.1933 133.244 58.6133 132.857 58.2C132.471 57.7867 131.951 57.58 131.297 57.58C130.644 57.58 130.124 57.7867 129.737 58.2C129.351 58.6133 129.157 59.1933 129.157 59.94V66H125.737V51.2H129.157V56.34C129.504 55.8467 129.977 55.4533 130.577 55.16C131.177 54.8667 131.851 54.72 132.597 54.72ZM149.569 60.24C149.569 60.56 149.549 60.8933 149.509 61.24H141.769C141.822 61.9333 142.042 62.4667 142.429 62.84C142.829 63.2 143.316 63.38 143.889 63.38C144.742 63.38 145.336 63.02 145.669 62.3H149.309C149.122 63.0333 148.782 63.6933 148.289 64.28C147.809 64.8667 147.202 65.3267 146.469 65.66C145.736 65.9933 144.916 66.16 144.009 66.16C142.916 66.16 141.942 65.9267 141.089 65.46C140.236 64.9933 139.569 64.3267 139.089 63.46C138.609 62.5933 138.369 61.58 138.369 60.42C138.369 59.26 138.602 58.2467 139.069 57.38C139.549 56.5133 140.216 55.8467 141.069 55.38C141.922 54.9133 142.902 54.68 144.009 54.68C145.089 54.68 146.049 54.9067 146.889 55.36C147.729 55.8133 148.382 56.46 148.849 57.3C149.329 58.14 149.569 59.12 149.569 60.24ZM146.069 59.34C146.069 58.7533 145.869 58.2867 145.469 57.94C145.069 57.5933 144.569 57.42 143.969 57.42C143.396 57.42 142.909 57.5867 142.509 57.92C142.122 58.2533 141.882 58.7267 141.789 59.34H146.069ZM155.748 66.16C154.775 66.16 153.908 65.9933 153.148 65.66C152.388 65.3267 151.788 64.8733 151.348 64.3C150.908 63.7133 150.661 63.06 150.608 62.34H153.988C154.028 62.7267 154.208 63.04 154.528 63.28C154.848 63.52 155.241 63.64 155.708 63.64C156.135 63.64 156.461 63.56 156.688 63.4C156.928 63.2267 157.048 63.0067 157.048 62.74C157.048 62.42 156.881 62.1867 156.548 62.04C156.215 61.88 155.675 61.7067 154.928 61.52C154.128 61.3333 153.461 61.14 152.928 60.94C152.395 60.7267 151.935 60.4 151.548 59.96C151.161 59.5067 150.968 58.9 150.968 58.14C150.968 57.5 151.141 56.92 151.488 56.4C151.848 55.8667 152.368 55.4467 153.048 55.14C153.741 54.8333 154.561 54.68 155.508 54.68C156.908 54.68 158.008 55.0267 158.808 55.72C159.621 56.4133 160.088 57.3333 160.208 58.48H157.048C156.995 58.0933 156.821 57.7867 156.528 57.56C156.248 57.3333 155.875 57.22 155.408 57.22C155.008 57.22 154.701 57.3 154.488 57.46C154.275 57.6067 154.168 57.8133 154.168 58.08C154.168 58.4 154.335 58.64 154.668 58.8C155.015 58.96 155.548 59.12 156.268 59.28C157.095 59.4933 157.768 59.7067 158.288 59.92C158.808 60.12 159.261 60.4533 159.648 60.92C160.048 61.3733 160.255 61.9867 160.268 62.76C160.268 63.4133 160.081 64 159.708 64.52C159.348 65.0267 158.821 65.4267 158.128 65.72C157.448 66.0133 156.655 66.16 155.748 66.16Z" fill="black"/>
<rect x="213" y="86" width="130.992" height="45" rx="2" fill="#B5D364"/>
<rect width="7.05706" height="21.115" transform="matrix(0.693129 0.720813 -0.759303 0.650737 224.033 81)" fill="white" fill-opacity="0.65"/>
<rect width="7.05706" height="21.115" transform="matrix(0.693129 0.720813 -0.759303 0.650737 344.033 117)" fill="white" fill-opacity="0.65"/>
<rect x="42.8516" y="85.5802" width="130.992" height="45" rx="2" fill="#FFCB13"/>
<rect width="7.05706" height="21.115" transform="matrix(0.693129 0.720813 -0.759303 0.650737 54.0327 81)" fill="white" fill-opacity="0.65"/>
<rect width="7.05706" height="21.115" transform="matrix(0.693129 0.720813 -0.759303 0.650737 174.033 117)" fill="white" fill-opacity="0.65"/>
<defs>
<filter id="filter0_d_616_2823" x="-1" y="0" width="388" height="178" filterUnits="userSpaceOnUse" color-interpolation-filters="sRGB">
<feFlood flood-opacity="0" result="BackgroundImageFix"/>
<feColorMatrix in="SourceAlpha" type="matrix" values="0 0 0 0 0 0 0 0 0 0 0 0 0 0 0 0 0 0 127 0" result="hardAlpha"/>
<feMorphology radius="4" operator="dilate" in="SourceAlpha" result="effect1_dropShadow_616_2823"/>
<feOffset/>
<feGaussianBlur stdDeviation="5"/>
<feComposite in2="hardAlpha" operator="out"/>
<feColorMatrix type="matrix" values="0 0 0 0 0.552941 0 0 0 0 0.898039 0 0 0 0 0.858824 0 0 0 0.25 0"/>
<feBlend mode="normal" in2="BackgroundImageFix" result="effect1_dropShadow_616_2823"/>
<feBlend mode="normal" in="SourceGraphic" in2="effect1_dropShadow_616_2823" result="shape"/>
</filter>
</defs>
</svg>
